<?xml version="1.0" standalone="no"?>
<!DOCTYPE svg PUBLIC "-//W3C//DTD SVG 1.1//EN" "http://www.w3.org/Graphics/SVG/1.1/DTD/svg11.dtd" >
<svg xmlns="http://www.w3.org/2000/svg" xmlns:xlink="http://www.w3.org/1999/xlink" version="1.1">
<metadata>
Created by FontForge 20201107 at Thu Feb 29 12:10:12 2024
 By 
Sweetie Potato (c) (MJType). 2024. All Rights Reserved
</metadata>
<defs>
<font id="SweetiePotato" horiz-adv-x="1015" >
  <font-face 
    font-family="Sweetie Potato"
    font-weight="400"
    font-stretch="normal"
    units-per-em="2048"
    panose-1="0 0 0 0 0 0 0 0 0 0"
    ascent="1638"
    descent="-410"
    x-height="954"
    cap-height="1362"
    bbox="-416.081 -522 1930.22 1988.23"
    underline-thickness="0"
    underline-position="0"
    unicode-range="U+000A-2212"
  />
<missing-glyph horiz-adv-x="1079" 
 />
    <glyph glyph-name=".notdef" horiz-adv-x="1079" 
 />
    <glyph glyph-name="uni0000" horiz-adv-x="0" 
 />
    <glyph glyph-name="uni0000" horiz-adv-x="0" 
 />
    <glyph glyph-name="uni000D" unicode="&#xd;" horiz-adv-x="0" 
 />
    <glyph glyph-name="uni000A" unicode="&#xa;" horiz-adv-x="0" 
 />
    <glyph glyph-name="space" unicode=" " horiz-adv-x="512" 
 />
    <glyph glyph-name="exclam" unicode="!" horiz-adv-x="428" 
d="M354 659q7 -46 -25 -78.5t-79 -27.5q-51 0 -97 63t-61 121q-43 167 -16 375q4 33 21 113t28 102q29 51 86 51q29 0 49 -10t32 -31t17.5 -38t12.5 -46q10 -75 24 -305q16 -200 16 -207q0 -4 -4.5 -39.5t-3.5 -42.5zM322 182q-5 -47 -48 -96t-90 -49q-32 0 -55 20
q-33 38 -31 68q6 55 45 94q23 26 42.5 39.5t47.5 13.5q37 0 64.5 -26.5t24.5 -63.5z" />
    <glyph glyph-name="quotedbl" unicode="&#x22;" horiz-adv-x="681" 
d="M244 1184q7 -39 -19 -70t-65 -31q-2 0 -7.5 1t-7.5 1q-49 9 -80 57t-26 101q17 193 113 193q25 0 47 -14.5t34 -39.5q4 -8 4 -31.5t-2 -51t-2 -31.5q1 -8 11 -84zM637 1192q0 -123 -94 -123q-30 0 -56 18.5t-36 51.5q-22 75 -11 145q1 6 4 23t5.5 26t6.5 23t9.5 25
t13.5 20q10 13 35.5 24t44.5 11q37 0 58 -32t8 -67q-4 -8 -4 -12q16 -86 16 -133z" />
    <glyph glyph-name="quotedbl" unicode="&#x201f;" horiz-adv-x="681" 
d="M244 1184q7 -39 -19 -70t-65 -31q-2 0 -7.5 1t-7.5 1q-49 9 -80 57t-26 101q17 193 113 193q25 0 47 -14.5t34 -39.5q4 -8 4 -31.5t-2 -51t-2 -31.5q1 -8 11 -84zM637 1192q0 -123 -94 -123q-30 0 -56 18.5t-36 51.5q-22 75 -11 145q1 6 4 23t5.5 26t6.5 23t9.5 25
t13.5 20q10 13 35.5 24t44.5 11q37 0 58 -32t8 -67q-4 -8 -4 -12q16 -86 16 -133z" />
    <glyph glyph-name="numbersign" unicode="#" horiz-adv-x="1024" 
d="M332 164q-6 -31 -28 -48.5t-50 -17.5q-55 0 -76 52q-45 111 -18 311q-102 0 -111 67q-6 35 19 64t59 29q5 0 25 -5q4 -1 9.5 -1t12.5 0.5t10 0.5q9 50 21 99q-3 -1 -23.5 -7.5t-23.5 -7.5q-15 -3 -39.5 3.5t-36.5 15.5q-21 18 -25 53q-1 25 17 48.5t43 29.5q67 18 135 39
q14 46 46.5 139t45.5 117q36 60 102 45q15 -4 35.5 -24.5t26.5 -35.5q7 -26 0 -49q-1 -1 -4 -6t-5.5 -9.5t-2.5 -6.5q-2 -22 -10 -64t-9 -49q167 35 260 35q33 76 94 188q20 39 62 39q24 0 44.5 -14t27.5 -39q4 -30 -2 -43q-5 -11 -18 -36.5t-20 -39.5t-15.5 -35t-14.5 -40
q30 -8 49 -21q33 -24 29.5 -65.5t-39.5 -63.5q-25 -12 -84 -12q-8 -47 -14 -74q5 0 22.5 1.5t26.5 0.5q39 -7 57 -40.5t5.5 -69t-50.5 -46.5q-15 -4 -44 -12t-44 -12q-23 -201 -33 -234q-2 -4 -12 -28.5t-12 -28.5q-21 -37 -66 -37q-83 0 -92 129q-2 53 18 156
q-117 -21 -237 -33q-4 -22 -14 -67.5t-15.5 -72.5t-10 -65.5t-3.5 -70.5v-31zM438 758q-4 -17 -11 -52t-11 -53q34 6 113.5 23t123.5 24q3 16 10.5 44t10.5 40q-83 -6 -236 -26z" />
    <glyph glyph-name="dollar" unicode="$" horiz-adv-x="1005" 
d="M614 -215q-23 -45 -82 -45q-45 0 -71 33.5t-35 83.5q-4 27 6 135q-122 -4 -203 35q-127 60 -174 151q-27 52 -14 90q9 26 31 41t47 15q35 0 63 -31q1 -1 7.5 -8.5t7.5 -8.5q24 -19 102 -37t117 -18q145 0 262 90q66 49 63 99q-2 45 -69 112q-70 66 -217.5 174.5
t-167.5 124.5q-37 29 -59 48t-50.5 50t-44.5 60q-29 57 -22.5 118.5t47.5 108.5q63 73 272 137q-7 32 -15.5 106.5t-4.5 98.5q6 31 29.5 50.5t52.5 19.5q39 0 59 -35q8 -12 20.5 -97.5t14.5 -119.5q104 0 193 -60.5t102 -158.5q2 -9 3 -19.5t1.5 -23t1.5 -19.5
q1 -29 -19.5 -49.5t-50.5 -23.5q-27 0 -48 17.5t-26 41.5q-1 6 -2.5 17.5t-3.5 21t-6 16.5q-8 17 -40 25t-60 8q-49 0 -116 -26t-112 -58q14 -18 33.5 -38t32 -31.5t38 -34.5t34.5 -31q21 -20 87 -80t109 -102t82 -84q68 -75 101 -142q35 -80 30 -143q-6 -67 -37.5 -127.5
t-80 -106.5t-107.5 -79.5t-123 -52.5q2 -11 14 -62t13 -80q4 -62 -15 -96z" />
    <glyph glyph-name="percent" unicode="%" horiz-adv-x="1390" 
d="M643 1116q-12 -82 -86 -175t-172 -154.5t-176 -61.5q-50 0 -91.5 22t-62.5 64q-30 58 -16 131q23 106 85 248t124 194q16 16 40 29.5t44 13.5q22 0 35 -8q1 -1 6 -5t6 -5q124 -32 211 -119q30 -32 44.5 -80t8.5 -94zM446 117q16 -45 -10.5 -78t-70.5 -33t-74 37
q-39 49 -29 115q18 107 197 393q23 38 134 210t142 218q110 167 144 225q6 10 16 33t10 31q0 12 -6 24q-9 34 13.5 59t56.5 25q49 0 78 -59q32 -65 2 -152q-12 -35 -31 -76.5t-31.5 -65t-42.5 -76.5t-37 -66q-23 -40 -131 -215.5t-137 -221.5q-36 -53 -109 -170t-86 -149
q-1 -1 0.5 -4t1.5 -4zM332 1260q-32 -48 -74 -168.5t-41 -171.5q48 9 113 67t108 113q38 51 31 67q-11 22 -56 50t-81 43zM1364 383q-34 -96 -134 -194.5t-190 -98.5q-55 0 -92 37q-30 27 -45.5 69t-13.5 85q2 75 49 180t102 137q3 2 16 12t22 14.5t18 6.5q12 1 52.5 -4
t57.5 -9q100 -20 140 -75q53 -74 18 -160zM1094 442q-45 -81 -31 -151q33 29 67 75.5t48 84.5q-34 14 -66 22q-4 -4 -7 -9t-6 -12t-5 -10z" />
    <glyph glyph-name="ampersand" unicode="&#x26;" horiz-adv-x="1122" 
d="M254 -45q-38 -15 -78 -18q-60 0 -100.5 41.5t-42.5 101.5q0 57 43 137q25 47 104.5 176t104.5 158q-88 106 -117 199q-37 126 4 241q25 72 75 149t113 143t140.5 108t148.5 41q80 0 127 -60t47 -143q8 -134 -80 -309q-27 -56 -60 -114t-81.5 -137t-66.5 -110
q64 -53 153 -100q2 1 105.5 59t121.5 68q20 14 43 14q30 0 52 -23t22 -52.5t-28 -57.5q-11 -10 -66.5 -51t-69.5 -51q20 -10 64 -35t69 -37q8 -3 39.5 -11t44.5 -20q42 -35 20.5 -83t-75.5 -42q-54 4 -303 121q-93 -69 -155 -113t-150.5 -98.5t-167.5 -91.5zM346 879
q-10 -70 47 -166q109 163 160 254q75 134 86 221q3 23 -4 51q-59 -17 -125 -81.5t-110.5 -142t-53.5 -136.5zM444 408q-4 -8 -35.5 -62.5t-35.5 -62.5q9 5 70.5 39.5t70.5 39.5q-20 11 -70 46z" />
    <glyph glyph-name="quotesingle" unicode="'" horiz-adv-x="311" 
d="M264 1200q0 -176 -110 -176q-27 0 -47.5 15t-32.5 39.5t-18 49t-9 50.5q-7 57 9 139.5t50 112.5q25 22 66 22q11 0 27 -4q29 -11 49 -40.5t16 -57.5q0 -1 -1 -4t-1 -5q2 -23 2 -141z" />
    <glyph glyph-name="quotesingle" unicode="&#x201b;" horiz-adv-x="311" 
d="M264 1200q0 -176 -110 -176q-27 0 -47.5 15t-32.5 39.5t-18 49t-9 50.5q-7 57 9 139.5t50 112.5q25 22 66 22q11 0 27 -4q29 -11 49 -40.5t16 -57.5q0 -1 -1 -4t-1 -5q2 -23 2 -141z" />
    <glyph glyph-name="parenleft" unicode="(" horiz-adv-x="786" 
d="M662 63q-7 0 -62 -2t-63 -2q-185 4 -304 58q-141 75 -167 248q-18 92 -3 249q31 266 148 504q28 55 58.5 105t77 113.5t100 102t102.5 38.5q42 0 73 -27t31 -66q0 -4 -1 -26t-1 -25q-1 -22 -20.5 -40t-42.5 -21q-10 -21 -46.5 -92t-54.5 -111q-60 -135 -101.5 -300
t-51.5 -314q-2 -23 2 -62t12 -53q40 -62 279 -90q8 -2 55.5 -8.5t54.5 -8.5q54 -14 67.5 -66t-30.5 -83l-10 -6t-9.5 -5t-11 -3.5t-10.5 -2.5t-12 -2t-11.5 -1.5t-12.5 -0.5h-11.5h-12h-11.5z" />
    <glyph glyph-name="parenright" unicode=")" horiz-adv-x="870" 
d="M102 57q-20 -14 -45 -14q-53 0 -78.5 50.5t13.5 94.5q45 48 98.5 100.5t119 114t101.5 97.5q91 89 152 168t90 166q44 125 -10 237q-29 69 -90 109q-7 4 -99.5 60.5t-107.5 68.5q-42 35 -34 87.5t60 61.5q27 4 39 2q71 -20 101 -29t84 -29t94 -42q107 -58 170 -173.5
t65 -242.5q3 -138 -71 -276q-43 -79 -122 -169t-172.5 -171t-183 -148.5t-174.5 -122.5z" />
    <glyph glyph-name="asterisk" unicode="*" horiz-adv-x="776" 
d="M188 805q-24 -27 -53 -27q-42 0 -63.5 38t8.5 79q82 99 168 201q-3 2 -38.5 17.5t-53.5 25t-47 26t-44.5 32.5t-19.5 32q-9 38 17.5 67t64.5 23q11 -2 30 -14t21 -13q37 -20 88 -45q8 91 19 125q13 40 38 70.5t60 30.5q33 0 54.5 -25.5t15.5 -58.5q-1 -10 -23 -48
q-12 -17 -16 -61q99 103 207 178q23 16 61 8q40 -11 48.5 -55.5t-25.5 -69.5q-109 -76 -226 -196q132 -66 191 -107q26 -19 28 -50t-19 -55t-54 -24q-8 0 -16.5 3t-22.5 10t-17 8q-32 19 -95 51.5t-77 40.5q-1 -13 -4 -92t-4 -92q-3 -25 -24 -42.5t-46 -17.5q-22 0 -37 8.5
t-21.5 25t-8.5 32t-2 37.5q-12 -16 -34 -42.5t-28 -33.5z" />
    <glyph glyph-name="plus" unicode="+" horiz-adv-x="866" 
d="M596 207q-9 -25 -29 -38t-43 -13q-49 0 -69 41q-3 5 -16.5 21t-16.5 26q-14 68 -14 84l6 159q-74 -12 -152 -12q-151 0 -192 25q-46 26 -45 77.5t47 77.5q3 2 25.5 15.5t25.5 15.5q12 6 27 6q25 0 46 -17.5t25 -43.5q65 5 211 43q2 21 12.5 97t14.5 93q0 11 -2 15
q-16 33 -5.5 72t42.5 57q21 12 47 12q33 0 58.5 -21t29.5 -55q8 -58 8 -209q75 25 108 25q48 -4 68 -33q24 -35 17 -76.5t-44 -58.5q-47 -23 -149 -51q0 -221 -6 -256q-8 -41 -19 -58q-4 -8 -16 -20z" />
    <glyph glyph-name="comma" unicode="," horiz-adv-x="305" 
d="M240 -205q-28 -45 -78 -45q-31 0 -58 23.5t-28 52.5q-2 28 3 82.5t5 75.5q-39 19 -52.5 56.5t11.5 68.5q21 28 47 34q24 7 41 7q65 0 109.5 -50.5t40.5 -117.5q-17 -153 -41 -187z" />
    <glyph glyph-name="hyphen" unicode="-" horiz-adv-x="624" 
d="M559 459q-48 -37 -172 -37q-51 0 -145.5 5.5t-124.5 10.5q-1 1 -11.5 4.5t-13.5 3.5q-34 3 -51.5 30t-10.5 59t36 49q8 4 10 6q28 23 141.5 36t179.5 13q53 0 104.5 -11t69.5 -36q24 -32 21.5 -72t-33.5 -61z" />
    <glyph glyph-name="period" unicode="." horiz-adv-x="268" 
d="M233 197q-9 -26 -47.5 -51t-68.5 -25q-37 0 -61.5 25.5t-24.5 62.5q0 29 26 72q17 26 56 26q22 0 39 -10q43 3 69.5 -29t11.5 -71z" />
    <glyph glyph-name="slash" unicode="/" horiz-adv-x="618" 
d="M111 -268q-41 -117 -111 -117q-35 0 -60 23.5t-22 60.5q5 73 8 82q91 377 289 979q123 370 240 659q1 3 5 12.5t5.5 13.5t5.5 12.5t7 13.5t7.5 11.5t9 11.5t9.5 9q24 21 53 21q42 0 67 -34t1 -75q-14 -14 -17 -20q-9 -26 -42.5 -148.5t-43.5 -163.5q-190 -679 -411 -1351
z" />
    <glyph glyph-name="zero" unicode="0" horiz-adv-x="1009" 
d="M725 98q-46 -66 -107 -108.5t-131 -42.5q-56 0 -108.5 30.5t-90.5 75.5t-72 106t-54.5 113t-36.5 105q-97 323 -43 614q30 153 88 264q28 52 61 97.5t76.5 86t97.5 64t111 23.5q133 0 195 -107q123 -76 170.5 -169.5t58.5 -250.5q8 -137 -27 -395q-47 -309 -188 -506z
M498 236l12 -19q71 59 133 191q45 114 59 170q65 263 56 434q-3 71 -32 139t-79 113q-4 3 -16 9.5t-17 12.5q-7 12 -29 30.5t-28 31.5q-20 -8 -53 -41q-63 -68 -98.5 -170.5t-40.5 -204.5q-12 -196 30 -402q36 -180 103 -294z" />
    <glyph glyph-name="one" unicode="1" horiz-adv-x="796" 
d="M659 4q-22 -29 -56 -47t-68 -18q-35 0 -69 17.5t-56 45.5q-66 84 -66 293q3 383 94 846q-86 -64 -157.5 -103t-147.5 -53q-8 -1 -35 -4t-41 -6q-17 -4 -36 2t-31 20q-21 21 -18.5 50t24.5 51q9 9 66 33t63 28q43 24 125 90q261 219 311 238q18 6 37 6q66 0 102 -61
q19 -31 23 -101q0 -2 -1 -14t-1 -14q1 -24 -6.5 -127.5t-12.5 -145.5q-14 -150 -36 -486.5t-17 -420.5q28 -23 30.5 -58t-20.5 -61z" />
    <glyph glyph-name="two" unicode="2" horiz-adv-x="1032" 
d="M156 -137q-21 -6 -43 -6q-44 0 -79.5 25t-52.5 61t-12 80.5t37 80.5q41 44 148 183q272 346 424 708q25 62 48.5 143t14.5 115q-6 19 -53 9q-24 -2 -131 -45q-72 -37 -101 -64q0 -37 -32 -57.5t-72 -20.5q-36 -4 -61.5 23.5t-22.5 64.5q7 65 82 144q69 78 186.5 139
t212.5 61q98 -4 164.5 -67.5t81.5 -163.5q15 -113 -35 -279q-52 -183 -153 -363t-244 -382q106 18 321 18q157 0 185 -30q27 -26 31 -62t-21 -63q-27 -24 -64 -37q-19 -5 -155 -42t-156 -42q-27 -7 -223.5 -65.5t-224.5 -65.5z" />
    <glyph glyph-name="three" unicode="3" 
d="M872 322q-41 -60 -98.5 -120t-125.5 -115t-144.5 -89.5t-143.5 -34.5q-61 0 -119.5 26t-90.5 74q-23 41 -31 80q-10 37 14.5 66t61.5 29q16 0 38 -11q10 -6 39 -45q37 -7 108.5 26t113.5 66q90 72 149.5 145t79.5 161q10 63 -14 75q-25 15 -74 15q-11 0 -23.5 -1
t-27.5 -2.5t-23 -2.5l-104 -19q-22 -5 -70.5 -16.5t-85 -18.5t-70.5 -10q-46 -3 -94 29q-46 32 -61 83.5t4 101t67 77.5q46 27 176.5 154.5t190.5 193.5q22 31 29 43q-38 14 -84 14q-41 0 -78 -12q-13 -4 -25 -8.5t-26.5 -12t-22 -11t-25 -14.5t-21 -13t-24.5 -16.5
t-22 -14.5q-1 -1 -5 -8t-5 -8q-19 -29 -58 -29q-48 0 -74 40t-3 81q21 36 109.5 96t139.5 80q73 31 152 31q61 0 117.5 -15t104 -55t55.5 -100q13 -60 -17 -144q-37 -93 -145 -225q135 3 237 -49q83 -45 129 -146q28 -64 25 -147q-9 -139 -105 -274z" />
    <glyph glyph-name="four" unicode="4" horiz-adv-x="1013" 
d="M821 156q-3 -33 -27.5 -52.5t-56.5 -19.5q-35 0 -61.5 27t-40.5 70t-21 78.5t-10 70.5q-136 -51 -274 -51q-76 0 -140 24.5t-107.5 80.5t-43.5 134q0 92 61.5 233t137 259t141.5 194q44 51 103.5 101.5t105.5 64.5q42 9 82 -31q20 -21 18.5 -50.5t-20.5 -51.5l-4 -4
q-9 -19 -30.5 -51.5t-29.5 -48.5q-24 -45 -82.5 -152t-99.5 -187t-72 -157q-21 -47 -33 -96q38 -6 74 -6q115 0 227 45q21 146 46 247q22 77 34 107q29 84 111 84q31 0 49 -12q31 -22 30.5 -59.5t-32.5 -59.5q0 -33 -1 -99t-1 -100q24 14 53 14q13 0 19 -2q38 -11 50.5 -54
t-15.5 -71q-10 -10 -56 -49.5t-59 -48.5q-4 -62 -13.5 -180t-11.5 -141z" />
    <glyph glyph-name="five" unicode="5" horiz-adv-x="1026" 
d="M954 295q-39 -139 -137.5 -215t-243.5 -76q-81 0 -174 27q-73 14 -151.5 64t-114.5 110q-25 43 -0.5 85t74.5 42q17 0 47.5 -15.5t34.5 -17.5q50 -14 137 -14q176 0 215 41q28 27 38 84t4 113.5t-21 97.5q-14 44 -39.5 85.5t-57.5 41.5q-33 0 -71 -11q-80 -26 -183 -69
q-47 -21 -90 -21q-61 0 -107.5 40t-52.5 101q-4 33 -0.5 67t14.5 87t13 66q23 113 27 157q1 8 7 61.5t7 61.5q24 118 98 148q17 4 63 10t62 6q22 2 107.5 1.5t107.5 -3.5q12 -2 33 -6t38.5 -7t33.5 -5q24 0 41 -21q28 -28 19 -66.5t-46 -50.5q-5 -2 -28 -4.5t-25 -3.5
q-49 -6 -140 -8t-124 -4q16 -74 22 -139q1 -12 -1.5 -65.5t-4.5 -70.5q100 39 188 39q146 -6 241.5 -106t135.5 -254q53 -199 4 -383z" />
    <glyph glyph-name="six" unicode="6" horiz-adv-x="1044" 
d="M860 309q-219 -227 -436 -227q-88 0 -159.5 38t-116.5 101.5t-69 141t-26 161.5q-3 144 41 303q80 304 277 525q3 4 24.5 25.5t24.5 25.5q94 76 153 76q28 0 48 -17q23 -23 30 -41q9 -25 0.5 -49.5t-30.5 -36.5q-2 -2 -7 -4t-6 -4q-20 -31 -90 -169t-98 -197
q177 7 291 -7q160 -23 233 -104q40 -45 55 -115t5 -139q-24 -161 -144 -287zM426 344q16 -4 27 -4q47 0 109 35.5t108 75.5q80 70 108 155q10 26 12.5 55t-10.5 50q-8 8 -24.5 14.5t-40 11t-42.5 7.5t-43 6t-30 4q-46 6 -132 12.5t-112 9.5q-34 -151 -20 -276q8 -73 39 -115
q30 -35 51 -41z" />
    <glyph glyph-name="seven" unicode="7" horiz-adv-x="874" 
d="M238 6q-26 -33 -72 -33q-50 0 -76 39q-46 65 -35 174q9 110 60 243t128 260.5t154 235t158 203.5q-51 0 -59 2q-95 0 -213 15q-219 21 -228 117q-2 23 9 47.5t30 33.5q3 1 21.5 9t27.5 10q18 4 39 -4t33 -23q246 13 281 19q18 4 122 4q210 0 240 -101q20 -72 -20 -157
q-38 -80 -105 -178q-68 -100 -194 -304q-174 -270 -234 -454q-7 -26 -31 -84t-36 -74z" />
    <glyph glyph-name="eight" unicode="8" horiz-adv-x="976" 
d="M750 297q-40 -116 -157.5 -200.5t-238.5 -84.5q-81 0 -145.5 42t-87.5 118q-31 107 10 252q20 67 42 114t60 99q1 2 9.5 23t9.5 26q-109 88 -156 176q-42 79 -39 152q5 98 63.5 190.5t145 156.5t190 103t197.5 39q95 0 165 -43t95 -131q33 -127 -18 -323
q-36 -130 -80 -220t-121 -161q76 -99 76 -217q3 -54 -20 -111zM391 885q20 -17 43.5 -35.5t52.5 -41t45 -34.5q4 11 21 51.5t23 56.5t19.5 51t20 57t14.5 52.5t13 57.5q14 96 14 125q-66 0 -146.5 -40t-135.5 -91q-28 -26 -49 -60.5t-13 -58.5q15 -39 78 -90zM322 242
q0 -19 30 -19q51 0 100.5 29t86.5 72q53 57 36 110q-9 36 -38 58q-17 15 -39.5 31t-38 26t-44 27.5t-40.5 25.5q-7 -18 -9 -53.5t-4 -46.5q-1 -6 -10.5 -51t-16 -80.5t-11.5 -74.5t-2 -54z" />
    <glyph glyph-name="nine" unicode="9" horiz-adv-x="999" 
d="M764 336q-22 -40 -59 -96t-87 -123t-102 -112.5t-88 -45.5q-38 0 -61.5 32t-6.5 66q29 62 111.5 221t120.5 248q-25 -35 -60 -41q-8 -2 -88 9q-110 25 -208.5 117.5t-155.5 205.5q-50 108 -47 191q5 111 69 191t158 116.5t205 36.5q117 0 214 -36t168 -116t93 -196
q26 -162 -45 -381q-41 -125 -131 -287zM563 645q53 -38 37 -98q46 110 70.5 195t23.5 171q0 63 -26 101q-30 37 -95 58.5t-122 21.5q-34 0 -50 -4q-46 -6 -79 -39q-12 -18 -11.5 -40t8.5 -44q36 -106 99 -187q23 -34 33.5 -48t33 -37t45.5 -36q29 -12 33 -14z" />
    <glyph glyph-name="colon" unicode=":" horiz-adv-x="247" 
d="M207 891q9 -32 -14.5 -60t-57.5 -28q-10 0 -16 2q-34 10 -49 37t-5.5 56t41.5 44q15 6 29 6q25 0 45.5 -15.5t26.5 -41.5zM184 23q-33 -33 -69 -33q-42 0 -66 37t-4 79q11 21 33 35.5t45 14.5q30 0 51.5 -17.5t24.5 -46.5q4 -45 -15 -69z" />
    <glyph glyph-name="semicolon" unicode=";" horiz-adv-x="303" 
d="M141 795q-39 -3 -65 14q-35 25 -38.5 64.5t21.5 68.5t64 29q8 0 24 -4q45 -13 62 -52.5t-2 -76.5t-66 -43zM209 -188q-26 -29 -62 -29q-41 0 -65 35q-14 24 -14 47q1 5 5.5 39.5t8.5 66t4 39.5q0 38 -12 72q-13 41 10.5 76t62.5 35q54 0 91 -68q35 -65 24 -160
q-2 -26 -20.5 -80.5t-32.5 -72.5z" />
    <glyph glyph-name="less" unicode="&#x3c;" horiz-adv-x="731" 
d="M668 246q-20 -21 -82 -39.5t-97 -18.5h-16q-63 6 -124 20.5t-124.5 41t-111 72t-64.5 104.5q-11 42 -6 72q9 50 57 109.5t112.5 110t127.5 89.5t111 61q60 31 104 31q43 0 71 -30.5t21 -69.5q0 -5 -3.5 -22.5t-4.5 -20.5q-6 -23 -29 -37t-49 -12q-53 -45 -256 -201
q69 -28 121 -41q15 -5 47 -11.5t47 -11.5q26 -7 80 -35t68 -45q20 -26 20 -58.5t-20 -57.5z" />
    <glyph glyph-name="equal" unicode="=" horiz-adv-x="944" 
d="M823 618q-13 -5 -48 -6t-82.5 0.5t-49.5 1.5q-29 4 -222 1t-222 -3q-16 0 -55 3.5t-50 7.5q-43 18 -54.5 62.5t23.5 74.5q30 28 103 28q26 1 72.5 8t66.5 9q180 18 240 18q73 0 143 -12q30 -6 86.5 -25t73.5 -32q35 -29 26.5 -75t-51.5 -61zM340 199q-142 -11 -172 -9
q-20 0 -41 21q-31 32 -16 72.5t59 48.5q23 3 63 13.5t50 12.5q196 50 299 52q143 0 213 -9q63 -8 88 -39q35 -43 12.5 -93.5t-78.5 -55.5q-24 -2 -143 -2q-201 0 -334 -12z" />
    <glyph glyph-name="greater" unicode="&#x3e;" horiz-adv-x="845" 
d="M494 170q-47 -26 -140.5 -48t-152.5 -22q-29 0 -65.5 9t-53.5 26q-49 28 -49 86q0 38 25.5 66t62.5 28q6 0 31 15q75 35 151 65q181 63 266 115q-33 16 -97 44.5t-71 31.5q-111 46 -192 110q-40 32 -29 82.5t60 63.5q29 7 51 -4q43 -17 78 -25q64 -16 113.5 -32
t110.5 -42.5t108.5 -63.5t76.5 -83q31 -53 25 -105q-11 -181 -309 -317z" />
    <glyph glyph-name="question" unicode="?" horiz-adv-x="890" 
d="M391 430q0 -60 -21 -94.5t-77 -34.5q-39 0 -77.5 22.5t-61.5 61.5q-7 12 -13.5 28t-10 28t-9 32t-8.5 29q-3 12 -11.5 41.5t-11 41.5t-7 41.5t0.5 41.5q9 51 42.5 84.5t84.5 44.5q105 29 176 82t135 147q7 11 27.5 49t23.5 47q25 56 25 84q0 23 -4 27q-19 16 -62 16
q-113 0 -290 -116q0 -76 -105 -76q-18 0 -26 4q-33 12 -46.5 46t-1.5 69q4 13 13.5 27t15.5 20.5t23.5 23.5t19.5 19q229 217 436 217q96 0 174.5 -50.5t100.5 -138.5q20 -75 8 -157q-18 -125 -117 -273q-73 -107 -153.5 -177.5t-194.5 -125.5q0 -11 2.5 -66t-0.5 -65z
M387 -25q-40 -61 -111 -61q-40 0 -72.5 22t-47.5 62q-24 64 15 117t103 53q31 0 67.5 -20t51.5 -46q14 -29 12 -63.5t-18 -63.5z" />
    <glyph glyph-name="at" unicode="@" horiz-adv-x="1501" 
d="M1442 575q-8 -53 -26.5 -111t-50 -117t-71 -106t-93 -76.5t-111.5 -29.5q-56 0 -99.5 29t-69.5 76t-40 97.5t-17 102.5q-141 -215 -174 -239q-54 -37 -100 -37q-81 0 -148 74q-50 61 -53 157q-3 132 39 228q24 57 54 107t71.5 100t95.5 79t113 29q30 0 52 -6.5
t39.5 -21.5t28.5 -29.5t29 -42.5q1 -1 5 -2.5t9.5 -3.5t6.5 -3q30 -13 35.5 -47t-15.5 -61q32 -7 51.5 -34.5t26.5 -63.5q3 -21 11 -103t20 -125q9 -42 39 -76q39 3 75 47t55.5 90t29.5 87q25 102 10 198q-16 83 -95 170t-180.5 142t-181.5 55q-17 0 -41 -4
q-92 -16 -174 -60.5t-145 -110.5t-111 -143.5t-80 -166.5q-48 -120 -41 -197q3 -61 58 -109q2 -3 9.5 -10t15.5 -14t9 -8q27 -41 7 -83t-64 -42q-11 0 -27 4q-17 7 -56.5 39.5t-53.5 48.5q-38 41 -56 94q-24 83 -12 174q16 128 80.5 262.5t159 245t223.5 181.5t262 71
q108 0 235.5 -58t230.5 -146.5t153 -180.5q75 -133 47 -320zM686 596q-56 -102 -53 -186q25 28 155 202q48 69 78 90q-4 1 -24 11q-5 2 -24 18t-21 17q-55 -52 -111 -152z" />
    <glyph glyph-name="A" unicode="A" horiz-adv-x="1171" 
d="M1077 -78q-9 -37 -34.5 -57.5t-63.5 -20.5q-25 0 -45 13q-91 68 -120 147t-32 213q0 5 -0.5 63.5t-0.5 108t1 62.5q-38 -7 -122.5 -24.5t-132.5 -27t-118.5 -20.5t-129.5 -17q-53 -205 -56 -229q-2 -4 2 -12q9 -36 -18 -64t-64 -22q-38 7 -55 43t-10 78q9 70 39 196
q-43 0 -72 15q-42 25 -43 71.5t41 67.5q26 11 43 6q22 -5 78 8q19 65 39.5 126t54.5 150t69.5 163t84 152.5t98 132.5t111 89t124.5 35q84 0 156 -55q51 -43 89 -114t58.5 -141t34 -164t18 -155.5t7.5 -144.5q1 -55 0 -116t-3 -135.5t-3 -115.5q0 -8 -1 -43t-1 -47
t-1.5 -41.5t-3.5 -46.5t-5.5 -40.5t-8.5 -43.5q-4 -12 -4 -43zM664 1167q-163 -110 -324 -596q173 46 446 95q0 270 -8 368q-2 15 -11 60.5t-13 56.5q-5 15 -17 27.5t-24 11.5q-20 -2 -49 -23z" />
    <glyph glyph-name="B" unicode="B" horiz-adv-x="1146" 
d="M682 78q-113 -37 -217 -37t-197 41h-10q-31 0 -55 24q-35 30 -59.5 120.5t-33.5 169t-10 139.5q-5 189 54 460q-55 -4 -90.5 36.5t-26.5 96.5q8 59 61 127q111 139 297.5 230.5t362.5 91.5q226 0 299 -131q50 -89 26 -201q-17 -82 -71 -162q-55 -83 -125.5 -158
t-173.5 -171q102 -4 180 -21t135 -63q37 -30 60 -76.5t22 -91.5q-2 -85 -74.5 -176t-168.5 -155t-185 -93zM362 1038q-3 -40 -34 -274q125 85 274 245.5t195 282.5q-69 7 -179 -24q-128 -40 -282 -129q10 -13 19 -48t7 -53zM301 510q-2 -58 12 -229q132 13 276 63.5
t236 124.5q36 25 60 55q-12 10 -54 29q-72 27 -196 27q-84 0 -178 -23q-5 -2 -18.5 -9.5t-16.5 -10.5q-60 -33 -121 -27z" />
    <glyph glyph-name="C" unicode="C" horiz-adv-x="923" 
d="M709 139q-164 -110 -295 -110q-78 0 -143 38t-107.5 100.5t-69.5 133t-39 145.5q-23 144 -2 340q7 64 18.5 124.5t31 130t45.5 128.5t64 115t83.5 95.5t107 63t132.5 23.5q82 0 156.5 -28t132 -86.5t77.5 -137.5q9 -47 -24.5 -80.5t-79.5 -25.5q-14 3 -49 25
q-90 57 -154 57q-56 0 -92 -29q-29 -29 -37 -45q-85 -132 -121 -344q-41 -235 6 -397q19 -73 53 -107q21 -24 66 -20q117 0 295 127q20 13 47 10q41 -3 60 -40.5t-3 -72.5q-12 -22 -68 -66t-91 -67z" />
    <glyph glyph-name="D" unicode="D" horiz-adv-x="1191" 
d="M391 41q-107 -46 -172 -35q-17 2 -51 19q-40 19 -47 66t24 79q-38 38 -49 80q-38 118 -30 338q7 244 30 422q17 117 17 118v7q-25 31 -18.5 70t38.5 61q89 64 229.5 97.5t270.5 33.5q177 0 312 -74.5t196 -230.5q47 -128 22 -267q-24 -122 -94 -231q-95 -151 -298.5 -314
t-379.5 -239zM297 539q0 -17 1 -132t1 -131q84 62 150 115t143.5 124t139.5 147t102 151q42 86 24 170q-40 162 -360 162q-92 0 -211 -21q11 -86 12.5 -183.5t-1 -215.5t-1.5 -186z" />
    <glyph glyph-name="E" unicode="E" horiz-adv-x="1124" 
d="M934 174q-269 -190 -469 -190q-102 0 -191.5 55.5t-130.5 144.5q-54 116 -61 260t27 267h-3q-46 5 -68.5 41t-2.5 77q7 14 45 36.5t61 29.5q19 179 54 330q-39 28 -43.5 73.5t32.5 73.5q2 1 43 25q93 43 237.5 75.5t248.5 32.5q43 0 122.5 -12.5t114.5 -24.5
q54 -19 59 -74.5t-44 -84.5q-8 -5 -99.5 -29.5t-105.5 -24.5q-155 -20 -369 -38q0 -24 -9.5 -124.5t-14.5 -125.5q14 4 44.5 14t49 15.5t44.5 11t48 6.5q79 0 100 -8q49 -19 58 -69.5t-31 -84.5q-10 -8 -44.5 -28.5t-47.5 -24.5q-79 -23 -215 -49q-3 -28 -13.5 -103.5
t-13.5 -116.5q-14 -162 21 -276q30 -88 112 -88q22 0 43 6q26 7 113 49q57 31 152.5 100t130.5 91q91 52 98 55q8 4 26 4q36 0 59 -27t17 -63q-7 -41 -70.5 -107t-113.5 -100z" />
    <glyph glyph-name="F" unicode="F" horiz-adv-x="1079" 
d="M358 -14q-8 -30 -31.5 -50t-52.5 -20q-19 0 -32 8q-53 22 -94.5 111.5t-61.5 171.5q-50 194 -20 518q15 151 52.5 352t84.5 266q2 4 2 15q12 35 28 49q56 45 251.5 94t297.5 49q73 0 159.5 -22.5t119.5 -67.5q20 -22 23.5 -57t-13.5 -60q-22 -37 -53 -45q-41 -8 -88 -8
q-72 0 -121 -12q-36 -7 -185.5 -19t-199.5 -14q0 -38 -12 -198t-17 -209q26 9 115.5 33t112.5 28q81 12 176 12q63 0 98 -30q29 -25 36.5 -62t-11.5 -71q-22 -31 -58 -50q-24 -14 -105.5 -32.5t-117.5 -22.5q-172 -16 -258 -14q-3 -67 -5 -185t-6 -216.5t-12 -184.5
q-1 -6 0.5 -28.5t-2.5 -28.5z" />
    <glyph glyph-name="G" unicode="G" horiz-adv-x="1175" 
d="M1151 471q-14 -94 -86 -191.5t-169.5 -169.5t-207.5 -118.5t-199 -46.5q-140 0 -250.5 93t-160.5 232q-54 153 -37 367q25 286 162 530q34 61 76.5 115t96 102t119 76.5t132.5 28.5q108 0 208 -63.5t150 -159.5q16 -29 33.5 -88.5t28.5 -83.5q9 -21 2 -45q-6 -24 -25 -39
t-43 -15q-23 0 -47 17l-8 8q-16 5 -72 35.5t-82 46.5q-98 63 -133 63q-22 -1 -51.5 -28.5t-46.5 -51.5q-74 -93 -117 -230.5t-55 -276.5q-11 -138 20 -224q38 -103 107 -129q39 -7 98 8q71 24 136.5 62t123 96.5t80.5 124.5q-25 16 -94 49q-47 23 -43 78t55 74q21 7 75.5 -1
t86.5 -18q70 -25 110 -90q34 -53 27 -137z" />
    <glyph glyph-name="H" unicode="H" horiz-adv-x="1259" 
d="M385 156q0 -61 -28 -98.5t-89 -37.5q-42 0 -80 27q-74 49 -100.5 126t-30.5 187q-11 259 41 576q32 224 72 330q30 102 96 102q39 0 68.5 -21.5t32.5 -56.5q8 -72 8 -139q-3 -75 -10.5 -223t-10.5 -223q13 2 97.5 14t95.5 14q16 2 134.5 14.5t135.5 14.5q31 7 57 4
q2 138 21 369q3 37 9.5 70t21 69.5t42 58t64.5 21.5q59 0 92 -47q63 -97 68 -369q0 -96 -2 -225t-10 -301.5t-21 -223.5q-29 -110 -125 -110q-21 0 -39 6q-89 41 -112 180q-19 101 -15 264q-20 -1 -150.5 -6t-150.5 -6q-89 -2 -215 8q0 -45 4 -131q1 -30 17.5 -111
t11.5 -126z" />
    <glyph glyph-name="I" unicode="I" horiz-adv-x="458" 
d="M379 61q-9 -29 -16 -45.5t-20 -34.5t-32.5 -26t-46.5 -8q-111 0 -153 139q-12 40 -21 137q-5 40 -8.5 80t-5.5 88.5t-3.5 77.5t-2 88t-0.5 77.5v88v80.5q11 356 30 432q14 59 42 93t83 34q56 0 85 -44.5t38 -109.5q9 -85 14 -174t9 -219t6 -174q9 -305 8 -391
q0 -16 2 -59t0.5 -73t-8.5 -57z" />
    <glyph glyph-name="J" unicode="J" horiz-adv-x="1218" 
d="M825 137q-35 -52 -96.5 -84.5t-124.5 -32.5q-120 0 -252 81.5t-227 187.5q-28 32 -71.5 99.5t-47.5 96.5q-7 39 18.5 67t61.5 28t64 -31q70 -89 105 -120q20 -17 40 -30q108 -73 192 -106q51 -22 80 -29l11 -2q10 -1 12 0q2 0 5 7l3 7q13 32 25 89q20 117 18.5 278
t-8.5 281t8 280q-36 -4 -108 -13t-129 -14.5t-109 -7.5q-41 -3 -72 13q-31 17 -40.5 49t7.5 63q12 20 45 40t56 20q17 0 35 -11q7 2 59.5 20.5t63.5 22t59 19.5t64 20.5t59 17t64.5 17t59.5 13t65.5 11.5t61 6.5t64.5 4.5q16 2 61.5 0t57.5 -6q166 -42 166 -109
q4 -52 -21 -77t-41 -29q-57 -16 -104 -23q-20 -1 -56 -2.5t-66 -3.5t-56 -6q22 -87 37 -244q2 -23 7.5 -83.5t8 -92t5 -81t2.5 -92t-3 -83.5q-19 -286 -119 -426z" />
    <glyph glyph-name="K" unicode="K" horiz-adv-x="1118" 
d="M344 -16q-34 -58 -98 -58q-39 0 -70.5 20.5t-50 55t-29.5 69t-16 72.5q-18 113 -14 277q2 97 14 289q4 65 22.5 273t26.5 257q5 27 8.5 42t11.5 45.5t18 49t24 39.5t33 31t42 10q43 0 71.5 -38.5t35.5 -86.5q5 -21 8.5 -43.5t5.5 -41t4 -45.5t2.5 -41.5t1 -45.5
t0.5 -42.5v-45.5v-43q226 161 422 320q47 40 125 100q31 27 62 27q30 0 51.5 -21t21.5 -51q0 -12 -4.5 -26t-15 -29t-20 -28t-27.5 -30t-28 -27t-31.5 -28t-28.5 -24t-28 -22.5t-22 -17.5q-20 -16 -216 -158t-226 -167q-3 -1 1 -3q2 0 3 -1q434 -258 610 -451q13 -14 34 -48
t24 -48q6 -37 -16 -68.5t-58 -34.5q-9 -2 -40 -4.5t-38 -1.5q-14 0 -55 8.5t-53 14.5q-114 47 -254 143q-75 50 -209 148q0 -27 -5.5 -135t-8.5 -132q-10 -90 -7 -114q7 -50 -14 -90z" />
    <glyph glyph-name="L" unicode="L" horiz-adv-x="899" 
d="M723 33q-67 -25 -178 -46.5t-180 -21.5q-53 3 -96 22.5t-72 47t-52 71t-36.5 82.5t-23 94t-14 93t-8.5 92q-14 235 19 516q27 247 86 377q20 43 64 72.5t85 19.5q45 -15 73.5 -51.5t31.5 -85.5q3 -35 4 -69.5t-1 -78.5t-3 -67t-5 -78.5t-5 -69.5q-19 -300 -19 -473
q0 -46 10 -276q50 -4 74 -4q66 0 271 28q10 1 41 9t47 8q8 0 24 -4q37 -14 47.5 -54t-16.5 -69q-16 -16 -77.5 -45.5t-90.5 -38.5z" />
    <glyph glyph-name="M" unicode="M" horiz-adv-x="1751" 
d="M1690 133q-8 -56 -52.5 -95.5t-101.5 -39.5q-47 0 -83 19.5t-57.5 53.5t-33.5 73t-16 85q-7 60 -21.5 334.5t-19.5 388.5q-206 -360 -283 -506q-88 -171 -127 -231q-49 -72 -94 -94q-68 -29 -109 -17q-29 6 -86 33q-41 18 -78.5 66t-66.5 123t-50.5 141t-40.5 158.5
t-27 134.5t-19 108q-85 -297 -125 -702q-1 -2 -0.5 -8t2.5 -8q3 -31 -20 -51.5t-56 -20.5q-38 0 -62 37q-16 24 -21 94.5t-3 122.5q13 366 188 895v8q0 64 48 109t112 45q50 0 85.5 -30t66.5 -83q1 -1 21 -46.5t24 -55.5q28 -83 82 -310q50 -212 86 -344q34 58 121.5 214.5
t138.5 240.5q152 246 276 375q51 51 111 51q27 0 60.5 -14.5t53.5 -32.5q35 -28 58 -68q6 -11 11.5 -22t10.5 -25t8 -22.5t7 -27t5.5 -23.5t6 -27.5t4.5 -24.5q1 -2 2 -18t2 -19q12 -92 12 -94q13 -112 21.5 -236.5t16 -281.5t12.5 -236q4 -73 0 -96z" />
    <glyph glyph-name="N" unicode="N" horiz-adv-x="1167" 
d="M1006 53q-22 -48 -60 -80t-86 -32q-57 0 -110.5 44t-90.5 109q-9 18 -18 27q-33 71 -158 374t-211 457q-25 -63 -32 -159q-7 -67 -7 -287q0 -36 5 -177t8 -173q0 -1 6 -13q21 -32 4 -67q-20 -41 -63 -41q-29 0 -53.5 21.5t-30.5 56.5q-4 18 -10.5 87.5t-13.5 153t-7 88.5
q-23 263 -17 408q2 38 4 68t8.5 74.5t16 78.5t26 71.5t38.5 61.5t54.5 40t72.5 16q48 0 99.5 -33.5t94.5 -80.5t91.5 -123.5t81 -136t72.5 -146t57 -125.5t42 -101q25 362 10 614q0 4 -2.5 29.5t-2 30t2.5 29.5q8 49 40.5 81.5t80.5 32.5q46 0 79 -24.5t49 -65.5t22.5 -79.5
t7.5 -82.5q6 -122 -10 -364q-17 -307 -60 -535q-26 -115 -30 -127z" />
    <glyph glyph-name="O" unicode="O" horiz-adv-x="1058" 
d="M1024 639q-6 -66 -30 -145.5t-62 -161.5t-91 -159t-112.5 -137t-131 -96t-142.5 -36q-78 0 -144.5 34.5t-111.5 90t-79 128t-51.5 144t-23.5 143.5q-18 217 39 435q62 229 160 368q52 77 121.5 132t144.5 55q32 0 76 -23q15 -8 38.5 -29.5t32.5 -27.5q21 -15 26 -42
t-7 -50q106 -37 190 -126t125 -198q47 -126 33 -299zM371 432q19 -297 112 -297q49 0 107 47.5t105 115t82.5 134t47.5 109.5q46 146 21 268q-12 69 -56.5 133t-107.5 109q-134 84 -137 86q-13 9 -25 32q-70 -129 -112 -350q-42 -215 -37 -387z" />
    <glyph glyph-name="P" unicode="P" horiz-adv-x="1239" 
d="M297 18q-43 0 -59 7q-135 46 -168 260q-39 261 18 665q6 44 13.5 87t26 110t40.5 116t58.5 85t78.5 36q178 118 416 121q153 0 246 -43q118 -53 183 -156.5t73 -238.5q3 -125 -68 -244q-44 -77 -131 -164q-271 -259 -655 -309q0 -10 3 -81t3 -81q0 -8 10 -28
q1 -4 2 -12.5t2 -12.5q11 -45 -17 -81t-75 -36zM406 1094q-3 -51 -16.5 -228t-16.5 -274q68 30 139 67t152.5 88t146 111t92.5 117q18 38 10.5 95.5t-36.5 86.5q-53 53 -238 53q-80 0 -236 -16q0 -6 1.5 -49.5t1.5 -50.5z" />
    <glyph glyph-name="Q" unicode="Q" horiz-adv-x="1105" 
d="M1139 -98q9 -50 -25 -87.5t-82 -37.5q-17 0 -35 6q-159 62 -286 237q-116 -116 -254 -116q-79 0 -146 34.5t-112 89.5t-79 127.5t-51.5 144t-23.5 144.5q-18 217 39 435q62 229 160 368q52 77 121.5 132t144.5 55q32 0 76 -23q15 -8 38.5 -29.5t32.5 -27.5q21 -15 26 -42
t-7 -50q100 -34 182 -117.5t125 -186.5q48 -117 45 -258q-3 -225 -137 -448q10 -12 40 -53t48 -62q151 -188 160 -235zM371 432q20 -299 114 -299q48 0 123 66q-2 5 -16.5 38.5t-16.5 38.5q-5 15 -16.5 42.5t-19 49.5t-11.5 42q-7 44 20.5 76t69.5 32q18 0 33 -6
q22 -8 40 -23.5t44 -48t31 -37.5q54 96 76.5 202.5t3.5 203.5q-12 69 -56.5 133t-107.5 109q-134 84 -137 86q-13 9 -25 32q-70 -129 -112 -350q-42 -215 -37 -387z" />
    <glyph glyph-name="R" unicode="R" horiz-adv-x="1050" 
d="M324 4q-37 -37 -86 -37q-37 0 -78.5 36t-57.5 75q-10 23 -18.5 100.5t-11.5 128.5q-7 80 8 395t26 426q13 108 23 148v12q3 44 33 74q73 77 199 125.5t237 48.5q28 0 82 -4q130 -11 224 -90t106 -205q6 -69 -2 -127q-20 -108 -78.5 -221.5t-119 -192.5t-151.5 -182
q173 -28 187 -31q81 -22 112 -69q28 -36 24 -82t-40 -72q-62 -45 -129 -39q-16 2 -126.5 14.5t-125.5 14.5q-120 11 -188 43q-11 -127 -8 -166q1 -23 -12.5 -64.5t-28.5 -58.5zM393 1073q2 -146 -10 -446q16 17 59.5 64t64 69t57 64t58.5 72t48.5 70t46.5 78q25 45 28 97
q0 64 -28 94q-24 24 -73 37.5t-93 13.5q-61 0 -164 -31q6 -59 6 -182z" />
    <glyph glyph-name="S" unicode="S" horiz-adv-x="1089" 
d="M1030 150q-43 -49 -145.5 -86.5t-200.5 -53.5t-170 -16q-173 0 -285 78q-19 14 -32 35.5t-13 42.5q0 36 24.5 58.5t57.5 22.5q26 0 41 -10q27 -12 94 -12q146 0 328 67q-124 109 -367 302q-140 112 -215 192q-102 109 -127 229q-11 49 -2.5 103t35.5 94q74 117 247.5 200
t322.5 83q152 0 229 -49q16 -9 67.5 -62.5t63.5 -73.5q13 -20 10 -43q-3 -29 -23 -47t-48 -18q-20 0 -33 8q-9 4 -45 42.5t-47 39.5q-26 3 -99 -17.5t-110 -35.5q-53 -18 -124 -69t-106 -93q26 -50 84 -105q66 -65 237 -209.5t253 -232.5q77 -85 102 -129q34 -64 37 -121
q3 -63 -41 -114z" />
    <glyph glyph-name="T" unicode="T" horiz-adv-x="929" 
d="M573 143q-22 -43 -79 -43q-65 0 -103 52.5t-55 126.5q-7 27 -13 122.5t-4 128.5q22 473 89 695q-28 -1 -93.5 -6t-101.5 -5q-4 0 -31.5 -0.5t-49.5 -0.5t-46 1.5t-33 4.5q-35 12 -51 46.5t-2 69.5q8 28 43 51q18 12 86.5 40.5t97.5 37.5q165 43 295 43q70 0 137 -12
q37 -6 125.5 -29t112.5 -36q46 -28 46 -81t-46 -81q-14 -8 -51.5 -14.5t-71.5 -9t-79 -5.5t-52 -4q7 -77 -9.5 -381.5t-27.5 -435.5q-1 -8 -3.5 -56t-5 -86t-9 -78.5t-15.5 -54.5z" />
    <glyph glyph-name="U" unicode="U" horiz-adv-x="1261" 
d="M600 88q-91 -117 -197 -117q-45 0 -79.5 14.5t-73.5 47.5q-54 47 -90.5 115t-54 152t-24.5 149t-11 153q-7 131 0 330q7 212 41 340q16 59 49.5 98t87.5 39q21 0 45.5 -13.5t38.5 -31.5q58 -67 65 -330q10 -347 13 -420q7 -172 41 -290q31 39 51 71q69 96 153.5 243
t137.5 259q24 46 83 181t68 171q20 72 35 111q2 4 2 10t6 22t14 33t9 21q23 51 84 51q29 0 53.5 -15.5t36.5 -43.5q5 -16 6.5 -52.5t-2.5 -50.5q-3 -11 -8 -106q-32 -399 -15 -752q3 -140 27 -278q9 -48 -29 -95q-37 -43 -104 -43q-39 0 -73 21.5t-56 56.5t-35.5 72
t-20.5 74q-16 96 -16 260q-8 -17 -44 -91t-51 -102.5t-45.5 -85t-58.5 -98t-59 -80.5z" />
    <glyph glyph-name="V" unicode="V" horiz-adv-x="1120" 
d="M588 -57q-35 -17 -78 -17q-44 0 -82.5 19.5t-65.5 47.5t-51.5 70t-39.5 77t-29 77q-119 343 -187 746q-1 11 -7 50.5t-10 71t-6.5 70t1.5 68t14 45.5q26 39 76 39q62 0 106 -60q45 -62 88 -190q45 -131 114.5 -392.5t111.5 -385.5q35 102 47 145q61 213 186.5 577
t179.5 414q25 25 58 25q53 0 78 -45q30 -51 14 -144q-12 -74 -70 -250q-120 -355 -317 -880q-38 -96 -57 -117q-6 -5 -21 -20t-27.5 -25t-25.5 -16z" />
    <glyph glyph-name="W" unicode="W" horiz-adv-x="1642" 
d="M371 16q-15 -15 -54.5 -30t-60.5 -15q-159 7 -180 242q-16 180 -6 405q16 439 73 609q15 45 47 76.5t74 31.5q35 0 65 -20t40 -53q14 -50 10 -132q-6 -76 -20.5 -374t-14.5 -367q19 36 132 267.5t128 261.5q26 52 57 78t84 26q56 0 94.5 -35.5t57.5 -91.5
q20 -63 45.5 -203t50.5 -209q6 -19 41 -112q13 -28 36 -64t40 -43q51 19 103.5 109.5t80.5 169.5q67 206 54 434q-3 129 -68 211q-4 5 -15 18t-16 19.5t-11.5 18t-10.5 22.5q-13 29 -9.5 65t23.5 60q13 18 41 29.5t53 11.5q50 0 96.5 -39t78 -97t52.5 -117t27 -106
q28 -214 -14.5 -435.5t-149.5 -406.5q-67 -110 -147 -175.5t-188 -65.5q-69 0 -131 35t-107 88.5t-82 124t-59.5 135.5t-36.5 129q-192 -375 -303 -486z" />
    <glyph glyph-name="X" unicode="X" horiz-adv-x="1218" 
d="M1219 68q-6 -55 -46.5 -91t-93.5 -36q-40 0 -83 22t-75 49.5t-70 74t-58 75t-48 71.5q-53 86 -172 295q-191 -230 -284 -329q-3 -3 -19.5 -20.5t-30.5 -32t-30.5 -29t-24.5 -17.5q-14 -6 -35.5 -24t-25.5 -21q-20 -14 -43 -14q-36 0 -61.5 29.5t-18.5 68.5q1 9 5 18
t8 15.5t10.5 16t9.5 14.5q2 2 8 19l6 16q42 73 412 510q-3 6 -49 99.5t-52 110.5q-6 15 -24 56.5t-26.5 62t-21 54t-20.5 61.5q-12 51 14 92t76 41q47 0 90 -47q25 -28 101.5 -147t101.5 -164q21 23 73.5 82.5t91 101t77.5 78.5q61 61 98 84q33 20 70 20q21 -2 57 -18
q41 -21 37.5 -65.5t-45.5 -65.5q-1 0 -6.5 -2t-7.5 -4q-91 -124 -324 -412q38 -65 183.5 -307t179.5 -295q46 -11 63 -33q25 -38 23 -63z" />
    <glyph glyph-name="Y" unicode="Y" horiz-adv-x="1181" 
d="M745 -20q-64 -59 -155 -101.5t-172 -42.5q-85 0 -150.5 30t-130.5 95q-43 37 -28 91t69 59q27 3 113 -9q22 0 67 9q97 11 165.5 66.5t123.5 150.5q-47 -23 -96 -23q-72 0 -144 47.5t-124 114.5q-89 118 -163 302t-91 333q-5 67 -2 86q6 38 33 64t63 26q58 0 94 -49
q4 -6 26.5 -42t26.5 -42q43 -87 133 -293q62 -138 138 -231q2 -2 12.5 -13.5t17.5 -17.5l2 2q166 166 269 436q5 12 24 111t25 114q29 61 63 74q44 19 70 19q25 0 56 -15t46 -35q27 -41 29 -63q3 -36 -14.5 -163t-28.5 -187q-21 -118 -36.5 -194t-47 -190.5t-66.5 -196
t-91.5 -170t-125.5 -152.5z" />
    <glyph glyph-name="Z" unicode="Z" horiz-adv-x="1241" 
d="M711 -53q-74 -6 -148 -6q-94 0 -164 5t-159.5 29t-143.5 68q-60 50 -81 125t5 147q23 68 136 191t194 192q16 8 25 17q69 59 151 135t175 174.5t126 153.5q-39 42 -122.5 59.5t-163.5 17.5q-54 0 -152 -8q-1 0 -57 -9t-66 -9q-37 0 -59 27t-16.5 61t38.5 53q47 26 167 43
t196 17q182 0 309 -62q42 -24 72 -47q58 -55 67 -117q8 -54 -12 -117q-19 -59 -88 -151q-39 -52 -90.5 -113t-82.5 -96t-102.5 -113.5t-89.5 -99.5q-1 -1 -8.5 -13t-9.5 -14q-17 -19 -55 -59t-66.5 -72.5t-52.5 -62.5q82 -14 324 -23q26 0 242 -15.5t231 -21.5
q44 -21 60.5 -63.5t-9.5 -79.5q-28 -45 -90 -63q-242 -64 -430 -80z" />
    <glyph glyph-name="bracketleft" unicode="[" horiz-adv-x="593" 
d="M504 -43q-60 -8 -135 -8q-212 0 -269 114q-38 74 -34 205q4 103 17 216.5t33 256t29 215.5q1 8 19.5 175.5t23.5 195.5q7 44 33.5 75.5t67.5 31.5q14 0 38 -5t33 -6q43 -6 136 -14q18 -1 33.5 -14t23.5 -31q12 -26 -0.5 -53t-40.5 -39q-12 -6 -80 -6q-37 -3 -84 4
q-3 -24 -5 -50.5t-4 -59t-3 -50.5q-8 -110 -22 -223t-38.5 -283t-31.5 -223q-1 -9 -5 -36.5t-5.5 -39.5t-4 -36t-2.5 -39.5t1.5 -35.5t4.5 -38q4 -19 15 -27q17 -12 65 -15t108.5 -1t70.5 2q48 -2 70 -38.5t5.5 -74.5t-63.5 -45z" />
    <glyph glyph-name="backslash" unicode="\" horiz-adv-x="600" 
d="M680 -236q-20 -45 -70 -45q-44 0 -67 39q-37 61 -129.5 316.5t-124.5 361.5q-107 346 -246 858q-1 5 -14 54.5t-15 56.5q-15 10 -26 35q-2 7 -2.5 19.5t-1.5 15.5q-7 37 17 65.5t60 28.5q14 0 29 -6q33 -11 55 -47q30 -54 54 -130q31 -89 203.5 -661.5t189.5 -624.5
q74 -215 94 -288q6 -20 -6 -48z" />
    <glyph glyph-name="bracketright" unicode="]" horiz-adv-x="585" 
d="M88 -96q-18 -6 -35 -6q-27 0 -45 12q-30 17 -39 49t8 61q21 35 66 46q136 41 289 73q-3 22 -7.5 66t-7.5 65q-26 272 -24 441q3 183 18 368q13 202 13 232q-10 -2 -66.5 -14.5t-87.5 -12.5q-36 0 -55 12q-40 23 -40 70t40 70q18 10 47 10q20 0 102 20q50 11 84 11
q22 0 47 -7q26 -10 43 -24.5t27 -39t14 -41t10 -50.5q13 -91 13 -256q-2 -56 -13.5 -272t-15.5 -267q-1 -28 -1 -131t1 -131q1 -24 16 -147q2 -27 -8 -53.5t-28 -41.5q-33 -26 -99 -41q-107 -33 -266 -71z" />
    <glyph glyph-name="asciicircum" unicode="^" horiz-adv-x="684" 
d="M645 797q22 -43 -2.5 -84t-71.5 -41q-72 0 -129 57q-28 29 -55 74.5t-38.5 70.5t-37.5 87q-23 -45 -68 -124t-63 -98q-12 -15 -31.5 -27t-37.5 -12q-21 0 -40 13.5t-28 34.5q-6 12 -6 38.5t6 38.5q7 16 54.5 107.5t52.5 103.5q96 199 112 217q26 33 68 33q24 0 41 -7
t29 -23t18 -28.5t16 -37.5q31 -87 79 -192.5t85 -149.5q1 -1 21.5 -19t25.5 -32z" />
    <glyph glyph-name="underscore" unicode="_" horiz-adv-x="888" 
d="M289 -311q-157 -20 -185 -13q-17 5 -43 5q-33 3 -49.5 29t-9.5 57t35 47q3 2 33 9t36 7q29 3 154 23q264 40 539 61q50 4 75 -27q25 -37 10.5 -76.5t-57.5 -48.5q-31 -6 -146 -21.5t-244.5 -32t-147.5 -19.5z" />
    <glyph glyph-name="grave" unicode="`" horiz-adv-x="419" 
d="M367 1266q33 -46 9.5 -92t-71.5 -46q-20 0 -43 13q-24 11 -87 63.5t-83 75.5q-48 60 -57 102q-9 44 18 79t70 32h49q30 -3 47 -28.5t12 -57.5q19 -17 72 -71.5t64 -69.5z" />
    <glyph glyph-name="a" unicode="a" horiz-adv-x="1091" 
d="M1061 102q-6 -35 -33.5 -56t-62.5 -21q-36 0 -76 12q-39 16 -70 44t-51 68t-33 76.5t-21 88t-11.5 83.5t-6.5 80q-62 -114 -155 -241t-168 -177q-43 -32 -107 -32q-93 0 -155.5 76.5t-77.5 175.5q-26 191 47 391q24 69 65 137.5t96 130.5t127 100.5t146 38.5
q124 0 199 -121q12 41 44 64.5t74 23.5q52 0 87.5 -44.5t35.5 -96.5q0 -10 4 -30.5t5 -28.5q25 -282 32 -340q16 -130 58 -295q3 -14 6 -54t2 -53zM565 848q-67 -39 -115.5 -130.5t-69 -183.5t-22.5 -176q140 126 293 422q-6 6 -18.5 19.5t-22.5 23.5t-20 17q-18 12 -25 8z
" />
    <glyph glyph-name="b" unicode="b" horiz-adv-x="1175" 
d="M344 131q-35 -123 -127 -123q-32 0 -66.5 22.5t-48.5 51.5q-10 10 -20 39q-1 2 -5 22t-5 23q-5 16 -8.5 33t-5.5 40t-2.5 32.5t-1.5 40.5t-1 34q0 417 72 811q7 34 27 99.5t22 72.5q7 25 27.5 39t46.5 14q108 0 114 -245q2 -147 2.5 -176t-2 -176.5t-2.5 -176.5
q231 387 459 387q90 0 170.5 -63.5t125.5 -156t44 -181.5q0 -75 -39 -145q-37 -75 -130.5 -140t-197 -100t-186.5 -35q-63 0 -125.5 17.5t-93.5 54.5q-10 -23 -43 -115zM782 754q-33 0 -82 -43.5t-97.5 -107.5t-82.5 -114.5t-55 -85.5q21 5 94.5 29t91.5 33q50 21 122 65.5
t87 77.5q6 13 -10 68q-5 16 -20.5 41.5t-26.5 30.5q-9 6 -21 6z" />
    <glyph glyph-name="c" unicode="c" horiz-adv-x="958" 
d="M854 152q-111 -63 -226 -87t-261 -24h-45q-136 0 -217.5 70.5t-81.5 205.5q0 132 65 275q28 60 58 115.5t78.5 126.5t97 122.5t110.5 87t123 35.5q107 0 174.5 -79t67.5 -187q1 -10 -3.5 -37.5t-9.5 -36.5q-19 -34 -61 -34q-31 0 -53 19.5t-21 53.5q2 21 -10 41.5
t-31 24.5q-14 2 -39 -29q-29 -31 -67 -94q-163 -246 -172 -391q70 -10 473 12q18 6 55 6q52 0 79 -45.5t1 -89.5q-5 -9 -11.5 -16t-18 -14.5t-15.5 -10t-21 -11.5t-18 -9z" />
    <glyph glyph-name="d" unicode="d" horiz-adv-x="1118" 
d="M1020 23q-9 -30 -33 -47t-55 -17q-39 0 -70 25q-139 108 -151 378q-214 -368 -416 -368q-108 0 -171.5 74.5t-88.5 189.5q-33 165 33 352q81 228 292 412q130 108 238 108q105 0 172 -79q33 162 51 209q17 49 50 80.5t81 31.5q13 0 19 -2q56 -10 81 -62t9 -112
q0 -2 -2 -9t-2 -9q-55 -418 -33 -760q2 -34 6 -100.5t6 -100.5q4 -117 -16 -194zM342 416q-10 -78 4 -144q154 105 354 496q-18 26 -28 63q-12 47 -37 54q-13 -7 -26 -17t-23 -17.5t-23.5 -21l-20.5 -20.5t-21 -23.5t-19 -22t-20.5 -24t-18.5 -22.5q-103 -134 -121 -301z
" />
    <glyph glyph-name="e" unicode="e" horiz-adv-x="854" 
d="M606 25q-53 -11 -88 -11q-150 0 -284 91.5t-185 230.5q-34 85 -20 201q10 99 81 206.5t176 180.5t203 73q56 0 102.5 -25.5t74.5 -72.5q46 -79 24 -192q-33 -134 -123 -265q-56 -72 -104 -94q85 -44 192 -51q8 0 28 0.5t31 0.5t27 -1.5t29 -5.5q40 -8 64 -62
q19 -39 -2.5 -80t-65.5 -63q-105 -51 -160 -61zM328 479q3 -6 14 -6q44 0 61 19q24 21 61 95.5t48 112.5q15 60 2 99q-15 -5 -31 -13q-77 -46 -128 -138.5t-27 -168.5z" />
    <glyph glyph-name="f" unicode="f" horiz-adv-x="813" 
d="M385 -287q-6 -38 -39 -58t-70 -11q-27 9 -34 18q-40 40 -79.5 150.5t-56.5 197.5q-8 30 -22 142q-6 42 -15.5 210.5t-9.5 215.5q0 379 45 577q35 150 108 221.5t228 106.5q75 11 97 8q41 0 61 -4q101 -31 152 -131q34 -9 46 -39t-3 -60t-50 -40q-12 -3 -46 3.5t-52 12.5
q-13 5 -74 39q-40 -14 -88 -37q-42 -17 -47 -33q-47 -139 -47 -557q175 27 266 27q21 0 27 -2q44 -8 61.5 -50t-8.5 -79q-18 -25 -41 -31q-125 -34 -305 -55q0 -13 2 -121.5t2.5 -178.5t-2.5 -120q-10 -145 -10 -205q0 -5 2 -34t3 -49t-1 -34z" />
    <glyph glyph-name="g" unicode="g" horiz-adv-x="1044" 
d="M938 -123q-8 -49 -19 -87.5t-31 -78t-46.5 -66t-67 -43t-92.5 -16.5q-104 0 -217 72q-36 22 -82 71t-53 81q-12 46 17.5 81.5t76.5 28.5q9 -2 52.5 -25.5t49.5 -25.5q45 -19 119 -23q14 53 17 121q5 65 20 400q-240 -240 -408 -240q-26 0 -53 6q-60 15 -104.5 55.5
t-65.5 94.5t-26 118t14 125q53 203 186 375q56 71 145 128.5t169 57.5q18 0 28 -2q80 -11 125 -76.5t2 -127.5t-84 -62q-46 0 -65 43q-80 -57 -157.5 -177t-102.5 -220q-17 -68 -6 -103q5 -18 14 -18q38 -2 113 41q159 97 307 315q2 4 2 13q1 5 6.5 24.5t8 27l8 24
t10.5 25.5t12.5 21t15.5 21q4 5 16 19.5t21.5 24t20.5 15.5q28 17 61 17q62 0 96 -56.5t0 -117.5q-1 -16 -5.5 -58t-4.5 -65q-20 -465 -25 -553q-6 -104 -18 -205z" />
    <glyph glyph-name="h" unicode="h" horiz-adv-x="1048" 
d="M909 -61q-8 -2 -30 2t-29 8q-38 19 -69 54t-46 77q-50 137 -65 276q-8 65 -16.5 196t-16.5 196q-5 -7 -15.5 -23t-15.5 -23q-170 -269 -258 -567q-18 -69 -29 -92q-17 -30 -46 -46.5t-62 -16.5q-48 0 -79 28t-44 74q-1 3 -10 21.5t-10 21.5q-21 81 -9 244q5 86 30 435.5
t32 424.5q3 48 29.5 84.5t66.5 36.5q48 0 68 -23q34 -32 45 -90q2 -11 5 -48t5.5 -77.5t3.5 -46.5q3 -147 0 -297q152 270 328 270q51 0 93.5 -21t70.5 -54t50.5 -78.5t35 -88.5t20.5 -91q19 -98 40.5 -285.5t25.5 -218.5q28 -182 -11 -221q-32 -35 -88 -41z" />
    <glyph glyph-name="i" unicode="i" horiz-adv-x="393" 
d="M319 1280q-30 -49 -90 -49q-32 0 -60.5 17t-39.5 48q-15 43 8.5 83.5t69.5 47.5q63 12 103.5 -40t8.5 -107zM315 61q-17 -26 -36 -36.5t-50 -10.5q-62 0 -107 54.5t-54 128.5q-38 298 -15 479q9 72 40.5 169t68.5 134q20 20 51 20q27 0 50.5 -17t33.5 -44q4 -13 4.5 -28
t-1 -35t-1.5 -29q2 -32 4 -96t4 -97q4 -83 18.5 -238t18.5 -225q2 -22 -8 -67.5t-21 -61.5z" />
    <glyph glyph-name="j" unicode="j" horiz-adv-x="417" 
d="M260 1202q-46 -28 -78 -28q-6 0 -22 4q-48 12 -76 50.5t-16 82.5q5 17 19.5 45t16.5 33q10 21 33 34t47 13q29 0 53.5 -16t34.5 -44q1 -2 4.5 -5t4.5 -5q29 -35 22.5 -86.5t-43.5 -77.5zM326 -109q-14 -60 -33 -112t-50 -105.5t-69 -91t-92.5 -61t-118.5 -23.5
q-116 0 -201.5 60.5t-164.5 171.5q-22 32 -7 72t52 51q43 11 69 -9q39 -28 61 -42.5t58.5 -31.5t69.5 -22q46 -7 71 8q36 22 56 97t24 145q3 37 17.5 297.5t17.5 296.5q12 161 33 248q9 28 17.5 47.5t23.5 41t36.5 33t49.5 11.5q35 0 61 -23q6 -4 11 -10t8 -10.5t7.5 -13
t6 -12t6.5 -14.5t6 -13q5 -4 3 -30t-1 -32q6 -55 8.5 -111.5t2.5 -141.5v-113q1 -117 0 -191.5t-10.5 -178t-28.5 -188.5z" />
    <glyph glyph-name="k" unicode="k" horiz-adv-x="882" 
d="M340 102q-9 -45 -49 -73t-84 -19q-30 4 -52 19.5t-36.5 41t-22.5 47t-16 54.5q-14 51 -15.5 221.5t2.5 298.5t9 226q7 179 20 317q16 137 58 197q24 34 67 34q41 0 70 -32q27 -31 49 -125q5 -23 8.5 -49.5t6 -46.5t4 -51t2.5 -46.5t2.5 -51.5t1.5 -48q4 -84 4 -254
q13 13 65 61t109 100t65 60q4 5 20.5 24.5t20.5 22.5q42 33 82 21q32 -9 43.5 -40.5t1.5 -66.5q-10 -37 -82.5 -135t-115.5 -141q119 10 210 -17q50 -16 64 -39q25 -33 18 -75t-43 -60q-26 -12 -86 -24q-34 -7 -183.5 -25.5t-192.5 -21.5q-4 -188 -25 -304z" />
    <glyph glyph-name="l" unicode="l" horiz-adv-x="475" 
d="M356 -14q-29 -37 -82 -37q-40 0 -81 32.5t-62 71.5q-9 17 -16 34t-12.5 39t-9 35t-7.5 40.5t-5.5 36.5t-4.5 41.5t-4 37.5q-15 161 -4 445q12 274 36 420q2 9 15.5 65.5t15.5 65.5q17 56 53.5 95.5t87.5 39.5q61 0 84 -51q23 -44 25 -74q10 -119 11.5 -252t-1.5 -300
t-2 -253q1 -22 5 -175t5 -175q0 -36 -14 -97.5t-33 -84.5z" />
    <glyph glyph-name="m" unicode="m" horiz-adv-x="1658" 
d="M371 80q-23 -47 -64 -77t-90 -30q-43 0 -75.5 17.5t-51 43t-30 64t-16 71.5t-5.5 73q-3 184 29 434q11 112 45 184q4 12 24.5 33t32.5 27q32 12 51 12q32 0 53 -17.5t45 -50.5q24 -41 33 -141q75 140 158 250q73 104 174 104q58 0 109.5 -49t62.5 -108v-9q26 -68 45 -190
q227 377 422 377q58 -2 104 -31t74.5 -69t50 -99t32 -106t18.5 -105q32 -212 -9 -508q-10 -77 -53.5 -132.5t-116.5 -55.5q-39 0 -78.5 29t-48.5 65q-17 66 -14 121q3 31 6.5 166t3.5 176q4 157 -6 235q-113 -121 -183 -257.5t-126 -317.5q-1 -3 -6 -26.5t-6 -26.5
q0 -1 -2 -6.5t-2 -6.5q-6 -65 -54 -107t-110 -42q-54 0 -100.5 34t-61.5 85q-18 61 -25 149q0 4 -24 332q-65 -113 -144 -326q-7 -18 -30.5 -86t-40.5 -102z" />
    <glyph glyph-name="n" unicode="n" horiz-adv-x="1116" 
d="M385 51q-34 -71 -72.5 -109t-105.5 -38q-44 0 -76.5 17.5t-51 47.5t-27.5 64.5t-11 75.5q-3 70 13 320t28 321q25 152 53 180l15 13q14 13 22 18q24 14 51 14q31 0 62.5 -25t40.5 -55q31 -98 39 -305q263 430 423 430q48 0 91 -27t65 -71q1 -3 9 -20.5t14.5 -33.5
t7.5 -20q16 -48 26 -98q20 -71 51.5 -281t28.5 -274q0 -4 -1.5 -20t-2.5 -22t-3 -20t-4.5 -22t-6.5 -18.5t-10 -18.5q-47 -80 -129 -80q-23 0 -39 8q-46 25 -66.5 46.5t-40.5 68.5q-12 25 -25 98t-21 141t-16.5 152t-10.5 98q-167 -224 -320 -555z" />
    <glyph glyph-name="o" unicode="o" horiz-adv-x="1017" 
d="M928 403q-43 -84 -99.5 -157.5t-127.5 -135.5t-159 -98.5t-180 -36.5q-146 0 -232.5 90.5t-102.5 241.5q-14 155 65 320q114 244 316 377q45 28 98 28q32 0 53 -8q29 20 74 20q125 0 231 -93t121 -216q29 -163 -57 -332zM371 295q48 -5 108 22q118 58 219 199
q37 47 57.5 104.5t14.5 112.5q-7 41 -27 70q-27 48 -96 74q-9 -19 -30 -29.5t-42 -7.5q-174 -264 -208 -398q-18 -83 4 -147z" />
    <glyph glyph-name="p" unicode="p" horiz-adv-x="1024" 
d="M334 -471q-39 -51 -92 -51q-22 0 -49 10q-45 15 -71.5 39.5t-43.5 66.5q-4 11 -17 74q-20 120 -22 270t6 273q10 242 31 422q27 237 88 280q25 18 45 23h10q64 64 213 103.5t260 39.5q72 0 138 -23.5t108 -72.5q33 -46 45 -80q25 -62 18 -164q-15 -144 -96 -278
q-36 -60 -102 -134t-143.5 -142t-162.5 -116.5t-149 -54.5v-184q0 -121 10 -180q3 -20 -5.5 -62t-18.5 -59zM336 772q5 -44 8.5 -227.5t3.5 -272.5q65 54 110.5 96.5t97.5 99.5t89.5 118.5t61.5 128.5q18 57 16 96q-47 16 -143 16q-83 0 -181 -10q-20 0 -41 -6
q-4 -19 -14 -29q-1 -2 -4.5 -5.5t-3.5 -4.5z" />
    <glyph glyph-name="q" unicode="q" horiz-adv-x="1036" 
d="M1044 -231q21 -58 -18.5 -101t-101.5 -43q-46 0 -85.5 26t-65 64t-45 89.5t-30 94.5t-16.5 87q-26 195 -35 409q-72 -115 -143.5 -200.5t-155.5 -133.5q-57 -26 -106 -26q-84 0 -143 61.5t-70 147.5q-20 120 28 282q24 82 81.5 175.5t131.5 174t165.5 134t174.5 53.5
q70 0 117 -33q4 -4 21 8q26 11 45 11q35 0 67 -19.5t51 -50.5q26 -46 13 -98q0 -2 1 -6.5t1 -6.5q14 -88 18 -266q5 -107 27 -346q25 -254 43 -360q1 -5 6 -43t6 -43q2 -7 9 -20.5t9 -20.5zM508 741q-94 -120 -148 -220.5t-61 -213.5q18 13 59 58q180 213 283 487q1 2 4 16
t4 17q2 15 -28 -15q-8 -7 -32 -34.5t-50.5 -58.5t-30.5 -36z" />
    <glyph glyph-name="r" unicode="r" horiz-adv-x="899" 
d="M313 47q-45 -78 -116 -78q-59 0 -98 43t-50 105q-12 60 -8 209q11 347 72 551q1 2 4.5 11t4.5 12t4 11t5 11.5t5 11t5.5 11.5t6.5 10t7.5 10.5t7.5 9t9 8.5q21 18 49 18q49 0 70 -38q19 -32 29 -153t10 -202q37 56 68.5 95.5t76 83.5t96.5 69.5t109 30.5q10 0 39.5 -5
t38.5 -8q24 -10 64.5 -35t49.5 -40q34 -47 6.5 -95.5t-85.5 -39.5q-2 0 -9 1.5t-10 0.5q-122 -39 -178 -97q-137 -152 -229 -381q-3 -6 -25.5 -68.5t-28.5 -72.5z" />
    <glyph glyph-name="s" unicode="s" horiz-adv-x="917" 
d="M797 35q-89 -40 -195.5 -64t-202.5 -24q-149 0 -239 55q-44 25 -88 62.5t-47 68.5q-3 43 23.5 75t66.5 28q88 -8 141 -3q40 3 81 8.5t100 16.5t79 14q-75 65 -215 150q-4 3 -25 16.5t-26.5 17t-24.5 16.5t-26 18t-23.5 17.5t-24.5 20t-21.5 19t-22 21.5t-19 22t-18.5 24
q-25 36 -30 83.5t13 86.5q32 70 104 130.5t158 95t164 34.5q85 0 142 -51q33 -27 60 -75t17 -80q-6 -24 -24.5 -39t-42.5 -15q-27 0 -47 17q-6 4 -18 16.5t-22.5 19.5t-21.5 9q-56 0 -131.5 -34.5t-111.5 -74.5q14 -12 77.5 -51t85.5 -49q9 -5 49 -29t53 -32t46.5 -28.5
t51.5 -33t45 -31.5t48.5 -36.5t42.5 -36.5q78 -70 103 -113q40 -72 15.5 -149.5t-99.5 -112.5z" />
    <glyph glyph-name="t" unicode="t" horiz-adv-x="739" 
d="M514 -16q-12 -27 -36.5 -41.5t-53.5 -14.5q-26 0 -57 17q-71 42 -97.5 110.5t-31.5 171.5q-2 54 0 184.5t4 184.5q0 79 8 143q-36 -1 -68.5 -1t-68.5 6t-64 20q-36 17 -43 65q-6 36 17 64.5t59 28.5q4 0 11.5 1t14 1t11.5 -2q2 0 9.5 -2t8.5 -2q76 0 127 10q2 12 11.5 87
t11.5 87q1 5 7.5 38t13 63t9.5 38q9 28 16 45.5t20.5 39.5t33 33t45.5 11q28 0 51.5 -15.5t32.5 -43.5q18 -46 28.5 -154.5t10.5 -183.5q5 0 42.5 1t43.5 1q44 0 70 -31.5t20 -73.5t-43 -67q-12 -9 -57.5 -21t-73.5 -16q5 -456 8 -512q0 -85 -10 -142.5t-41 -127.5z" />
    <glyph glyph-name="u" unicode="u" horiz-adv-x="1019" 
d="M1010 43q-34 -96 -160 -96q-31 0 -66 15t-61 38q-54 40 -90 126.5t-51 172.5q-30 -52 -49.5 -82.5t-51 -71.5t-63.5 -69q-59 -56 -137 -56q-86 0 -139.5 61t-78.5 155q-30 108 -22 301q8 150 20 225q6 31 11.5 52t17 50t26 46.5t39 30.5t54.5 13q58 0 91 -42t38 -103
q6 -73 6 -218t6 -216q21 28 43.5 64t37.5 61t40.5 70t36.5 65q66 121 154 121q54 0 93 -40t52 -95q19 -53 44 -176.5t50 -184.5q9 -24 49 -88q1 -1 8.5 -5t8.5 -5q36 -24 43 -51q10 -39 0 -68z" />
    <glyph glyph-name="v" unicode="v" horiz-adv-x="876" 
d="M618 20q-34 -67 -76.5 -105t-107.5 -38q-66 0 -117 39q-55 36 -94 113q-84 160 -137 379.5t-53 404.5q5 83 12 107q10 34 37 54.5t59 20.5q37 0 64 -24q15 -12 35.5 -42t21.5 -46q2 -8 18.5 -49t18.5 -46q11 -29 72 -217.5t67 -205.5q14 40 94.5 327.5t94.5 327.5
q1 3 6.5 21.5t10 32.5t12 35t14 35.5t13.5 28.5t13 19q31 31 68 31q36 0 62.5 -28.5t23.5 -70.5q-3 -84 -43 -309q-20 -125 -87.5 -422t-101.5 -373z" />
    <glyph glyph-name="w" unicode="w" horiz-adv-x="1536" 
d="M1423 526q-21 -57 -37.5 -100.5t-46.5 -109.5t-58 -115.5t-68.5 -104t-81.5 -89.5t-92.5 -58t-106.5 -23q-60 0 -105 23q-88 54 -137.5 117t-75.5 161q-53 -91 -77 -125q-24 -35 -63 -57t-79 -22q-38 0 -72 15t-60 45t-46 59.5t-37.5 73.5t-27 71.5t-21.5 68.5
q-9 27 -17 61t-12.5 57t-12 64.5t-11.5 59.5q-31 159 -37 313q0 7 -8 15q-11 28 8 67q1 3 1 9.5t1 9.5q24 84 96 84q62 0 90 -54q30 -54 67 -201t54 -243q4 -19 35 -130t35 -126q26 50 59 141q2 2 2 19q2 19 49 137q7 14 7 27q32 61 70.5 94t97.5 33q64 0 106 -43t55 -109
q3 -20 12.5 -137t10.5 -127q7 -95 37 -146q17 -34 35 -34t57 47q95 109 170 315t100 375q18 110 27 147l6 37q4 30 27.5 49t52.5 19q32 0 55 -25t33.5 -64.5t15 -73.5t4.5 -65q-3 -185 -86 -432z" />
    <glyph glyph-name="x" unicode="x" horiz-adv-x="833" 
d="M825 12q5 -44 -25.5 -78t-74.5 -34q-81 0 -152 71q-93 89 -229 287q-154 -218 -197 -256q-24 -18 -51 -18t-49 16t-29 43q-7 28 5 49q15 34 98 162.5t119 179.5q-13 24 -44 89.5t-36 82.5q-1 2 -10.5 29t-14.5 43.5t-15 47.5t-16 53.5t-12 48t-8 44.5t0 31q6 34 33.5 55
t60.5 15q7 -1 21.5 -4t21.5 -4q36 -4 52 -37.5t1 -67.5q10 -19 57.5 -99.5t61.5 -101.5q5 7 41 62t69 105.5t42 62.5l26 39q23 26 60 26q24 0 44 -14t27 -39q5 -28 3 -37q-12 -43 -85 -171t-120 -201q63 -92 186 -248q83 -104 98 -138q9 -16 24.5 -49t16.5 -45z" />
    <glyph glyph-name="y" unicode="y" horiz-adv-x="933" 
d="M821 -336q-9 -26 -32 -41.5t-50 -15.5q-23 0 -41 12q-7 4 -17.5 14t-12.5 11q-52 49 -72 104q-22 58 -35 121t-15.5 137.5t-1.5 123.5t5 136q-73 -122 -80 -131q-6 -7 -20.5 -24.5t-22.5 -26t-21 -20t-26 -17.5q-42 -22 -82 -22q-32 0 -60.5 11.5t-48.5 28t-38.5 45.5
t-29.5 51.5t-23 60t-17 57t-14 55.5q-32 132 -29 311q2 62 14 149t31 115q31 48 63 60q10 4 31 4q58 0 86 -49q20 -41 23 -93q12 -297 51 -454q32 48 104 186q55 106 187 385q19 39 31.5 58t38.5 35t63 16q30 0 63 -21.5t47 -48.5q31 -70 19 -137q-1 -10 -6 -76.5t-6 -75.5
q-22 -220 -41 -596q0 -14 -7 -112.5t-9 -159t1 -111.5q7 -33 0 -55z" />
    <glyph glyph-name="z" unicode="z" horiz-adv-x="942" 
d="M885 -35q-255 -78 -445 -78q-199 0 -284 70q-47 40 -67 103.5t-5 125.5q12 44 34.5 96.5t37 79.5t49.5 91q115 213 153 297q35 75 43 118q9 34 5 41q-4 9 -37.5 15t-51.5 6q-58 0 -163 -33q-3 0 -11 -8q-19 -19 -47 -19q-22 0 -45 15q-26 19 -33.5 58.5t11.5 64.5
q34 50 140 99.5t177 59.5q133 11 217 -41q69 -43 111 -125q30 -65 22 -178q-18 -179 -219 -528q-7 -11 -26 -41t-31 -51.5t-21 -42.5q39 -10 80.5 -14.5t102.5 -7t82 -3.5l67 -6q121 0 137 -2q40 -3 61.5 -41.5t4.5 -73.5q-15 -38 -49 -47z" />
    <glyph glyph-name="braceleft" unicode="{" horiz-adv-x="741" 
d="M553 -78q-49 -24 -121 -24q-86 0 -160 31.5t-123.5 97.5t-52.5 153q-1 88 36 177t101 153q-2 0 -59.5 10.5t-67.5 14.5q-40 14 -57 52.5t0 76.5q10 22 34 38t50 21q4 1 91 10t104 17q15 7 4 57q-11 42 -38.5 105.5t-47 121t-19.5 109.5q0 63 31 117q43 70 146 141.5
t178 71.5q81 0 157 -109q17 -27 6 -59q-6 -23 -25.5 -37.5t-43.5 -14.5q-26 0 -45 19q-7 7 -20.5 22.5t-20.5 22.5q-33 -8 -109.5 -66t-83.5 -86q-7 -29 43 -159q39 -96 52 -148q21 -77 10 -137q-12 -61 -62 -107q20 -20 28.5 -49t-1.5 -53q-4 -9 -10.5 -19.5t-11 -16.5
t-14 -17.5t-13.5 -16.5q-62 -73 -74 -88q-28 -42 -43 -88q-21 -50 -18 -94q0 -26 18 -51q23 -27 62 -43.5t79 -16.5q44 0 72 17q3 1 14 7.5t21 12t14 6.5q29 8 54.5 -3t37.5 -31.5t8.5 -47.5t-26.5 -47q-50 -40 -84 -53z" />
    <glyph glyph-name="bar" unicode="|" horiz-adv-x="380" 
d="M293 -295q-7 -28 -29.5 -44.5t-48.5 -16.5q-40 0 -61 37q-12 21 -25 97.5t-18 123.5q-3 19 -10 85.5t-7 82.5q-13 223 0 743q0 8 7 141.5t8 155.5q29 447 77 524q21 37 60 37q24 0 44 -16t27 -43q8 -23 -12 -111q-7 -44 -16 -198q-8 -212 -8 -832q0 -27 8 -349t6 -374
q0 -37 -2 -43z" />
    <glyph glyph-name="braceright" unicode="}" horiz-adv-x="673" 
d="M518 78q-5 -55 -51 -94t-101 -54.5t-108 -15.5t-133 13.5t-102 33.5q-35 29 -27.5 73.5t49.5 61.5q12 4 47 4t76.5 -2t48.5 -2q92 0 139 8q-5 25 -16 58q-49 145 -68 223q-22 106 2 178q26 73 82 117q-69 47 -96 92q-33 59 -18 119q11 48 53 156.5t51 169.5q7 59 -8 71
q-18 15 -73 22t-97 7q-77 0 -98 8q-27 12 -40 40.5t-3 55.5q7 21 47 52q17 10 35 10t30 -6q62 8 92 8q100 0 179 -48.5t90 -142.5q0 -31 2 -44.5t-3.5 -44.5t-7.5 -44.5t-10.5 -44.5t-12.5 -43.5t-14 -43t-14 -42.5q-2 -5 -8 -21.5t-9.5 -28.5t-7 -27t-3 -27t5.5 -19
q8 -13 48 -38.5t64 -37.5q2 -1 6 -4t8 -5.5t5 -2.5q56 -31 67 -45q25 -29 21 -65.5t-33 -61.5q-19 -18 -69.5 -36.5t-69.5 -35.5q-10 -10 -10 -38q0 -17 0.5 -34t3.5 -36.5t4.5 -32t7.5 -36t7.5 -31.5t9 -36t8.5 -32q28 -118 22 -178z" />
    <glyph glyph-name="asciitilde" unicode="~" horiz-adv-x="1024" 
d="M928 424q-50 -57 -131.5 -100t-153.5 -43q-128 0 -227 110q-26 27 -63.5 84.5t-49.5 73.5q-9 -6 -72 -55q3 -38 -24 -62q-19 -15 -55 -21.5t-58 1.5q-42 14 -51 63t12 92q108 248 271 248q74 0 123.5 -43t93.5 -121q3 -5 15 -27.5t21.5 -39t22.5 -37t26 -33.5t23 -16
q28 -10 78 8t78 41q15 15 20 28q4 9 8.5 29.5t8.5 28.5q22 37 67 37t63 -43t4.5 -101.5t-50.5 -101.5z" />
    <glyph glyph-name="uni00A0" unicode="&#xa0;" horiz-adv-x="512" 
 />
    <glyph glyph-name="exclamdown" unicode="&#xa1;" horiz-adv-x="376" 
d="M322 891q-3 -42 -32 -66t-67 -24q-33 0 -59 18t-35 53q-13 52 15.5 90.5t74.5 38.5q37 0 60 -18q49 -36 43 -92zM307 -217q-5 -47 -27.5 -80t-64.5 -33q-19 0 -35 6.5t-28 21.5t-21 28t-16 38t-11 38t-7.5 41.5t-4.5 36t-4 32.5q-3 34 -14.5 162t-16.5 198q-4 86 4 127
q3 13 13.5 35t13.5 35q7 25 28.5 39t47.5 14q34 0 56 -18.5t28 -50.5q9 -18 12 -21q13 -30 25 -86q7 -39 12 -79t7.5 -88.5t4 -77.5t2.5 -89t2 -80q3 -76 -6 -149z" />
    <glyph glyph-name="cent" unicode="&#xa2;" horiz-adv-x="788" 
d="M485 70q-19 -29 -61 -29q-45 0 -74.5 45.5t-34.5 95.5q-4 38 9 64q-118 35 -198 113.5t-87 191.5q-5 121 67 266q38 81 102.5 147t141.5 99q-25 127 0 213q18 55 80 55q30 0 47 -10q31 -14 37.5 -51t-18.5 -62q0 -7 5 -57t5 -57q120 0 172 -70l18 -27t23 -30
q24 -28 25 -57t-22 -51t-58 -19q-9 2 -29.5 11t-26.5 15q-4 2 -23 23t-22 24h-28q-78 -10 -125 -57q-56 -50 -111 -151t-45 -162q9 -45 55 -78q147 -100 269 -84q32 8 53 8q46 -5 66.5 -43.5t-5.5 -75.5q-5 -7 -12 -12t-12.5 -8.5t-17 -7.5t-15.5 -5t-18.5 -4.5t-16.5 -3.5
q-76 -15 -127 -10q22 -49 29 -84q9 -31 -17 -65z" />
    <glyph glyph-name="sterling" unicode="&#xa3;" horiz-adv-x="1019" 
d="M268 -6q-63 -14 -80 -14q-14 0 -22 2q-50 9 -74.5 52.5t-3.5 90.5q12 24 16 27q9 9 69.5 57.5t64.5 52.5q51 45 70.5 79t19.5 95q0 43 -21 146q-58 -6 -112 -15q-16 -1 -46 -7t-45 -7q-33 -3 -54.5 23t-18.5 59q1 17 16.5 34.5t30.5 22.5q18 5 94.5 15t103.5 12
q-52 249 -24 395q25 128 124 211.5t226 83.5q112 0 209 -64t125 -169q6 -28 -4 -123q0 -23 -21 -41q-21 -21 -49 -21q-23 0 -41.5 12.5t-25.5 34.5q-7 11 -4.5 46.5t0.5 48.5q-1 12 -20.5 31t-33.5 26q-44 24 -94 24q-171 0 -180 -176q-3 -42 1.5 -93.5t10.5 -83t19 -92.5
q3 -13 4 -19q18 1 99 12t99 14q100 17 193 17q37 0 59.5 -34.5t7.5 -66.5q-16 -36 -45 -45q-35 -9 -72 -16t-80.5 -12t-71.5 -7.5t-81 -6t-74 -5.5q15 -96 15 -154q3 -126 -70 -229q6 1 74 10.5t129 16t104 6.5q39 0 60 -6q33 -12 44 -42.5t-3 -60.5t-47 -41
q-50 -15 -183 -37q-213 -29 -387 -69z" />
    <glyph glyph-name="currency" unicode="&#xa4;" horiz-adv-x="901" 
d="M240 381q-68 -105 -109 -107q-39 -5 -65 21.5t-19 64.5q5 33 51.5 94.5t81.5 71.5q-18 72 0 153t64 146q-33 18 -51 29t-42.5 31t-37.5 41q-32 45 -18 98t67 63h12q34 0 56.5 -27.5t13.5 -62.5q6 -5 53.5 -35.5t54.5 -39.5q57 24 103 24t116 -24q18 -4 31 -21.5t16 -38.5
q2 -2 6 -5t7.5 -4.5t3.5 -0.5q11 40 66 85.5t94 45.5q43 0 63 -39.5t-6 -77.5q-3 -4 -35.5 -25t-34.5 -28v-12q-3 -23 -22.5 -42t-42.5 -20q15 -58 0.5 -119.5t-51.5 -107.5q31 -78 49 -102q19 -26 8 -54q-6 -25 -26 -40t-44 -15q-31 0 -53 25q-26 28 -53 96
q-80 -41 -166 -41q-62 0 -107 22q-8 -11 -26 -18q-1 -1 -3 -1.5t-3.5 -1t-1.5 -1.5zM356 551q10 -11 56 -4q87 11 135 67q18 18 24.5 47t-6.5 50q-13 19 -53.5 39t-54.5 34q-92 -60 -105 -186q-2 -7 -1 -24.5t5 -22.5z" />
    <glyph glyph-name="yen" unicode="&#xa5;" horiz-adv-x="976" 
d="M565 180q-3 -25 -6 -39.5t-11.5 -32.5t-25 -26t-41.5 -8q-28 0 -49 18q-13 11 -29.5 50.5t-19.5 60.5q-4 23 -4 104q-79 -8 -178 -8q-59 0 -90 8q-40 10 -51.5 51t16.5 72q17 20 46 38.5t50 18.5q36 0 61 -32q54 4 154 16q1 11 4 32.5t4 33.5q-22 8 -45 28
q-125 -10 -153 -10q-43 0 -58 6q-39 14 -50.5 54t17.5 69q15 15 46.5 28t50.5 9q15 -4 41 0q-59 123 -125 317q-43 130 -33 195q6 48 36.5 73t78.5 25q37 0 55 -12q34 -23 30.5 -64.5t-40.5 -58.5q19 -49 95.5 -224.5t96.5 -215.5q5 2 32.5 6t33.5 4q51 78 130.5 238.5
t88.5 177.5q49 87 78 116q27 27 61 27q25 0 43.5 -12.5t24.5 -36.5q11 -33 6 -55q-17 -66 -66 -154q-129 -243 -147 -274q61 -3 131 -37q30 -13 39 -46.5t-6 -62.5q-8 -19 -30 -30t-46 -13q-23 0 -112.5 -5.5t-110.5 -8.5q-3 0 -8 -5l-11 -11t-8 -7v-12q4 -16 4 -59
q3 0 26 2t32 2h6q30 -5 48.5 -30t15 -55t-28.5 -48q-8 -6 -16.5 -10t-20.5 -7t-19 -4.5t-21.5 -4t-19.5 -3.5q0 -14 1 -49t0.5 -60t-3.5 -49z" />
    <glyph glyph-name="brokenbar" unicode="&#xa6;" horiz-adv-x="366" 
d="M266 979q-3 -30 -25 -49t-51 -19q-26 0 -47 15q-23 19 -28 39q-19 74 -15 198q3 105 9 207q12 126 14 189l-2 4q-11 55 6 86q19 37 66 37q50 0 75 -46q21 -43 24 -189.5t-3 -195.5q-10 -161 -23 -276zM250 -182q5 -42 -26 -69t-72 -17q-61 24 -70 98q-16 123 -6 276
q3 71 23.5 278t35.5 232q21 37 62 37q29 0 51 -20.5t22 -54.5q-1 -10 0.5 -28.5t1.5 -23.5q8 -185 -2 -417q0 -61 -24 -271q-1 -2 1.5 -10.5t2.5 -9.5z" />
    <glyph glyph-name="section" unicode="&#xa7;" horiz-adv-x="919" 
d="M713 199q12 -80 -22 -150.5t-101.5 -111.5t-149.5 -41q-83 0 -166.5 31.5t-185.5 86.5q-42 23 -40.5 71.5t44.5 68.5q26 11 47 6q101 -35 185 -62q80 -26 131 -26h10q41 2 68.5 30.5t21.5 67.5q-6 43 -45 70q-44 34 -136.5 76.5t-127.5 64.5q-143 91 -148 233
q-8 119 60 269q2 5 13 29.5t15 33t13.5 27t18.5 31t20 24.5q-53 94 -56 170q0 109 87 180t206 74q96 0 172 -43h12q42 -3 62 -38t0 -71q-13 -22 -40.5 -33.5t-55.5 -9.5q-22 0 -63.5 8.5t-61.5 8.5q-34 0 -75 -13t-52 -38q-10 -16 4 -58q31 -78 100 -153q47 -51 151 -131
t120 -93q46 -39 71 -73q63 -84 60 -162q-4 -85 -68 -146t-154 -88q45 -58 56 -120zM537 487q49 -7 127 25q16 7 32 21t17 26t-12 32t-25 32q-47 44 -161 126.5t-165 133.5q-1 2 -2 -2q-1 -8 -2 -9q-43 -107 -59 -174q-14 -54 -6 -94q11 -54 84 -94q20 14 47 14q8 0 24 -4
q7 -2 43 -15.5t58 -17.5z" />
    <glyph glyph-name="dieresis" unicode="&#xa8;" horiz-adv-x="569" 
d="M258 1282q-10 -31 -52.5 -57.5t-78.5 -26.5q-51 0 -79 37.5t-18 83t56 67.5q18 9 41 9q1 0 18 -2.5t21 -1.5q46 12 77.5 -26.5t14.5 -82.5zM508 1225q-18 -37 -64 -37q-37 0 -63 29q-22 30 -13.5 63.5t40.5 56.5q31 23 57 23q37 0 58 -30.5t9 -65.5q-3 -7 -12 -19.5
t-12 -19.5z" />
    <glyph glyph-name="copyright" unicode="&#xa9;" horiz-adv-x="1236" 
d="M1118 397q-46 -88 -148 -174.5t-223.5 -142t-218.5 -55.5q-148 0 -258 101t-170 255q-68 182 -39 387q23 151 134 285.5t256 201.5q24 11 50 17.5t58.5 8.5t52 2.5t61 -1.5t54.5 -2q1 0 6 1t6 1q53 15 195 -94q111 -85 174 -211q91 -184 72 -391q-9 -97 -62 -189z
M250 498q10 -52 33 -105.5t57 -102t83.5 -79.5t104.5 -31q84 0 188 52.5t187 133t113 158.5q27 74 20 176q-12 147 -82.5 253t-201.5 182q-7 0 -38 1.5t-43 1.5t-35.5 -0.5t-42.5 -2.5t-38 -5q-17 -3 -63 -26q-83 -46 -147.5 -126t-92.5 -171q-41 -139 -2 -309zM838 315
q-50 -28 -125 -28q-129 0 -217 73q-48 43 -64 106.5t-2 130t44 131t73 120.5q91 119 227 119q62 0 117 -27q28 -14 47.5 -39t25.5 -51.5t3 -51t-21 -40t-47 -15.5q-40 0 -74 39q-57 -23 -103.5 -81.5t-72.5 -125.5q-15 -49 -12 -63q2 -28 74 -51q7 -3 25 -7t24 -3
q6 0 24.5 3.5t28.5 2.5q34 -6 50.5 -33t10 -59t-35.5 -50z" />
    <glyph glyph-name="guillemotleft" unicode="&#xab;" horiz-adv-x="1198" 
d="M657 170q-22 -39 -90 -39q-88 0 -197.5 51t-201.5 117q-13 8 -57 42t-54 44q-23 26 -24.5 60.5t20.5 60.5q5 6 24 20.5t37.5 27.5t41.5 28.5t26 17.5q156 114 344 248q33 22 52 41q16 16 49 16q14 0 20 -2q35 -11 46 -51t-15 -66q-6 -7 -19 -19t-16 -15
q-59 -59 -410 -303q102 -74 250 -136q13 -7 49 -20.5t48 -13.5q38 0 51 -9q27 -20 35.5 -47t-9.5 -53zM1065 250q-35 -8 -129.5 5.5t-138.5 27.5q-39 12 -125.5 48.5t-110.5 55.5q-37 29 -36 76.5t40 75.5q57 41 166.5 112.5t157.5 104.5q3 2 58.5 41t64.5 47
q11 11 32.5 20.5t38.5 9.5q23 0 42.5 -17t25.5 -42q7 -24 -6.5 -48.5t-38.5 -33.5q-16 -5 -29.5 -14.5t-33.5 -28.5t-25 -24q-132 -109 -246 -189q103 -46 219 -67q4 -1 24.5 -5.5t38.5 -9t23 -8.5q31 -22 37 -57t-20 -60q-14 -14 -29 -20z" />
    <glyph glyph-name="logicalnot" unicode="&#xac;" 
d="M909 324q-27 -41 -78 -41q-37 0 -61 24q-15 12 -22 33q-35 132 34 352q-44 -2 -94.5 -7t-112 -12.5t-94.5 -10.5q-186 -19 -301 -19q-51 0 -78 -4q-28 -3 -51 20q-31 31 -19.5 71t54.5 52q9 2 24.5 1.5t24.5 0.5q16 2 80 13t132.5 23t80.5 14q159 28 281 38q7 1 33 4
t40 3q68 0 118.5 -30t60.5 -93q9 -60 -9 -209q-1 -9 -3 -49t-7 -60q-2 -6 -8 -32.5t-13 -50.5t-12 -31z" />
    <glyph glyph-name="uni00AD" unicode="&#xad;" horiz-adv-x="0" 
 />
    <glyph glyph-name="registered" unicode="&#xae;" horiz-adv-x="1206" 
d="M928 250q-168 -176 -326 -176q-100 0 -210.5 65t-192.5 158.5t-121 187.5q-51 125 -24 259t122 231q74 77 205.5 162t224.5 102q56 6 107 -12q14 -6 55 -29q1 0 8 -2t8 -2q63 -28 107.5 -52t94.5 -59.5t86 -81t58 -100.5q38 -100 17 -242q-32 -215 -219 -409zM528 242
q50 -22 88 -17q33 2 97 35q61 39 108 86q-95 3 -186 27q-3 0 -18.5 4t-18.5 6q-3 -43 -23.5 -70.5t-60.5 -27.5q-42 0 -67.5 39.5t-30.5 87.5q-14 154 2 331q-20 28 -12 91q3 32 32 61q3 10 12.5 29.5t12.5 27.5q18 37 61 37q40 0 62 -31q38 9 76 9q80 0 142.5 -39.5
t76.5 -110.5q16 -79 -47 -176q-19 -30 -105 -125q119 -24 133 -33q24 -15 35 -47q84 115 107 236q17 99 -7 174q-18 59 -71 102q-13 11 -29.5 22t-28.5 18.5t-33.5 19t-30.5 16l-35 17.5l-32 16q-4 4 -16 4q-52 26 -62 29q-17 7 -34 4q-30 -10 -123 -62q-54 -31 -95.5 -60.5
t-85 -70t-70.5 -90t-34 -104.5q-8 -71 19 -152q31 -88 117 -178.5t175 -134.5zM584 795q-6 -108 -6 -217q65 69 92 106q41 60 47 94q-44 23 -88 23q-24 0 -45 -6z" />
    <glyph glyph-name="macron" unicode="&#xaf;" horiz-adv-x="579" 
d="M489 1235q-259 -51 -352 -51q-39 0 -57 6q-47 17 -50.5 65t40.5 68q26 11 43 6q6 -4 37.5 -1.5t54 5.5t54.5 7.5t38 5.5q27 5 83.5 15t84.5 15q34 6 57 -12.5t27.5 -45t-11 -52t-49.5 -31.5z" />
    <glyph glyph-name="degree" unicode="&#xb0;" horiz-adv-x="555" 
d="M449 1044q-42 -55 -107.5 -92t-130.5 -37q-83 0 -123.5 62t-40.5 151q0 46 25 140q9 36 18 61.5t26 60t43 53.5t58 19q25 0 43 -12q6 -3 18.5 -6t18.5 -6q17 20 47 20q21 0 37 -8q19 -10 55 -50.5t47 -62.5q30 -65 27 -125q-11 -104 -61 -168zM287 1309
q-49 -150 -49 -219q0 -4 8 0q83 25 108 104q11 38 4 63q-9 30 -49 66q-1 1 -10 -5t-12 -9z" />
    <glyph glyph-name="plusminus" unicode="&#xb1;" horiz-adv-x="950" 
d="M606 309q0 -129 -86 -129q-34 0 -53.5 26.5t-34.5 67.5q-12 25 -21.5 85t-11.5 102q-7 0 -46.5 -2t-65.5 -2q-81 0 -109 14q-32 20 -33.5 57t27.5 62q20 16 78 33q25 6 51 -9q16 2 47.5 6.5t48.5 6.5q4 148 21 250q6 27 11 42.5t16 38.5t28.5 34.5t40.5 11.5q43 0 86 -31
q35 -24 28 -64t-46 -59q-2 -66 6 -201q152 21 192 21q17 0 23 -2q40 -11 60 -47t3 -72q-18 -42 -53 -51q-32 -8 -65.5 -12t-83.5 -7t-66 -4q4 -112 8 -166zM102 -63q-7 0 -22.5 -3.5t-22.5 -3.5q-38 0 -58 27.5t-11.5 61.5t43.5 51q8 3 25 3.5t24 2.5q65 11 136.5 26
t161.5 35.5t136 30.5q185 45 311 55q47 5 73.5 -41t-1.5 -86q-18 -22 -31 -28q-21 -10 -78 -27q-33 -10 -68 -19t-64.5 -16t-70.5 -14t-66 -11.5t-71.5 -10t-66.5 -8t-72 -7.5t-67 -6t-72 -6t-68 -6z" />
    <glyph glyph-name="twosuperior" unicode="&#xb2;" horiz-adv-x="477" 
d="M164 1044q-46 -10 -84 11q-25 13 -36 39t-5 55q3 22 35 74q4 6 42.5 60t66.5 95t57 89.5t34 68.5q-26 10 -53 -4q-20 -6 -22 -14q-6 -24 -25.5 -37t-44.5 -13q-14 0 -20 2q-32 9 -45 41.5t-1 65.5q16 50 74 83.5t115 33.5q60 0 113 -33t59 -90q10 -62 -33 -146
q-25 -51 -121 -182l17.5 7t19.5 7.5t17.5 6t19.5 5t18 1.5q15 0 23 -2q37 -9 47.5 -47.5t-14.5 -67.5q-16 -19 -113.5 -58t-140.5 -51z" />
    <glyph glyph-name="threesuperior" unicode="&#xb3;" horiz-adv-x="471" 
d="M395 1198q-34 -44 -132.5 -99t-153.5 -59q-23 0 -43 13q-35 26 -29 69.5t47 55.5q50 16 110.5 46.5t81.5 59.5q-16 8 -35.5 13.5t-44 11.5t-38.5 10q-24 6 -43.5 29t-18.5 47q0 3 1 8t1 8q1 13 17 36.5t43 54.5t28 32q-13 -4 -47 -27q-21 -12 -43 -12q-34 0 -56 26
t-13 62q7 28 28 43q145 103 248 103q36 0 59 -13q37 -21 43 -65t-18 -80q-24 -42 -94 -133q137 -45 137 -148q0 -45 -35 -92z" />
    <glyph glyph-name="acute" unicode="&#xb4;" horiz-adv-x="495" 
d="M166 1079q-18 -18 -51 -18q-47 0 -70 40.5t2 80.5q24 38 62 85.5t87 99.5t103 87t96 35q20 0 37 -10q26 -13 34 -43t-7 -56q-7 -11 -29.5 -27t-28.5 -22q-48 -42 -125.5 -131t-109.5 -121z" />
    <glyph glyph-name="paragraph" unicode="&#xb6;" horiz-adv-x="1146" 
d="M664 -356q-23 -41 -66 -41q-58 0 -82 55q-22 50 -35 184q-12 179 -20 541q-65 -9 -135 14q-78 26 -145 87.5t-101 136.5q-44 97 -29 251q10 121 60.5 240.5t130.5 218.5q132 170 237 170q62 0 96 -49q37 4 61.5 -18.5t23.5 -52t-27 -56.5q6 -183 6 -508q10 -575 23 -989
q23 -20 20 -51q0 -5 0.5 -26.5t0 -30t-2 -25t-5.5 -28.5t-11 -23zM1065 -276q-6 -31 -28.5 -49.5t-49.5 -18.5q-44 0 -63 37q-10 20 -19 88q-1 2 -6 16.5t-6 16.5q-13 54 -37 358q-5 58 -10.5 322t-5.5 358q0 4 -0.5 80t-0.5 133t2 121.5t7 85.5q8 32 32 55t54 23
q21 0 55.5 -23t54.5 -43q27 -28 17 -65.5t-47 -51.5q7 -102 35 -684q1 -28 11 -207.5t9 -275.5q0 -172 -2 -184q-1 -6 -1 -46.5t-1 -45.5zM414 553q20 -8 45 -12v39q-21 -21 -45 -27z" />
    <glyph glyph-name="periodcentered" unicode="&#xb7;" horiz-adv-x="311" 
d="M168 584q-20 -5 -59 4q-46 13 -66 57.5t-8 93.5q10 36 48.5 60t78.5 24q46 0 80 -31t34 -77q0 -50 -29.5 -83.5t-78.5 -47.5z" />
    <glyph glyph-name="cedilla" unicode="&#xb8;" horiz-adv-x="196" 
d="M215 -432q-37 -21 -122.5 -43.5t-127.5 -22.5t-63 40t6 77q14 21 35 27q12 3 48 12.5t53 14.5t44.5 14.5t48.5 19.5q30 13 39 29q-26 5 -74.5 3.5t-74.5 2.5q-52 7 -78 51.5t-6 91.5q13 30 50 76.5t48 65.5q25 43 68 43q38 0 59 -32.5t2 -76.5q-7 -17 -29 -57
q79 -3 129.5 -30.5t67.5 -96.5q11 -55 -21 -121q-34 -58 -102 -88z" />
    <glyph glyph-name="onesuperior" unicode="&#xb9;" horiz-adv-x="374" 
d="M309 1100q-22 -49 -71 -49q-20 0 -39 11t-25 28q-30 60 6 391q-45 -45 -71 -54q-27 -9 -51 1.5t-35.5 31t-8.5 46.5t25 44q5 5 14.5 10t12.5 7q4 4 32 34.5t53.5 57t34.5 31.5q23 20 43 22q32 6 60 -10t37 -47q18 -67 -4 -434q0 -22 -4 -65.5t-9 -55.5z" />
    <glyph glyph-name="guillemotright" unicode="&#xbb;" horiz-adv-x="1091" 
d="M600 264q-18 -12 -39 -12q-29 0 -51 23t-21.5 55t29.5 53q293 202 361 254q-51 25 -107 55.5t-127.5 79t-85.5 78.5q-11 20 -4 45q7 26 29 40.5t49 14.5q46 0 67 -37q0 -4 2 -6q13 -7 34.5 -19t40 -22t34.5 -18q5 -3 32.5 -17t45.5 -23.5t46.5 -26t47.5 -29.5t36 -28.5
t23 -27.5q24 -50 9 -96q-11 -25 -56 -70q-43 -38 -104 -79q-74 -52 -291 -187zM266 313q-69 -49 -125 -49q-50 0 -79.5 34.5t-8.5 78.5q15 34 53 41q7 0 9 2q185 135 270 192q-12 6 -119 50.5t-123 54.5q-27 15 -46 39.5t-19 50.5q0 34 24.5 56t55.5 22q36 0 55 -25
q0 -2 3.5 -6t4.5 -4q7 -3 62.5 -21.5t62.5 -21.5q166 -66 207 -145q12 -25 10 -56.5t-16 -56.5q-20 -39 -118 -116.5t-163 -119.5z" />
    <glyph glyph-name="onequarter" unicode="&#xbc;" horiz-adv-x="1075" 
d="M338 774q-22 -31 -59 -31q-49 0 -68 48q-10 33 -6 104q6 158 26 295q-45 -39 -79 -39q-2 0 -6.5 1t-6.5 1q-44 8 -56 52t23 73q13 12 85 93t85 93q18 21 52 21t54.5 -24.5t20.5 -59.5q3 -61 -22 -326q-33 -216 -29 -258q3 -22 -14 -43zM160 -33q-20 -28 -56 -28
q-28 0 -49.5 20t-21.5 51q0 24 20 56q26 42 157 252.5t200 324.5q342 583 374 639q1 2 6.5 11.5t7.5 13t7.5 11.5t8.5 12t8.5 10t10 9t11 6.5t12.5 4.5q37 11 66 -16.5t22 -65.5q-2 -13 -8.5 -25.5t-17.5 -27.5t-15 -23q-273 -475 -328 -569q-73 -122 -225 -367.5
t-190 -298.5zM987 72q-7 -28 -29.5 -45t-48.5 -17q-47 0 -65 49q-20 57 -13 142q-69 -53 -112 -68q-27 -12 -60 -12q-14 0 -22 2q-63 7 -93 67.5t-16 128.5q9 50 35 101q92 203 154 225q33 13 61 4q31 -12 42 -41.5t-3 -60.5q-3 -8 -14.5 -19.5t-14.5 -15.5
q-30 -46 -69 -122t-39 -107q44 23 101 70t89 87q1 1 2.5 5t3.5 9.5t3 6.5q13 30 26 43q19 16 49 16q28 0 47 -16q16 -14 23.5 -39.5t-0.5 -46.5q-14 -29 -26.5 -128.5t-12.5 -144.5q9 -55 2 -73z" />
    <glyph glyph-name="onehalf" unicode="&#xbd;" horiz-adv-x="1052" 
d="M334 1006q-6 -28 -27 -45t-47 -17q-22 0 -41.5 14t-25.5 35q-9 31 -13.5 70t-5.5 63.5t-1.5 74.5t-0.5 67q-45 -32 -66 -35q-37 -6 -61.5 18t-22 58.5t32.5 56.5q5 3 50.5 35t54.5 37q23 10 47 10q103 0 112 -162q4 -38 7.5 -108t5.5 -99q0 -3 1 -21t1.5 -31t-0.5 -21z
M207 -39q-17 -29 -51 -29q-27 0 -49 20t-25 50q-2 23 18 55q309 608 451 947q2 4 44 109.5t50 123.5q1 3 9.5 20t12.5 23.5t13 17.5t18 17q15 10 37 10q28 0 50 -21t22 -51q0 -13 -75 -197.5t-89 -213.5q-101 -232 -321 -666q-5 -8 -31 -59.5t-50.5 -97.5t-33.5 -58z
M690 -47q-38 -3 -71 21t-39 61q-6 27 8 59q10 26 95 167.5t93 156.5q22 50 25 71q-52 -9 -66 -16q-12 -8 -18 -10q-25 -13 -58 2q-44 21 -40 67.5t49 67.5q83 37 145 37q55 0 93 -29t42 -84q5 -51 -16 -116q-17 -45 -41 -89.5t-64 -105.5t-53 -84q18 5 67.5 20.5t76.5 22.5
q40 10 51 10q16 0 22 -4q46 -22 46.5 -70.5t-48.5 -66.5q-18 -6 -70.5 -26t-79.5 -29t-69.5 -19.5t-79.5 -13.5z" />
    <glyph glyph-name="threequarters" unicode="&#xbe;" 
d="M156 834q-10 -5 -27 -5q-37 0 -58.5 32t-4.5 69q11 21 30 31q10 5 67 26.5t92.5 42.5t41.5 45q-17 10 -53 18.5t-49 14.5q-25 12 -35.5 40t-1.5 54q2 5 5 10t7.5 10t8 8t10 8t8.5 7q10 8 32.5 23.5t38.5 28.5t29 28q-21 18 -59 18q-29 0 -48 -8q-1 0 -7.5 -6.5t-8.5 -7.5
q-12 -10 -35 -10q-42 0 -63 35q-19 30 -6.5 62.5t45.5 47.5q62 27 131 27q75 0 137.5 -42.5t62.5 -113.5q0 -64 -73 -129q38 -23 51 -53q40 -85 -14 -158q-25 -36 -69 -66t-77 -44.5t-92 -36.5q-11 -4 -16 -6zM209 96q-7 -29 -26.5 -44t-43.5 -15q-30 0 -53.5 22t-24.5 60
q-2 91 191 409q60 100 225 365t250 412q23 45 33 59q24 27 53 27q39 0 62.5 -35t1.5 -76q-60 -112 -342 -575q-11 -17 -45 -71.5t-48 -77.5t-43.5 -70.5t-47 -78t-40 -72t-41.5 -79.5q-37 -69 -59 -131q-1 -5 -1 -15t-1 -14zM930 111q1 -32 -20 -52t-50 -20q-49 0 -69 45
q-14 31 -5 186q-71 -59 -114 -77q-29 -13 -60 -13q-25 0 -41 8q-41 19 -59.5 57.5t-7.5 82.5q11 43 31.5 88.5t49 100t42.5 85.5q22 51 37 64q19 16 45 16q40 0 62.5 -34.5t0.5 -72.5q-11 -20 -48 -101t-48 -107q40 33 162 155q26 23 51 23q32 0 55.5 -26.5t20.5 -63.5
q-2 -27 -19 -152t-16 -192z" />
    <glyph glyph-name="questiondown" unicode="&#xbf;" horiz-adv-x="757" 
d="M602 1049q41 -46 39 -94.5t-39 -86t-86 -37.5q-31 0 -68.5 20t-52.5 46q-18 35 -12 76q9 51 47 82.5t84 31.5q50 0 88 -38zM653 -266q-96 -94 -209 -155.5t-227 -61.5q-96 0 -171.5 49.5t-102.5 138.5q-20 86 -9 158q18 124 117 272q73 107 154.5 178.5t195.5 124.5
q-1 11 -3 43.5t-2 44t1 43.5q1 8 0.5 22t0.5 24.5t5 19.5q11 32 36.5 48.5t56.5 16.5q39 0 78.5 -23.5t62.5 -62.5q17 -29 39 -116q3 -9 10.5 -33.5t9.5 -33t7.5 -33t4 -33.5t-2.5 -33q-10 -59 -54 -94q-27 -24 -71 -35q-101 -26 -172 -78q-68 -48 -140 -152.5t-78 -179.5
q0 -21 5 -26q20 -17 61 -17q59 0 115 23q75 31 178 94q0 76 104 76q19 0 27 -4q33 -12 45.5 -46t1.5 -69q-3 -8 -6.5 -15t-9.5 -15l-9 -12t-12.5 -13.5l-11 -11t-13.5 -12.5z" />
    <glyph glyph-name="Agrave" unicode="&#xc0;" horiz-adv-x="1169" 
d="M862 1663q37 -44 13 -98t-82 -54q-9 0 -20.5 3.5t-17.5 6t-19.5 10t-16.5 9.5q-11 4 -72 42.5t-76 49.5q-41 33 -93.5 93.5t-57.5 95.5q-8 47 26 78.5t80 19.5q44 -9 58 -21q14 -11 41 -27.5t37 -23.5q52 -32 88 -73q3 -3 30.5 -29.5t52 -50.5t29.5 -31zM1075 -78
q-9 -37 -34.5 -57.5t-63.5 -20.5q-26 0 -45 13q-91 68 -120 147t-32 213q0 5 -0.5 63.5t-0.5 108t1 62.5q-37 -7 -122.5 -24.5t-133.5 -27t-118.5 -20.5t-129.5 -17q-51 -197 -55 -229q-2 -4 2 -12q9 -36 -18 -64t-64 -22q-38 7 -55 43t-10 78q9 70 39 196q-43 0 -72 15
q-42 25 -43 71.5t41 67.5q26 11 43 6q22 -5 78 8q19 65 39.5 126t54.5 150t69.5 163t84 152.5t98 132.5t111 89t124.5 35q84 0 156 -55q51 -43 89 -114t58.5 -141t34 -164t18 -155.5t7.5 -144.5q1 -55 0 -116t-3 -135.5t-3 -115.5q0 -8 -1 -43t-1 -47t-1.5 -41.5t-3.5 -46.5
t-5.5 -40.5t-8.5 -43.5q-4 -12 -4 -43zM662 1167q-163 -110 -324 -596q173 46 446 95q0 270 -8 368q-2 15 -11 60.5t-13 56.5q-5 15 -17 27.5t-24 11.5q-20 -2 -49 -23z" />
    <glyph glyph-name="Aacute" unicode="&#xc1;" horiz-adv-x="1169" 
d="M1075 -78q-9 -37 -34.5 -57.5t-63.5 -20.5q-26 0 -45 13q-91 68 -120 147t-32 213q0 5 -0.5 63.5t-0.5 108t1 62.5q-37 -7 -122.5 -24.5t-133.5 -27t-118.5 -20.5t-129.5 -17q-51 -197 -55 -229q-2 -4 2 -12q9 -36 -18 -64t-64 -22q-38 7 -55 43t-10 78q9 70 39 196
q-43 0 -72 15q-42 25 -43 71.5t41 67.5q26 11 43 6q22 -5 78 8q19 65 39.5 126t54.5 150t69.5 163t84 152.5t98 132.5t111 89t124.5 35q84 0 156 -55q51 -43 89 -114t58.5 -141t34 -164t18 -155.5t7.5 -144.5q1 -55 0 -116t-3 -135.5t-3 -115.5q0 -8 -1 -43t-1 -47
t-1.5 -41.5t-3.5 -46.5t-5.5 -40.5t-8.5 -43.5q-4 -12 -4 -43zM664 1487q-46 -11 -79.5 29t-13.5 83l43 72q172 214 222 250q21 16 53 16q46 0 75 -37t11 -83q-4 -8 -19 -28t-34 -44t-21 -27q-117 -137 -145 -166q-54 -54 -92 -65zM662 1167q-163 -110 -324 -596
q173 46 446 95q0 270 -8 368q-2 15 -11 60.5t-13 56.5q-5 15 -17 27.5t-24 11.5q-20 -2 -49 -23z" />
    <glyph glyph-name="Acircumflex" unicode="&#xc2;" horiz-adv-x="1167" 
d="M1135 1659q26 -26 26.5 -60.5t-22.5 -59.5t-60 -26q-86 0 -153 24.5t-129 80.5q-19 17 -54 50.5t-43 41.5q-20 -14 -106 -86l-6 -12q-19 -34 -51 -37q-9 -1 -28 -7t-28 -7q-37 -7 -61 16q-28 30 -26.5 71.5t30.5 71.5q163 187 252 203q63 12 129 -33q31 -23 84.5 -67
t100 -77.5t91.5 -55.5q46 -23 54 -31zM1075 -78q-9 -37 -34.5 -57.5t-63.5 -20.5q-26 0 -45 13q-91 68 -120 147t-32 213q0 5 -0.5 63.5t-0.5 108t1 62.5q-37 -7 -122.5 -24.5t-133.5 -27t-118.5 -20.5t-129.5 -17q-51 -197 -55 -229q-2 -4 2 -12q9 -36 -18 -64t-64 -22
q-38 7 -55 43t-10 78q9 70 39 196q-43 0 -72 15q-42 25 -43 71.5t41 67.5q26 11 43 6q22 -5 78 8q19 65 39.5 126t54.5 150t69.5 163t84 152.5t98 132.5t111 89t124.5 35q84 0 156 -55q51 -43 89 -114t58.5 -141t34 -164t18 -155.5t7.5 -144.5q1 -55 0 -116t-3 -135.5
t-3 -115.5q0 -8 -1 -43t-1 -47t-1.5 -41.5t-3.5 -46.5t-5.5 -40.5t-8.5 -43.5q-4 -12 -4 -43zM662 1167q-163 -110 -324 -596q173 46 446 95q0 270 -8 368q-2 15 -11 60.5t-13 56.5q-5 15 -17 27.5t-24 11.5q-20 -2 -49 -23z" />
    <glyph glyph-name="Atilde" unicode="&#xc3;" horiz-adv-x="1169" 
d="M866 1616q-74 -78 -141 -78q-24 0 -50 9t-42 18.5t-43 27.5q-74 62 -82 64q-19 -12 -31 -31q-2 -2 -2 -20q-3 -27 -23.5 -44.5t-48.5 -17.5t-54.5 24t-29.5 52q-6 63 30.5 123.5t96.5 89.5q20 10 58 10q63 0 131 -61q6 -4 43 -38t43 -38q1 0 3 -1.5t3 -0.5
q16 11 29.5 27.5t27.5 40t23 34.5q25 35 63 35q39 0 64.5 -34t9.5 -78q-6 -16 -35 -57.5t-43 -55.5zM1075 -78q-9 -37 -34.5 -57.5t-63.5 -20.5q-26 0 -45 13q-91 68 -120 147t-32 213q0 5 -0.5 63.5t-0.5 108t1 62.5q-37 -7 -122.5 -24.5t-133.5 -27t-118.5 -20.5
t-129.5 -17q-51 -197 -55 -229q-2 -4 2 -12q9 -36 -18 -64t-64 -22q-38 7 -55 43t-10 78q9 70 39 196q-43 0 -72 15q-42 25 -43 71.5t41 67.5q26 11 43 6q22 -5 78 8q19 65 39.5 126t54.5 150t69.5 163t84 152.5t98 132.5t111 89t124.5 35q84 0 156 -55q51 -43 89 -114
t58.5 -141t34 -164t18 -155.5t7.5 -144.5q1 -55 0 -116t-3 -135.5t-3 -115.5q0 -8 -1 -43t-1 -47t-1.5 -41.5t-3.5 -46.5t-5.5 -40.5t-8.5 -43.5q-4 -12 -4 -43zM662 1167q-163 -110 -324 -596q173 46 446 95q0 270 -8 368q-2 15 -11 60.5t-13 56.5q-5 15 -17 27.5t-24 11.5
q-20 -2 -49 -23z" />
    <glyph glyph-name="Adieresis" unicode="&#xc4;" horiz-adv-x="1169" 
d="M967 1677q-7 -38 -44 -67t-77 -29q-47 0 -77.5 33t-29 78t38.5 75q13 12 43.5 22.5t50.5 10.5q44 0 73.5 -38t21.5 -85zM563 1575q-32 -12 -53 -12q-17 0 -29 6q-30 13 -41 28q-29 48 -20 82q8 30 20 45q37 33 66 33q44 0 76 -28.5t28 -69.5q-4 -63 -47 -84zM1075 -78
q-9 -37 -34.5 -57.5t-63.5 -20.5q-26 0 -45 13q-91 68 -120 147t-32 213q0 5 -0.5 63.5t-0.5 108t1 62.5q-37 -7 -122.5 -24.5t-133.5 -27t-118.5 -20.5t-129.5 -17q-51 -197 -55 -229q-2 -4 2 -12q9 -36 -18 -64t-64 -22q-38 7 -55 43t-10 78q9 70 39 196q-43 0 -72 15
q-42 25 -43 71.5t41 67.5q26 11 43 6q22 -5 78 8q19 65 39.5 126t54.5 150t69.5 163t84 152.5t98 132.5t111 89t124.5 35q84 0 156 -55q51 -43 89 -114t58.5 -141t34 -164t18 -155.5t7.5 -144.5q1 -55 0 -116t-3 -135.5t-3 -115.5q0 -8 -1 -43t-1 -47t-1.5 -41.5t-3.5 -46.5
t-5.5 -40.5t-8.5 -43.5q-4 -12 -4 -43zM662 1167q-163 -110 -324 -596q173 46 446 95q0 270 -8 368q-2 15 -11 60.5t-13 56.5q-5 15 -17 27.5t-24 11.5q-20 -2 -49 -23z" />
    <glyph glyph-name="Aring" unicode="&#xc5;" horiz-adv-x="1167" 
d="M803 1462q-39 -47 -93 -75.5t-110 -28.5q-65 0 -108.5 38.5t-57.5 102.5q-13 68 10 187q25 118 91 189t176 71q6 0 17.5 -1t16.5 -1q29 -3 47 -26.5t15 -53.5q43 -24 67 -50.5t27 -68.5q7 -72 -20.5 -147.5t-77.5 -135.5zM641 1735q-19 -42 -33 -113.5t-2 -101.5
q38 0 73.5 34.5t55.5 77.5t25 80q0 16 -2 17q-1 2 -12.5 7.5t-12.5 6.5q-15 6 -25 21t-12 32q-39 -22 -55 -61zM1075 -78q-9 -37 -34.5 -57.5t-63.5 -20.5q-26 0 -45 13q-91 68 -120 147t-32 213q0 5 -0.5 63.5t-0.5 108t1 62.5q-37 -7 -122.5 -24.5t-133.5 -27
t-118.5 -20.5t-129.5 -17q-51 -197 -55 -229q-2 -4 2 -12q9 -36 -18 -64t-64 -22q-38 7 -55 43t-10 78q9 70 39 196q-43 0 -72 15q-42 25 -43 71.5t41 67.5q26 11 43 6q22 -5 78 8q19 65 39.5 126t54.5 150t69.5 163t84 152.5t98 132.5t111 89t124.5 35q84 0 156 -55
q51 -43 89 -114t58.5 -141t34 -164t18 -155.5t7.5 -144.5q1 -55 0 -116t-3 -135.5t-3 -115.5q0 -8 -1 -43t-1 -47t-1.5 -41.5t-3.5 -46.5t-5.5 -40.5t-8.5 -43.5q-4 -12 -4 -43zM662 1167q-163 -110 -324 -596q173 46 446 95q0 270 -8 368q-2 15 -11 60.5t-13 56.5
q-5 15 -17 27.5t-24 11.5q-20 -2 -49 -23z" />
    <glyph glyph-name="AE" unicode="&#xc6;" horiz-adv-x="1933" 
d="M1075 -68q-19 -77 -98 -77q-27 0 -45 12q-91 68 -120 147t-32 213q0 4 -0.5 62t-0.5 108t1 64q-36 -7 -122 -24.5t-133.5 -27t-118.5 -21t-130 -17.5q-48 -174 -55 -228q-2 -4 2 -12q9 -36 -18 -64t-64 -22q-38 6 -54.5 42t-10.5 79q9 70 39 196q-43 0 -72 15
q-42 25 -43 71.5t41 67.5q26 11 43 6q7 -2 14.5 -3t17 0.5t15 2.5t17 4t14.5 4q46 149 89 266t119.5 258t161.5 226q41 39 101 69.5t110 30.5q85 0 145 -48.5t109 -133.5l7 37q-39 27 -43.5 72.5t32.5 72.5q74 53 248 93t281 40q44 0 126 -11.5t113 -22.5q34 -13 49.5 -44.5
t6.5 -64.5t-41 -51q-22 -15 -134 -37q-8 -3 -36.5 -10.5t-34.5 -7.5q-178 -23 -369 -39q0 -52 -24 -250q133 44 186 47q13 2 51 -1t49 -7q48 -19 57 -69.5t-30 -82.5q-12 -10 -45.5 -30t-46.5 -23q-69 -23 -215 -51q-2 -21 -13.5 -98t-13.5 -119q-14 -163 21 -277
q27 -88 112 -88q17 0 41 4q36 10 115 49q53 30 147 97.5t136 93.5q88 59 124 59q35 0 58.5 -27t17.5 -63q-1 -8 -4 -16t-9 -17t-9.5 -14t-12 -15.5t-10.5 -13.5q-99 -118 -279 -219.5t-319 -101.5q-111 0 -194 53q-1 -15 -6.5 -40.5t-6.5 -29.5q-4 -12 -4 -43zM711 1200
q-41 -9 -83 -47.5t-79.5 -98.5t-69 -120t-61 -135.5t-46.5 -121t-34 -97.5q114 32 446 96q0 270 -8 368q-8 68 -24 117q-5 15 -17 27.5t-24 11.5z" />
    <glyph glyph-name="Ccedilla" unicode="&#xc7;" horiz-adv-x="921" 
d="M514 -414q-25 -19 -86.5 -44t-87.5 -25q-39 0 -59.5 28.5t-11 62.5t45.5 48q77 26 103 39q27 12 47.5 35.5t26.5 50.5q-15 6 -32.5 9t-39 5t-33.5 4q-63 11 -88 43q-33 38 -23 92q2 11 6 22.5t10.5 23.5t11 20t13 22.5t11.5 20.5q-59 18 -108 61.5t-81.5 101t-53.5 118
t-30 122.5q-23 144 -2 340q7 64 18.5 124.5t31 130t45.5 128.5t64 115t83.5 95.5t107 63t132.5 23.5q82 0 156.5 -28t132 -86.5t77.5 -137.5q9 -47 -24.5 -80.5t-79.5 -25.5q-14 3 -49 25q-90 57 -154 57q-56 0 -92 -29q-29 -29 -37 -45q-85 -132 -121 -344q-41 -235 6 -397
q19 -73 53 -107q21 -24 66 -20q117 0 295 127q18 12 39 12q24 0 44.5 -14.5t26.5 -38.5q12 -48 -14 -74q-168 -168 -366 -221q-4 -18 -33 -51q-11 -10 -33 -51q43 -5 62 -7.5t51 -14t51 -30.5q43 -43 42.5 -101t-34 -109.5t-86.5 -88.5z" />
    <glyph glyph-name="Egrave" unicode="&#xc8;" horiz-adv-x="1124" 
d="M934 174q-269 -190 -469 -190q-102 0 -191.5 55.5t-130.5 144.5q-54 116 -61 260t27 267h-3q-46 5 -68.5 41t-2.5 77q7 14 45 36.5t61 29.5q19 179 54 330q-39 28 -43.5 73.5t32.5 73.5q2 1 43 25q93 43 237.5 75.5t248.5 32.5q43 0 122.5 -12.5t114.5 -24.5
q54 -19 59 -74.5t-44 -84.5q-8 -5 -99.5 -29.5t-105.5 -24.5q-155 -20 -369 -38q0 -24 -9.5 -124.5t-14.5 -125.5q14 4 44.5 14t49 15.5t44.5 11t48 6.5q79 0 100 -8q49 -19 58 -69.5t-31 -84.5q-10 -8 -44.5 -28.5t-47.5 -24.5q-79 -23 -215 -49q-3 -28 -13.5 -103.5
t-13.5 -116.5q-14 -162 21 -276q30 -88 112 -88q22 0 43 6q26 7 113 49q57 31 152.5 100t130.5 91q91 52 98 55q8 4 26 4q36 0 59 -27t17 -63q-7 -41 -70.5 -107t-113.5 -100zM713 1704q6 -36 -18 -64t-58 -28q-40 0 -150.5 75.5t-130.5 110.5q-21 41 -2 82q13 22 38 40.5
t48 18.5q27 0 49 -19t25 -46q4 -3 38 -23.5t53 -34t47 -35t43 -41t18 -36.5z" />
    <glyph glyph-name="Eacute" unicode="&#xc9;" horiz-adv-x="1124" 
d="M934 174q-269 -190 -469 -190q-102 0 -191.5 55.5t-130.5 144.5q-54 116 -61 260t27 267h-3q-46 5 -68.5 41t-2.5 77q7 14 45 36.5t61 29.5q19 179 54 330q-39 28 -43.5 73.5t32.5 73.5q2 1 43 25q93 43 237.5 75.5t248.5 32.5q43 0 122.5 -12.5t114.5 -24.5
q54 -19 59 -74.5t-44 -84.5q-8 -5 -99.5 -29.5t-105.5 -24.5q-155 -20 -369 -38q0 -24 -9.5 -124.5t-14.5 -125.5q14 4 44.5 14t49 15.5t44.5 11t48 6.5q79 0 100 -8q49 -19 58 -69.5t-31 -84.5q-10 -8 -44.5 -28.5t-47.5 -24.5q-79 -23 -215 -49q-3 -28 -13.5 -103.5
t-13.5 -116.5q-14 -162 21 -276q30 -88 112 -88q22 0 43 6q26 7 113 49q57 31 152.5 100t130.5 91q91 52 98 55q8 4 26 4q36 0 59 -27t17 -63q-7 -41 -70.5 -107t-113.5 -100zM469 1536q-24 -18 -51 -18q-45 0 -68 42t10 85q19 23 100.5 101.5t108.5 100.5q110 87 185 121
q20 9 47 2q29 -8 42.5 -34t5 -55t-35.5 -44q-22 -11 -29 -18l-14 -15q-32 -24 -143 -121q-4 -4 -75 -71t-83 -76z" />
    <glyph glyph-name="Ecircumflex" unicode="&#xca;" horiz-adv-x="1124" 
d="M934 174q-269 -190 -469 -190q-102 0 -191.5 55.5t-130.5 144.5q-54 116 -61 260t27 267h-3q-46 5 -68.5 41t-2.5 77q7 14 45 36.5t61 29.5q19 179 54 330q-39 28 -43.5 73.5t32.5 73.5q2 1 43 25q93 43 237.5 75.5t248.5 32.5q43 0 122.5 -12.5t114.5 -24.5
q54 -19 59 -74.5t-44 -84.5q-8 -5 -99.5 -29.5t-105.5 -24.5q-155 -20 -369 -38q0 -24 -9.5 -124.5t-14.5 -125.5q14 4 44.5 14t49 15.5t44.5 11t48 6.5q79 0 100 -8q49 -19 58 -69.5t-31 -84.5q-10 -8 -44.5 -28.5t-47.5 -24.5q-79 -23 -215 -49q-3 -28 -13.5 -103.5
t-13.5 -116.5q-14 -162 21 -276q30 -88 112 -88q22 0 43 6q26 7 113 49q57 31 152.5 100t130.5 91q91 52 98 55q8 4 26 4q36 0 59 -27t17 -63q-7 -41 -70.5 -107t-113.5 -100zM772 1649q-7 -25 -27.5 -39.5t-46.5 -14.5q-21 0 -51 15q-32 19 -84 84q-10 16 -31.5 45
t-31.5 45q-180 -154 -207 -172q-18 -12 -47 -8q-41 3 -57 45t12 71q27 27 130.5 118t131.5 112q22 16 51 16q21 0 41 -10q10 -5 26.5 -21.5t37 -40.5t36 -43t34.5 -43t22 -28q30 -41 39 -47q17 -13 23 -38t-1 -46z" />
    <glyph glyph-name="Edieresis" unicode="&#xcb;" horiz-adv-x="1124" 
d="M934 174q-269 -190 -469 -190q-102 0 -191.5 55.5t-130.5 144.5q-54 116 -61 260t27 267h-3q-46 5 -68.5 41t-2.5 77q7 14 45 36.5t61 29.5q19 179 54 330q-39 28 -43.5 73.5t32.5 73.5q2 1 43 25q93 43 237.5 75.5t248.5 32.5q43 0 122.5 -12.5t114.5 -24.5
q54 -19 59 -74.5t-44 -84.5q-8 -5 -99.5 -29.5t-105.5 -24.5q-155 -20 -369 -38q0 -24 -9.5 -124.5t-14.5 -125.5q14 4 44.5 14t49 15.5t44.5 11t48 6.5q79 0 100 -8q49 -19 58 -69.5t-31 -84.5q-10 -8 -44.5 -28.5t-47.5 -24.5q-79 -23 -215 -49q-3 -28 -13.5 -103.5
t-13.5 -116.5q-14 -162 21 -276q30 -88 112 -88q22 0 43 6q26 7 113 49q57 31 152.5 100t130.5 91q91 52 98 55q8 4 26 4q36 0 59 -27t17 -63q-7 -41 -70.5 -107t-113.5 -100zM346 1618q-36 -9 -72 16q-32 22 -34 58.5t23 65t63 28.5q53 0 61 -2q35 -13 45 -27
q21 -29 15 -65.5t-37 -51.5q-38 -15 -64 -22zM649 1630q-32 -8 -60.5 4.5t-37.5 42.5q-9 36 8.5 67t52.5 34q33 4 47 -2q33 -16 44 -47.5t-4 -60t-50 -38.5z" />
    <glyph glyph-name="Igrave" unicode="&#xcc;" horiz-adv-x="462" 
d="M332 1661q3 -36 -20 -61t-56 -25q-26 0 -47 18q-24 20 -90 97q-50 50 -72 63q-12 -6 -27 -6q-31 0 -54 25t-23 59q0 33 27 56.5t63 23.5q42 0 83.5 -19t77.5 -53.5t61.5 -64.5t53.5 -70q21 -25 23 -43zM383 61q-14 -56 -38 -85t-75 -29q-111 0 -153 139q-12 40 -21 137
q-24 201 -20 580q0 67 9.5 228.5t20.5 203.5q14 59 42 93t83 34q56 0 86 -46t35 -108q8 -66 13.5 -146.5t7.5 -132t4.5 -152.5t3.5 -136q12 -261 10 -391q0 -10 1.5 -57t-0.5 -75.5t-9 -56.5z" />
    <glyph glyph-name="Iacute" unicode="&#xcd;" horiz-adv-x="462" 
d="M156 1524q-26 -29 -60 -29q-45 0 -66.5 40.5t11.5 84.5q60 82 162 192.5t155 135.5q32 14 74 14h14q30 -3 47 -27t15 -55q-3 -27 -26 -44t-52 -17q-18 -15 -76.5 -78.5t-122 -133.5t-75.5 -83zM383 61q-9 -29 -16 -45.5t-20 -34.5t-32.5 -26t-46.5 -8q-111 0 -153 139
q-12 40 -21 137q-5 40 -8.5 80t-5.5 88.5t-3.5 77.5t-2 88t-0.5 77.5v88v80.5q11 356 30 432q14 59 42 93t83 34q56 0 85 -44.5t38 -109.5q9 -85 14 -174t9 -219t6 -174q9 -305 8 -391q0 -16 2 -59t0.5 -73t-8.5 -57z" />
    <glyph glyph-name="Icircumflex" unicode="&#xce;" horiz-adv-x="466" 
d="M434 1503q-8 -4 -24 -4q-28 0 -58.5 21t-50.5 49q-16 23 -26.5 52t-20.5 68.5t-16 57.5q-3 -2 -106 -81.5t-120 -94.5q-22 -19 -47 -19q-42 0 -64 39.5t9 79.5q10 12 67 58q7 6 47 39.5t72.5 60.5t69.5 53t55 31q38 8 58 4q31 -7 51 -27q23 -22 39.5 -54t32.5 -74.5
t28 -65.5q30 -50 49 -88q13 -30 -1 -60.5t-44 -44.5zM385 61q-14 -56 -38 -85t-75 -29q-60 0 -95.5 37t-59.5 102q-5 20 -8.5 41.5t-7.5 54t-5 41.5q-22 211 -18 580q0 64 9.5 227t18.5 205q14 59 42 93t83 34q57 0 87.5 -46t35.5 -108q8 -66 13.5 -146.5t7.5 -132
t4.5 -152.5t3.5 -136q10 -218 10 -391q-1 -20 0.5 -60t0 -71t-8.5 -58z" />
    <glyph glyph-name="Idieresis" unicode="&#xcf;" horiz-adv-x="462" 
d="M147 1659q-3 -37 -29 -59.5t-61 -22.5q-31 0 -55 18q-31 22 -31 60t29 61q22 19 53 19q38 3 67.5 -19t26.5 -57zM453 1589q-39 -10 -45 -8q-46 3 -67 41.5t5 75.5q13 19 37 26q12 3 40 4.5t40 -2.5q24 -9 36.5 -29.5t10.5 -41.5t-17 -40.5t-40 -25.5zM383 61
q-9 -29 -16 -45.5t-20 -34.5t-32.5 -26t-46.5 -8q-111 0 -153 139q-6 20 -9.5 42t-6.5 52.5t-5 42.5q-5 40 -8.5 80t-5.5 88.5t-3.5 77.5t-2 88t-0.5 77.5v88v80.5q11 356 30 432q14 59 42 93t83 34q56 0 85 -44.5t38 -109.5q9 -85 14 -174t9 -219t6 -174q9 -305 8 -391
q0 -16 2 -59t0.5 -73t-8.5 -57z" />
    <glyph glyph-name="Eth" unicode="&#xd0;" horiz-adv-x="1255" 
d="M453 41q-93 -37 -144 -37q-37 0 -80 21q-38 19 -45 66t25 79q-41 41 -51 80q-38 119 -31 321h-51q-30 1 -47.5 25.5t-14.5 56.5q2 21 20.5 40t39.5 20q20 2 59 2q9 155 41 413q0 1 1 3.5t1 3.5q-26 31 -20 70t39 61q92 65 230.5 98t268.5 33q175 0 313 -75.5t195 -229.5
q48 -130 23 -267q-23 -119 -95 -231q-97 -153 -298.5 -315t-378.5 -238zM358 582q0 -12 1 -88.5t1.5 -130.5t-0.5 -87q85 63 150 115.5t143 123.5t139.5 146.5t102.5 151.5q46 87 25 170q-40 162 -359 162q-91 0 -213 -21q12 -87 13.5 -200.5t-1.5 -202.5q26 1 76 7.5
t68 8.5q28 3 47.5 -15t24 -42t-7.5 -47.5t-40 -30.5q-64 -16 -170 -20z" />
    <glyph glyph-name="Ntilde" unicode="&#xd1;" horiz-adv-x="1169" 
d="M805 1528q-18 -69 -66 -115.5t-114 -46.5q-48 0 -84 23q-22 13 -42 31t-48 48t-37 39q-2 3 -4 -3q-3 -11 -4 -13q-3 -6 -7 -11.5t-12 -12.5t-10 -9q-22 -28 -60 -28q-33 0 -57.5 25.5t-21.5 62.5q6 79 59.5 143.5t128.5 64.5q68 0 115 -47q7 -6 50 -55t50 -55q12 8 30 30
t31 29q15 10 37 10q27 0 47.5 -17t24.5 -44q5 -20 -6 -49zM1006 53q-22 -48 -60 -80t-86 -32q-57 0 -110.5 44t-90.5 109q-9 18 -18 27q-33 71 -158 374t-211 457q-25 -63 -32 -159q-7 -67 -7 -287q0 -36 5 -177t8 -173q0 -1 6 -13q21 -32 4 -67q-20 -41 -63 -41
q-29 0 -53.5 21.5t-30.5 56.5q-4 18 -10.5 87.5t-13.5 153t-7 88.5q-23 263 -17 408q2 38 4 68t8.5 74.5t16 78.5t26 71.5t38.5 61.5t54.5 40t72.5 16q48 0 99.5 -33.5t94.5 -80.5t91.5 -123.5t81 -136t72.5 -146t57 -125.5t42 -101q25 362 10 614q0 4 -2.5 29.5t-2 30
t2.5 29.5q8 49 40.5 81.5t80.5 32.5q46 0 79 -24.5t49 -65.5t22.5 -79.5t7.5 -82.5q6 -122 -10 -364q-17 -307 -60 -535q-26 -115 -30 -127z" />
    <glyph glyph-name="Ograve" unicode="&#xd2;" horiz-adv-x="1058" 
d="M688 1657q25 -46 -1 -88.5t-73 -42.5q-24 0 -45 12t-40 28.5t-45.5 45.5t-34.5 37q-5 6 -29.5 32.5t-43 47t-36.5 45t-21 38.5q-7 43 24.5 74.5t74.5 24.5q50 -8 150 -107.5t120 -146.5zM1024 639q-6 -66 -30 -145.5t-62 -161.5t-91 -159t-112.5 -137t-131 -96
t-142.5 -36q-78 0 -144.5 34.5t-111.5 90t-79 128t-51.5 144t-23.5 143.5q-18 217 39 435q62 229 160 368q52 77 121.5 132t144.5 55q32 0 76 -23q15 -8 38.5 -29.5t32.5 -27.5q21 -15 26 -42t-7 -50q106 -37 190 -126t125 -198q47 -126 33 -299zM371 432q19 -297 112 -297
q49 0 107 47.5t105 115t82.5 134t47.5 109.5q46 146 21 268q-12 69 -56.5 133t-107.5 109q-134 84 -137 86q-13 9 -25 32q-70 -129 -112 -350q-42 -215 -37 -387z" />
    <glyph glyph-name="Oacute" unicode="&#xd3;" horiz-adv-x="1058" 
d="M1024 639q-6 -66 -30 -145.5t-62 -161.5t-91 -159t-112.5 -137t-131 -96t-142.5 -36q-78 0 -144.5 34.5t-111.5 90t-79 128t-51.5 144t-23.5 143.5q-18 217 39 435q62 229 160 368q52 77 121.5 132t144.5 55q32 0 76 -23q15 -8 38.5 -29.5t32.5 -27.5q21 -15 26 -42
t-7 -50q106 -37 190 -126t125 -198q47 -126 33 -299zM526 1597q-39 -9 -70.5 12.5t-31.5 59.5q0 50 87.5 147t145.5 138l58 28q20 9 45 5q38 -11 50.5 -48.5t-13.5 -68.5q-7 -9 -39 -27q-33 -18 -131 -141q-2 -2 -26 -31.5t-43.5 -49.5t-31.5 -24zM371 432q19 -297 112 -297
q49 0 107 47.5t105 115t82.5 134t47.5 109.5q46 146 21 268q-12 69 -56.5 133t-107.5 109q-134 84 -137 86q-13 9 -25 32q-70 -129 -112 -350q-42 -215 -37 -387z" />
    <glyph glyph-name="Ocircumflex" unicode="&#xd4;" horiz-adv-x="1058" 
d="M348 1583q-41 -37 -78 -37q-43 4 -59 44.5t10 74.5q1 2 87 120.5t112 135.5q28 20 53 25q34 3 62 -9q33 -12 113 -68t104 -83q55 -55 67 -92q15 -43 -10 -80t-68 -37q-23 0 -64 15.5t-65 29.5q-22 13 -42 30t-48 46t-37 37q-11 -13 -32.5 -37.5t-35 -40t-33 -36.5
t-36.5 -38zM1024 639q-6 -66 -30 -145.5t-62 -161.5t-91 -159t-112.5 -137t-131 -96t-142.5 -36q-78 0 -144.5 34.5t-111.5 90t-79 128t-51.5 144t-23.5 143.5q-18 217 39 435q62 229 160 368q52 77 121.5 132t144.5 55q32 0 76 -23q15 -8 38.5 -29.5t32.5 -27.5
q21 -15 26 -42t-7 -50q106 -37 190 -126t125 -198q47 -126 33 -299zM371 432q19 -297 112 -297q49 0 107 47.5t105 115t82.5 134t47.5 109.5q46 146 21 268q-12 69 -56.5 133t-107.5 109q-134 84 -137 86q-13 9 -25 32q-70 -129 -112 -350q-42 -215 -37 -387z" />
    <glyph glyph-name="Otilde" unicode="&#xd5;" horiz-adv-x="1058" 
d="M856 1755q-133 -186 -260 -186q-45 0 -102 33q-19 11 -37 25.5t-45 39.5t-33 31q-5 -4 -18.5 -13.5t-21.5 -18t-11 -19.5q-6 -22 -26 -35t-44 -13q-10 0 -22 3q-36 10 -52 45.5t-2 72.5q21 55 80.5 110.5t112.5 55.5q41 0 80 -22q27 -18 68.5 -58t56.5 -53q16 -16 26 -14
q15 1 45 25.5t47 43.5q2 2 26.5 25t31.5 27q16 8 37 8q47 0 65 -37q8 -18 8 -40t-10 -36zM1024 639q-6 -66 -30 -145.5t-62 -161.5t-91 -159t-112.5 -137t-131 -96t-142.5 -36q-78 0 -144.5 34.5t-111.5 90t-79 128t-51.5 144t-23.5 143.5q-18 217 39 435q62 229 160 368
q52 77 121.5 132t144.5 55q32 0 76 -23q15 -8 38.5 -29.5t32.5 -27.5q21 -15 26 -42t-7 -50q106 -37 190 -126t125 -198q47 -126 33 -299zM371 432q19 -297 112 -297q49 0 107 47.5t105 115t82.5 134t47.5 109.5q46 146 21 268q-12 69 -56.5 133t-107.5 109q-134 84 -137 86
q-13 9 -25 32q-70 -129 -112 -350q-42 -215 -37 -387z" />
    <glyph glyph-name="Odieresis" unicode="&#xd6;" horiz-adv-x="1058" 
d="M395 1655q-50 -35 -80 -35q-28 0 -55.5 18.5t-34.5 44.5q-4 20 -4 33q-1 43 33.5 71.5t77.5 20.5q3 0 18.5 -4t18.5 -6q47 -12 56 -63.5t-30 -79.5zM801 1663q-12 -22 -35.5 -35.5t-48.5 -13.5q-57 0 -82 52.5t12 96.5q34 37 76 37q51 0 79 -41.5t-1 -95.5zM1024 639
q-6 -66 -30 -145.5t-62 -161.5t-91 -159t-112.5 -137t-131 -96t-142.5 -36q-78 0 -144.5 34.5t-111.5 90t-79 128t-51.5 144t-23.5 143.5q-18 217 39 435q62 229 160 368q52 77 121.5 132t144.5 55q32 0 76 -23q15 -8 38.5 -29.5t32.5 -27.5q21 -15 26 -42t-7 -50
q106 -37 190 -126t125 -198q47 -126 33 -299zM371 432q19 -297 112 -297q49 0 107 47.5t105 115t82.5 134t47.5 109.5q46 146 21 268q-12 69 -56.5 133t-107.5 109q-134 84 -137 86q-13 9 -25 32q-70 -129 -112 -350q-42 -215 -37 -387z" />
    <glyph glyph-name="multiply" unicode="&#xd7;" horiz-adv-x="950" 
d="M207 217q-53 -45 -92 -45q-44 0 -67.5 43t1.5 80q27 39 111 123q12 12 102 100t103 100l-203 203q-21 25 -27 53q-5 26 10 60q10 22 41.5 35t59.5 10q23 -4 38.5 -21t18.5 -40q117 -69 215 -154q156 146 236 193q53 32 86 32q35 0 56 -25.5t16 -57.5t-35 -50
q-6 -3 -39 -14q-7 -3 -36 -29t-34 -29l-133 -133q84 -94 186 -260q34 -54 16 -116t-77 -62q-29 0 -60.5 16t-50.5 39q-5 6 -82.5 107t-91.5 117q-190 -201 -268 -275z" />
    <glyph glyph-name="Oslash" unicode="&#xd8;" horiz-adv-x="1069" 
d="M154 -258q-39 -9 -68.5 16.5t-22.5 63.5q2 14 17.5 50.5t31.5 69t37 73.5t23 46q-107 153 -127 379q-18 218 39 439q62 229 160 368q52 77 121.5 132t144.5 55q28 0 76 -23q15 -8 38.5 -29.5t32.5 -27.5q21 -15 26 -42t-7 -50q34 -11 92 -43q44 93 59 149q15 51 70 51
q46 0 66 -41q10 -23 4 -43q-4 -16 -8.5 -31.5t-11 -33t-11 -29t-14 -32t-13 -28.5t-14.5 -32t-14 -29q76 -90 110 -182q47 -126 33 -299q-7 -80 -39 -177.5t-87 -195.5t-122 -179t-152.5 -132t-170.5 -51q-93 0 -172 51q-18 -34 -47.5 -97t-38.5 -81q-12 -24 -41 -35z
M408 819q-44 -219 -37 -373q251 475 315 601q-5 3 -68.5 43t-72.5 47q-13 9 -25 32q-70 -129 -112 -350zM449 145q13 -10 34 -10q47 0 109 49q72 59 138.5 161.5t94.5 195.5q44 141 21 268q-12 68 -55 131q-186 -366 -377 -733q-1 -2 1.5 -10t2.5 -9q12 -24 31 -43z" />
    <glyph glyph-name="Ugrave" unicode="&#xd9;" horiz-adv-x="1261" 
d="M791 1653q23 -40 -1.5 -79.5t-68.5 -39.5q-19 0 -27 4q-2 1 -71 47q-38 31 -125 127q-4 5 -23 27.5t-36 43.5t-21 29q-13 39 10.5 73t60.5 34q40 0 58 -27q14 -18 51 -51q31 -27 88.5 -84t63.5 -63q33 -28 41 -41zM600 88q-91 -117 -197 -117q-45 0 -79.5 14.5
t-73.5 47.5q-54 47 -90.5 115t-54 152t-24.5 149t-11 153q-7 131 0 330q7 212 41 340q16 59 49.5 98t87.5 39q21 0 45.5 -13.5t38.5 -31.5q58 -67 65 -330q10 -347 13 -420q7 -172 41 -290q31 39 51 71q69 96 153.5 243t137.5 259q24 46 83 181t68 171q20 72 35 111
q2 4 2 10t6 22t14 33t9 21q23 51 84 51q29 0 53.5 -15.5t36.5 -43.5q5 -16 6.5 -52.5t-2.5 -50.5q-3 -11 -8 -106q-32 -399 -15 -752q3 -140 27 -278q9 -48 -29 -95q-37 -43 -104 -43q-39 0 -73 21.5t-56 56.5t-35.5 72t-20.5 74q-16 96 -16 260q-8 -17 -44 -91t-51 -102.5
t-45.5 -85t-58.5 -98t-59 -80.5z" />
    <glyph glyph-name="Uacute" unicode="&#xda;" horiz-adv-x="1261" 
d="M639 1442q-23 -17 -53 -17q-31 0 -55.5 19.5t-28.5 52.5q-8 60 37 123q32 44 74.5 94t104.5 100t103 50q28 0 50.5 -16.5t31.5 -43.5q15 -32 -1.5 -64t-51.5 -38q-79 -83 -129 -162q-49 -74 -82 -98zM600 88q-91 -117 -197 -117q-45 0 -79.5 14.5t-73.5 47.5
q-54 47 -90.5 115t-54 152t-24.5 149t-11 153q-7 131 0 330q7 212 41 340q16 59 49.5 98t87.5 39q21 0 45.5 -13.5t38.5 -31.5q58 -67 65 -330q10 -347 13 -420q7 -172 41 -290q31 39 51 71q69 96 153.5 243t137.5 259q24 46 83 181t68 171q20 72 35 111q2 4 2 10t6 22
t14 33t9 21q23 51 84 51q29 0 53.5 -15.5t36.5 -43.5q5 -16 6.5 -52.5t-2.5 -50.5q-3 -11 -8 -106q-32 -399 -15 -752q3 -140 27 -278q9 -48 -29 -95q-37 -43 -104 -43q-39 0 -73 21.5t-56 56.5t-35.5 72t-20.5 74q-16 96 -16 260q-8 -17 -44 -91t-51 -102.5t-45.5 -85
t-58.5 -98t-59 -80.5z" />
    <glyph glyph-name="Ucircumflex" unicode="&#xdb;" horiz-adv-x="1261" 
d="M422 1542q-6 -2 -17.5 -7t-20.5 -8t-17 -3q-44 0 -66.5 37t-3.5 77q42 70 127.5 141t155.5 85q14 4 41 4q110 0 217 -115q5 -7 14.5 -19t15.5 -20t15 -18t18 -17q25 -22 28 -53t-15.5 -56t-51.5 -32q-31 -5 -67 4q-42 15 -90 66q-10 11 -30.5 36.5t-33.5 38.5
q-36 -18 -135 -84q-3 -2 -22.5 -16t-37.5 -26t-24 -15zM600 88q-91 -117 -197 -117q-45 0 -79.5 14.5t-73.5 47.5q-54 47 -90.5 115t-54 152t-24.5 149t-11 153q-7 131 0 330q7 212 41 340q16 59 49.5 98t87.5 39q21 0 45.5 -13.5t38.5 -31.5q58 -67 65 -330
q10 -347 13 -420q7 -172 41 -290q31 39 51 71q69 96 153.5 243t137.5 259q24 46 83 181t68 171q20 72 35 111q2 4 2 10t6 22t14 33t9 21q23 51 84 51q29 0 53.5 -15.5t36.5 -43.5q5 -16 6.5 -52.5t-2.5 -50.5q-3 -11 -8 -106q-32 -399 -15 -752q3 -140 27 -278
q9 -48 -29 -95q-37 -43 -104 -43q-39 0 -73 21.5t-56 56.5t-35.5 72t-20.5 74q-16 96 -16 260q-8 -17 -44 -91t-51 -102.5t-45.5 -85t-58.5 -98t-59 -80.5z" />
    <glyph glyph-name="Udieresis" unicode="&#xdc;" horiz-adv-x="1261" 
d="M868 1718q43 -16 49.5 -55t-21.5 -73t-73 -38q-53 -4 -75 46.5t12 91.5q29 32 80 32q20 0 28 -4zM586 1587q-24 -35 -46 -52t-57 -17q-38 0 -67.5 27t-32.5 67t21 72t63 36q7 0 22 -1t23 -1q51 0 77 -45t-3 -86zM600 88q-91 -117 -197 -117q-45 0 -79.5 14.5t-73.5 47.5
q-54 47 -90.5 115t-54 152t-24.5 149t-11 153q-7 131 0 330q7 212 41 340q16 59 49.5 98t87.5 39q21 0 45.5 -13.5t38.5 -31.5q58 -67 65 -330q10 -347 13 -420q7 -172 41 -290q31 39 51 71q69 96 153.5 243t137.5 259q24 46 83 181t68 171q20 72 35 111q2 4 2 10t6 22
t14 33t9 21q23 51 84 51q29 0 53.5 -15.5t36.5 -43.5q5 -16 6.5 -52.5t-2.5 -50.5q-3 -11 -8 -106q-32 -399 -15 -752q3 -140 27 -278q9 -48 -29 -95q-37 -43 -104 -43q-39 0 -73 21.5t-56 56.5t-35.5 72t-20.5 74q-16 96 -16 260q-8 -17 -44 -91t-51 -102.5t-45.5 -85
t-58.5 -98t-59 -80.5z" />
    <glyph glyph-name="Yacute" unicode="&#xdd;" horiz-adv-x="1181" 
d="M745 -20q-64 -59 -155 -101.5t-172 -42.5q-85 0 -150.5 30t-130.5 95q-43 37 -28 91t69 59q27 3 113 -9q22 0 67 9q97 11 165.5 66.5t123.5 150.5q-47 -23 -96 -23q-72 0 -144 47.5t-124 114.5q-89 118 -163 302t-91 333q-5 67 -2 86q6 38 33 64t63 26q58 0 94 -49
q4 -6 26.5 -42t26.5 -42q43 -87 133 -293q62 -138 138 -231q2 -2 12.5 -13.5t17.5 -17.5l2 2q166 166 269 436q5 12 24 111t25 114q29 61 63 74q44 19 70 19q25 0 56 -15t46 -35q27 -41 29 -63q3 -36 -14.5 -163t-28.5 -187q-21 -118 -36.5 -194t-47 -190.5t-66.5 -196
t-91.5 -170t-125.5 -152.5zM547 1485q-24 -27 -60 -27q-34 0 -57 25t-20 63q7 64 157 230q1 1 34 31.5t58.5 51.5t38.5 25q8 4 27 4q42 0 62.5 -40.5t-9.5 -75.5q-5 -6 -14.5 -14.5t-11.5 -10.5q-18 -17 -106.5 -134t-98.5 -128z" />
    <glyph glyph-name="Thorn" unicode="&#xde;" horiz-adv-x="878" 
d="M287 127q-18 -6 -41 -6q-40 0 -71 22.5t-49 59t-28 72.5t-14 75q-18 187 -18 500q0 64 8.5 217.5t17.5 194.5q7 25 11.5 37t14.5 28.5t25 23.5t37 7q24 0 46 -13t32 -36q5 -9 8.5 -20t6 -19.5t5 -21.5t4 -20t3 -22.5t1.5 -20t1.5 -22t1.5 -20.5q1 -2 2 -2t5.5 2.5
t6.5 3.5q170 51 279 51q126 0 203 -58.5t77 -183.5q-5 -204 -225 -424q-29 -30 -68.5 -62t-86 -63t-94 -46.5t-81.5 -6.5q0 -16 -1 -45t-1 -45q38 -28 32 -74t-50 -63zM305 522q0 -2 2.5 -2t3.5 2q9 5 49 35q13 12 41.5 38.5t44.5 42t39.5 38.5t43 44t36.5 42
q89 105 101 186q0 35 -4 41q-14 21 -89 21q-124 0 -262 -37q0 -25 -10 -45q1 -67 2 -202.5t2 -203.5z" />
    <glyph glyph-name="germandbls" unicode="&#xdf;" horiz-adv-x="1105" 
d="M225 -350q-23 -39 -69 -39q-47 0 -64 39q-21 48 -31 114q-53 374 -14 668q35 285 176 533q43 79 99 149t126 131.5t155 98t173 36.5q79 0 147.5 -31t112.5 -92q60 -86 39 -213q-10 -65 -39 -130t-75.5 -127t-87 -107t-97.5 -102q89 -47 153.5 -174t49.5 -228
q-7 -51 -39 -91t-78 -63t-95 -34.5t-99 -12.5q-135 0 -168 78q-17 50 13 90.5t79 28.5q18 -6 59 2q89 13 125 27q1 1 2.5 1.5t2.5 1.5t1 3q0 13 -8 41q-20 51 -43 86q-24 39 -47.5 54t-65.5 15q-16 0 -47 -5t-47 -5h-12q-57 9 -85.5 59t-6.5 103q14 37 67 94q58 58 93 95
t83 92.5t83 110t61 110.5q15 44 12 59q0 2 -4 6q-24 15 -51 15q-79 0 -180 -105q-270 -283 -312 -817q-1 -20 -5.5 -131.5t-9.5 -215t-9 -130.5q-1 -5 -6 -25.5t-9.5 -39t-7.5 -23.5z" />
    <glyph glyph-name="agrave" unicode="&#xe0;" horiz-adv-x="1087" 
d="M608 1409q27 -24 28.5 -56.5t-20 -55.5t-53.5 -23q-33 0 -90 44t-100 87q-29 29 -31.5 68.5t27.5 66.5q53 37 77 37q30 0 51.5 -25.5t18.5 -58.5q16 -14 46.5 -42t45.5 -42zM1059 102q-6 -35 -33.5 -56t-62.5 -21q-36 0 -76 12q-39 16 -70 44t-51 68t-33 76.5t-21 88
t-11.5 83.5t-6.5 80q-62 -114 -155 -241t-168 -177q-43 -32 -107 -32q-93 0 -155.5 76.5t-77.5 175.5q-26 191 47 391q24 69 65 137.5t96 130.5t127 100.5t146 38.5q124 0 199 -121q12 41 44 64.5t74 23.5q52 0 87.5 -44.5t35.5 -96.5q0 -10 4 -30.5t5 -28.5
q25 -282 32 -340q16 -130 58 -295q3 -14 6 -54t2 -53zM563 848q-67 -39 -115.5 -130.5t-69 -183.5t-22.5 -176q140 126 293 422q-6 6 -18.5 19.5t-22.5 23.5t-20 17q-18 12 -25 8z" />
    <glyph glyph-name="aacute" unicode="&#xe1;" horiz-adv-x="1087" 
d="M631 1270q-22 -19 -51 -19q-27 0 -49.5 18t-26.5 46q-5 32 22 76q103 145 119 165q57 71 78 89q27 24 65 24q46 0 68.5 -35.5t-6.5 -79.5q-3 -5 -12.5 -12t-12.5 -12q-9 -11 -52 -73t-84.5 -117.5t-57.5 -69.5zM1059 102q-6 -35 -33.5 -56t-62.5 -21q-36 0 -76 12
q-39 16 -70 44t-51 68t-33 76.5t-21 88t-11.5 83.5t-6.5 80q-62 -114 -155 -241t-168 -177q-43 -32 -107 -32q-93 0 -155.5 76.5t-77.5 175.5q-26 191 47 391q24 69 65 137.5t96 130.5t127 100.5t146 38.5q124 0 199 -121q12 41 44 64.5t74 23.5q52 0 87.5 -44.5t35.5 -96.5
q0 -10 4 -30.5t5 -28.5q25 -282 32 -340q16 -130 58 -295q3 -14 6 -54t2 -53zM563 848q-67 -39 -115.5 -130.5t-69 -183.5t-22.5 -176q140 126 293 422q-6 6 -18.5 19.5t-22.5 23.5t-20 17q-18 12 -25 8z" />
    <glyph glyph-name="acircumflex" unicode="&#xe2;" horiz-adv-x="1087" 
d="M877 1243q9 -36 -17 -65t-61 -29q-49 0 -111 84q-9 10 -33 41.5t-39 46.5q-21 14 -24 14q-26 0 -114.5 -80t-106.5 -86q-12 -6 -27 -6q-31 0 -54 25.5t-20 58.5q1 12 7.5 25t13 20.5t20.5 21.5l19 19q67 73 132 117.5t138 44.5q62 0 109.5 -33t91.5 -92q15 -22 43 -67
t33 -60zM1059 102q-6 -35 -33.5 -56t-62.5 -21q-36 0 -76 12q-39 16 -70 44t-51 68t-33 76.5t-21 88t-11.5 83.5t-6.5 80q-62 -114 -155 -241t-168 -177q-43 -32 -107 -32q-93 0 -155.5 76.5t-77.5 175.5q-26 191 47 391q24 69 65 137.5t96 130.5t127 100.5t146 38.5
q124 0 199 -121q12 41 44 64.5t74 23.5q52 0 87.5 -44.5t35.5 -96.5q0 -10 4 -30.5t5 -28.5q25 -282 32 -340q16 -130 58 -295q3 -14 6 -54t2 -53zM563 848q-67 -39 -115.5 -130.5t-69 -183.5t-22.5 -176q140 126 293 422q-6 6 -18.5 19.5t-22.5 23.5t-20 17q-18 12 -25 8z
" />
    <glyph glyph-name="atilde" unicode="&#xe3;" horiz-adv-x="1087" 
d="M874 1346q-54 -54 -132.5 -99.5t-139.5 -46.5q-43 0 -96 29q-18 11 -50.5 39t-35.5 30q-14 -34 -53 -41q-43 -10 -58 -8q-23 5 -45 27q-27 36 -15 77t50 72q57 43 115 43q52 0 104 -41q77 -65 84 -67q17 -8 58.5 17t85.5 55t61 32q51 5 76.5 -38t-9.5 -80zM1059 102
q-6 -35 -33.5 -56t-62.5 -21q-36 0 -76 12q-39 16 -70 44t-51 68t-33 76.5t-21 88t-11.5 83.5t-6.5 80q-62 -114 -155 -241t-168 -177q-43 -32 -107 -32q-93 0 -155.5 76.5t-77.5 175.5q-26 191 47 391q24 69 65 137.5t96 130.5t127 100.5t146 38.5q124 0 199 -121
q12 41 44 64.5t74 23.5q52 0 87.5 -44.5t35.5 -96.5q0 -10 4 -30.5t5 -28.5q25 -282 32 -340q16 -130 58 -295q3 -14 6 -54t2 -53zM563 848q-67 -39 -115.5 -130.5t-69 -183.5t-22.5 -176q140 126 293 422q-6 6 -18.5 19.5t-22.5 23.5t-20 17q-18 12 -25 8z" />
    <glyph glyph-name="adieresis" unicode="&#xe4;" horiz-adv-x="1087" 
d="M541 1233q-21 -24 -52.5 -43t-58.5 -19q-47 0 -70.5 42.5t5.5 86.5q14 19 52 38.5t62 19.5q50 0 72 -42.5t-10 -82.5zM784 1188q-9 -15 -37 -29t-47 -14q-52 0 -73.5 45t8.5 86q21 33 82 33q50 0 73 -40.5t-6 -80.5zM1059 102q-6 -35 -33.5 -56t-62.5 -21q-36 0 -76 12
q-39 16 -70 44t-51 68t-33 76.5t-21 88t-11.5 83.5t-6.5 80q-62 -114 -155 -241t-168 -177q-43 -32 -107 -32q-93 0 -155.5 76.5t-77.5 175.5q-26 191 47 391q24 69 65 137.5t96 130.5t127 100.5t146 38.5q124 0 199 -121q12 41 44 64.5t74 23.5q52 0 87.5 -44.5t35.5 -96.5
q0 -10 4 -30.5t5 -28.5q25 -282 32 -340q16 -130 58 -295q3 -14 6 -54t2 -53zM563 848q-67 -39 -115.5 -130.5t-69 -183.5t-22.5 -176q140 126 293 422q-6 6 -18.5 19.5t-22.5 23.5t-20 17q-18 12 -25 8z" />
    <glyph glyph-name="aring" unicode="&#xe5;" horiz-adv-x="1083" 
d="M1057 102q-6 -35 -33.5 -56t-62.5 -21q-36 0 -76 12q-39 16 -70 44t-51 68t-33 76.5t-21 88t-11.5 83.5t-6.5 80q-62 -114 -155 -241t-168 -177q-43 -32 -107 -32q-93 0 -155.5 76.5t-77.5 175.5q-26 191 47 391q43 126 132 236t202 153q2 0 15 4t24.5 7t15.5 3
q-57 34 -72 113q-11 62 0.5 125.5t44.5 111.5q34 49 76 68q19 8 45 8t72 -12q14 -2 35 -23q31 9 63 -12q15 -11 39.5 -47t28.5 -55q14 -44 6 -80q-11 -50 -58 -101q-89 -85 -163 -104q48 -23 71 -39q25 -22 56 -70q12 41 44 64.5t74 23.5q52 0 87.5 -44.5t35.5 -96.5
q0 -10 3.5 -31t4.5 -28q22 -252 33 -340q16 -130 58 -295q3 -14 6 -54t2 -53zM573 1348q-39 -64 -26 -140q62 21 104 76q13 13 13 19q-1 6 -16.5 26.5t-16.5 22.5q-25 -6 -51 0q-1 1 -4 -0.5t-3 -3.5zM561 848q-67 -39 -115.5 -130.5t-69 -183.5t-22.5 -176q140 126 293 422
q-6 6 -18.5 19.5t-22.5 23.5t-20 17q-18 12 -25 8z" />
    <glyph glyph-name="ae" unicode="&#xe6;" horiz-adv-x="1497" 
d="M543 219q-34 -46 -56 -73t-60 -64t-79.5 -55.5t-85.5 -18.5q-53 0 -103.5 34.5t-78.5 84.5q-67 125 -45 332q21 183 121 348q59 100 156 174t198 74q134 0 205 -115q12 40 42.5 62t67.5 22q35 0 66.5 -19.5t48.5 -56.5q107 66 195 66q54 0 100 -26t74 -73q46 -79 24 -192
q-24 -99 -88.5 -211t-138.5 -147q87 -46 192 -52q8 0 28 0.5t31 0.5t27 -1.5t29 -5.5q20 -4 37 -21.5t27 -39.5q19 -39 -2.5 -81t-65.5 -63q-74 -36 -129 -53.5t-119 -17.5q-171 0 -310 110t-177 275q-18 -31 -37.5 -61t-52 -76t-41.5 -60zM563 825q-65 -34 -113 -127
t-68.5 -186.5t-21.5 -171.5q86 80 155 184.5t138 239.5q-9 7 -24 23t-27.5 26.5t-26.5 15.5q-2 1 -12 -4zM971 496q2 -7 14 -7q43 0 62 17q24 23 60.5 98t47.5 113q14 59 2 98q-21 -7 -31 -12q-77 -46 -128 -138.5t-27 -168.5z" />
    <glyph glyph-name="ccedilla" unicode="&#xe7;" horiz-adv-x="958" 
d="M561 -299q-26 -29 -95 -63.5t-106 -34.5q-14 0 -20 2q-27 8 -40 34.5t-5.5 55t33.5 41.5q90 37 116 53q-20 30 -53 37q-12 3 -38 6t-38 6q-29 9 -47 34.5t-16 55.5q2 49 47 113q-130 9 -203 77.5t-73 198.5q0 132 65 275q28 60 58 115.5t78.5 126.5t97 122.5t110.5 87
t123 35.5q107 0 174.5 -79t67.5 -187q1 -10 -3.5 -37.5t-9.5 -36.5q-19 -34 -61 -34q-31 0 -53 19.5t-21 53.5q2 21 -10 41.5t-31 24.5q-14 2 -39 -29q-29 -31 -67 -94q-163 -246 -172 -391q70 -10 473 12q18 6 55 6q52 0 79 -45.5t1 -89.5q-5 -9 -11.5 -16t-18 -14.5
t-15.5 -10t-21 -11.5t-18 -9q-88 -50 -172 -73.5t-193 -33.5q2 -28 -15 -52t-44 -28q60 -16 110.5 -71t49.5 -113q0 -43 -29 -80z" />
    <glyph glyph-name="egrave" unicode="&#xe8;" horiz-adv-x="847" 
d="M553 1161q-7 -30 -30 -47.5t-52 -17.5q-32 0 -55 20q-12 10 -89 92t-89 92q-7 7 -11 9q-44 10 -60 46t3 71t63 42q28 6 56 0q76 -14 150 -93.5t112 -162.5q9 -22 2 -51zM604 25q-53 -11 -88 -11q-150 0 -284 91.5t-185 230.5q-34 85 -20 201q10 99 81 206.5t176 180.5
t203 73q56 0 102.5 -25.5t74.5 -72.5q46 -79 24 -192q-33 -134 -123 -265q-56 -72 -104 -94q85 -44 192 -51q8 0 28 0.5t31 0.5t27 -1.5t29 -5.5q39 -8 63 -62q19 -39 -2 -80.5t-65 -62.5q-105 -51 -160 -61zM326 479q3 -6 14 -6q44 0 61 19q24 21 61 95.5t48 112.5
q15 60 2 99q-15 -5 -31 -13q-77 -46 -128 -138.5t-27 -168.5z" />
    <glyph glyph-name="eacute" unicode="&#xe9;" horiz-adv-x="847" 
d="M317 1155q-15 -10 -38 -10q-38 0 -62.5 31.5t-9.5 70.5q8 23 70.5 90t133.5 127.5t97 61.5q3 0 27 12q15 6 28 6q36 0 58.5 -34t5.5 -70q-10 -22 -31 -33q-8 -3 -21.5 -14t-29.5 -27l-29 -29l-28 -28l-17 -17q-119 -119 -154 -137zM604 25q-53 -11 -88 -11
q-150 0 -284 91.5t-185 230.5q-34 85 -20 201q10 99 81 206.5t176 180.5t203 73q56 0 102.5 -25.5t74.5 -72.5q46 -79 24 -192q-33 -134 -123 -265q-56 -72 -104 -94q85 -44 192 -51q8 0 28 0.5t31 0.5t27 -1.5t29 -5.5q39 -8 63 -62q19 -39 -2 -80.5t-65 -62.5
q-105 -51 -160 -61zM326 479q3 -6 14 -6q44 0 61 19q24 21 61 95.5t48 112.5q15 60 2 99q-15 -5 -31 -13q-77 -46 -128 -138.5t-27 -168.5z" />
    <glyph glyph-name="ecircumflex" unicode="&#xea;" horiz-adv-x="866" 
d="M174 1149q-20 -10 -41 -10q-33 0 -56 23t-20 57q3 25 32.5 60t55.5 50q6 3 24 18t39 33.5t23 20.5q134 108 240 108q81 0 166 -74.5t125 -156.5q18 -39 -8 -76t-68 -37q-31 0 -77 37t-83 76q-2 2 -12.5 13t-17.5 17.5t-17 15t-19 13t-16 4.5q-38 0 -206 -145
q-5 -3 -32 -23.5t-32 -23.5zM614 25q-53 -11 -88 -11q-150 0 -284 91.5t-185 230.5q-34 85 -20 201q10 99 81 206.5t176.5 180.5t203.5 73q56 0 102 -25.5t74 -72.5q46 -79 24 -192q-33 -134 -123 -265q-56 -72 -104 -94q85 -44 193 -51q8 0 28 0.5t30.5 0.5t26.5 -1.5
t29 -5.5q40 -8 64 -62q19 -39 -2.5 -80t-65.5 -63q-105 -51 -160 -61zM336 479q3 -6 14 -6q45 0 62 19q24 21 60.5 95.5t47.5 112.5q15 60 2 99q-12 -4 -30 -13q-77 -46 -128.5 -138.5t-27.5 -168.5z" />
    <glyph glyph-name="edieresis" unicode="&#xeb;" horiz-adv-x="856" 
d="M301 1247q-17 -34 -34 -48.5t-50 -14.5q-13 0 -33 4q-31 9 -44.5 40t-4.5 64q7 27 39 47.5t62 20.5q41 0 63 -36.5t2 -76.5zM639 1210q-25 -22 -59 -22q-50 0 -72.5 48.5t18.5 92.5q11 11 33 19t41 8q44 -5 66.5 -42.5t-2.5 -72.5q-24 -31 -25 -31zM608 25
q-53 -11 -88 -11q-150 0 -284 91.5t-185 230.5q-34 85 -20 201q10 99 81 206.5t176.5 180.5t203.5 73q56 0 102 -25.5t74 -72.5q46 -79 24 -192q-33 -134 -123 -265q-56 -72 -104 -94q85 -44 192 -51q8 0 28 0.5t31 0.5t27 -1.5t29 -5.5q40 -8 64 -62q19 -39 -2.5 -80
t-65.5 -63q-105 -51 -160 -61zM330 479q3 -6 14 -6q45 0 62 19q24 21 60.5 95.5t47.5 112.5q15 60 2 99q-15 -5 -31 -13q-77 -46 -128 -138.5t-27 -168.5z" />
    <glyph glyph-name="igrave" unicode="&#xec;" horiz-adv-x="460" 
d="M377 1192q-3 -33 -27 -54.5t-55 -21.5q-39 0 -101.5 58.5t-103.5 111.5q-14 14 -53 66q-21 34 -19 55q3 39 33.5 63.5t67.5 14.5q97 -27 246 -246q16 -19 12 -47zM381 61q-33 -47 -86 -47q-62 0 -107.5 54.5t-54.5 128.5q-39 271 -16 479q15 116 49 186q4 10 15 38
t21 46.5t25 32.5q20 20 52 20q26 0 49.5 -16.5t33.5 -44.5q6 -5 4.5 -45t-1.5 -47q2 -32 4 -96t4 -97q4 -83 18.5 -238t18.5 -225q2 -22 -8 -67.5t-21 -61.5z" />
    <glyph glyph-name="iacute" unicode="&#xed;" horiz-adv-x="462" 
d="M180 1133q-18 -18 -45 -21q-44 -3 -70 30.5t-14 76.5q10 38 111 140.5t137 119.5q32 18 66 18q14 0 20 -2q35 -6 49.5 -33.5t5 -59.5t-40.5 -50q-12 -15 -58.5 -61t-101 -99.5t-59.5 -58.5zM334 61q-33 -47 -86 -47q-62 0 -107.5 54.5t-54.5 128.5q-41 280 -16 479
q15 115 47 186q6 12 16.5 38.5t21 45.5t25.5 33q20 20 51 20q27 0 50.5 -17t33.5 -44q5 -7 3 -45t-1 -47q2 -35 7 -193q5 -89 20 -254t18 -209q2 -22 -7.5 -67.5t-20.5 -61.5z" />
    <glyph glyph-name="icircumflex" unicode="&#xee;" horiz-adv-x="593" 
d="M526 1122q-32 -11 -53 0q-83 37 -121 74t-76 119q-53 -71 -69 -90q-23 -28 -35.5 -41.5t-39 -30t-50.5 -16.5q-37 0 -61 29t-15 65q8 28 25 39q14 9 25.5 22.5t25.5 35.5t20 30q24 31 66.5 90t50.5 70q18 27 29 36q23 17 53 17q62 0 86 -55q8 -17 27.5 -60t36 -73.5
t34.5 -57.5q30 -45 43 -55q3 -2 12.5 -10t14 -12.5t10.5 -12.5t8 -16q8 -32 -4.5 -61t-42.5 -36zM440 61q-17 -26 -36 -36.5t-50 -10.5q-62 0 -107 54.5t-54 128.5q-38 298 -15 479q9 72 40.5 169t68.5 134q20 20 51 20q27 0 50.5 -17t33.5 -44q4 -13 4.5 -28t-1 -35
t-1.5 -29q2 -32 4 -96t4 -97q4 -83 18.5 -238t18.5 -225q2 -22 -8 -67.5t-21 -61.5z" />
    <glyph glyph-name="idieresis" unicode="&#xef;" horiz-adv-x="555" 
d="M223 1298q-6 -39 -45.5 -74.5t-77.5 -35.5q-44 0 -70 32.5t-19.5 73t44.5 62.5q71 36 76 37q41 6 70 -24t22 -71zM539 1288q-3 -31 -32 -52.5t-63 -21.5q-32 0 -55 23q-27 25 -30.5 60.5t20.5 62.5q29 29 67 29q18 0 40.5 -12.5t33.5 -26.5q23 -26 19 -62zM406 61
q-33 -47 -87 -47q-62 0 -107 54.5t-54 128.5q-38 296 -17 479q7 65 41 166.5t70 136.5q20 20 51 20q27 0 50.5 -17t33.5 -44q7 -6 4 -45t-2 -47q2 -32 4 -96t4 -97q4 -83 18.5 -238t18.5 -225q2 -22 -7.5 -67.5t-20.5 -61.5z" />
    <glyph glyph-name="eth" unicode="&#xf0;" horiz-adv-x="1019" 
d="M997 668q0 -115 -54.5 -239.5t-141 -224t-203 -164.5t-231.5 -65q-147 0 -234 90.5t-102 241.5q-14 155 65 320q114 244 316 377q45 28 98 28q30 0 51 -8l12 6q12 8 39 12q-76 92 -161 154q-23 -15 -71 -46.5t-71 -47.5l-10 -10q-11 -17 -41 -28t-55 -11q-42 0 -62.5 36
t2.5 74q6 11 27.5 32t42.5 38.5t48.5 40.5t31.5 26q-56 29 -88 56q-24 20 -27 53q-3 40 29.5 65t73.5 17q10 -2 19.5 -4t20.5 -6.5t18 -7t19.5 -9.5t17.5 -9.5t18.5 -11t16.5 -10t18.5 -11.5t16.5 -11q23 16 72.5 44.5t73.5 43.5q32 16 39 17q37 4 61 -17q26 -27 26 -60.5
t-28 -56.5q-20 -15 -98 -79q70 -63 115 -121q24 -29 76 -106.5t61 -102.5q146 -100 153 -305zM375 295q48 -5 108 22q118 58 219 199q37 47 57.5 104.5t14.5 112.5q-7 43 -26 70q-27 48 -97 74q-9 -19 -30 -29.5t-41 -7.5q-176 -266 -209 -398q-18 -83 4 -147z" />
    <glyph glyph-name="ntilde" unicode="&#xf1;" horiz-adv-x="1112" 
d="M831 1284q-21 -56 -107.5 -109t-150.5 -53q-43 0 -88 25q-6 4 -12.5 8.5t-11.5 8.5t-11.5 10.5t-10.5 10t-11 11.5t-9.5 10.5t-10 11.5t-9 11t-9.5 12.5t-9 11.5q-11 -6 -36 -25t-45 -28.5t-40 -9.5q-40 0 -63 32.5t-9 69.5q8 24 53.5 66.5t73.5 58.5q38 23 78 23
q23 0 41 -6q18 -7 35.5 -22t28 -28t28 -36.5t25.5 -32.5q5 -9 14.5 -16.5t16.5 -4.5q19 6 39 16.5t33.5 20t35.5 26t33 23.5q21 14 45 11q38 -3 57.5 -36.5t5.5 -70.5zM383 51q-34 -71 -72.5 -109t-105.5 -38q-44 0 -76.5 17.5t-51 47.5t-27.5 64.5t-11 75.5q-3 70 13 320
t28 321q25 152 53 180l15 13q14 13 22 18q24 14 51 14q31 0 62.5 -25t40.5 -55q30 -94 38 -305q263 430 424 430q48 0 91 -27t65 -71q1 -3 9 -20.5t14.5 -33.5t7.5 -20q16 -48 26 -98q20 -71 51.5 -281t28.5 -274q0 -4 -1.5 -20t-2.5 -22t-3 -20t-4.5 -22t-6.5 -18.5
t-10 -18.5q-47 -80 -129 -80q-23 0 -39 8q-46 25 -66.5 46.5t-40.5 68.5q-12 25 -25 98t-21 140.5t-17 153t-11 97.5q-164 -220 -319 -555z" />
    <glyph glyph-name="ograve" unicode="&#xf2;" horiz-adv-x="1011" 
d="M678 1298q14 -41 -11.5 -77.5t-68.5 -36.5q-22 0 -64.5 21.5t-58.5 37.5q-87 78 -113 119q-25 35 -18.5 77t43.5 60q15 6 31 6q42 0 59 -26q9 -12 52.5 -42t66.5 -44q17 -12 46.5 -45.5t35.5 -49.5zM924 403q-43 -84 -99.5 -157.5t-127.5 -135.5t-159 -98.5t-180 -36.5
q-146 0 -232.5 90.5t-102.5 241.5q-14 155 65 320q114 245 315 377q45 28 99 28q32 0 53 -8q29 20 74 20q125 0 231 -93t121 -216q29 -163 -57 -332zM367 295q48 -5 108 22q118 58 219 199q37 47 57.5 104.5t14.5 112.5q-7 41 -27 70q-27 48 -96 74q-9 -19 -30 -29.5
t-42 -7.5q-176 -266 -209 -398q-17 -81 5 -147z" />
    <glyph glyph-name="oacute" unicode="&#xf3;" horiz-adv-x="1011" 
d="M535 1186q-32 -25 -66 -25q-36 0 -62 24.5t-27.5 59t28.5 72.5q37 43 146 144t144 114q20 8 70 8q22 -3 39 -20q29 -29 20.5 -67t-45.5 -52q-21 -8 -59 -51q-156 -179 -188 -207zM924 403q-43 -84 -99.5 -157.5t-127.5 -135.5t-159 -98.5t-180 -36.5q-146 0 -232.5 90.5
t-102.5 241.5q-14 155 65 320q114 245 315 377q45 28 99 28q32 0 53 -8q29 20 74 20q125 0 231 -93t121 -216q29 -163 -57 -332zM367 295q48 -5 108 22q118 58 219 199q37 47 57.5 104.5t14.5 112.5q-7 41 -27 70q-27 48 -96 74q-9 -19 -30 -29.5t-42 -7.5
q-176 -266 -209 -398q-17 -81 5 -147z" />
    <glyph glyph-name="ocircumflex" unicode="&#xf4;" horiz-adv-x="1021" 
d="M367 1212q-46 -26 -78 -26t-55 22.5t-23 53.5q0 26 25 59q17 21 40 44.5t39.5 39t45.5 42t42 38.5q104 92 183 92q68 0 121.5 -38.5t107.5 -106.5q5 -5 34 -41t34 -41q25 -21 32 -33q18 -31 8 -66.5t-42 -50.5q-20 -10 -52 -10q-80 0 -149 76q-14 16 -41 52.5t-43 53.5
q-17 -9 -116 -80.5t-113 -79.5zM926 403q-43 -84 -99.5 -157.5t-127.5 -135.5t-159 -98.5t-180 -36.5q-146 0 -232.5 90.5t-102.5 241.5q-14 155 65 320q114 244 316 377q45 28 98 28q32 0 53 -8q29 20 74 20q125 0 231 -93t121 -216q29 -163 -57 -332zM369 295
q48 -5 108 22q118 58 219 199q37 47 57.5 104.5t14.5 112.5q-7 41 -27 70q-27 48 -96 74q-9 -19 -30 -29.5t-42 -7.5q-174 -264 -208 -398q-18 -83 4 -147z" />
    <glyph glyph-name="otilde" unicode="&#xf5;" 
d="M733 1260q-50 -35 -115 -35q-44 0 -108 35q-15 8 -48.5 32.5t-53.5 34.5q-71 -44 -76 -59q-19 -34 -53 -37q-46 -9 -78 26.5t-15 79.5q18 53 93 111.5t133 58.5q54 0 102 -39q87 -78 111 -82q13 0 41 21q2 2 5.5 8t4.5 8q23 50 67 50q40 0 66.5 -38t7.5 -87
q-17 -44 -84 -88zM926 403q-43 -84 -99.5 -157.5t-127.5 -135.5t-159 -98.5t-180 -36.5q-146 0 -232.5 90.5t-102.5 241.5q-14 155 65 320q114 244 316 377q45 28 98 28q32 0 53 -8q29 20 74 20q125 0 231 -93t121 -216q29 -163 -57 -332zM369 295q48 -5 108 22
q118 58 219 199q37 47 57.5 104.5t14.5 112.5q-7 41 -27 70q-27 48 -96 74q-9 -19 -30 -29.5t-42 -7.5q-174 -264 -208 -398q-18 -83 4 -147z" />
    <glyph glyph-name="odieresis" unicode="&#xf6;" 
d="M745 1178q-10 -4 -28 -4q-46 0 -72.5 38.5t-5.5 81.5q15 30 37 41q29 13 61 13q66 0 86 -64q9 -33 -15.5 -63t-62.5 -43zM477 1214q-15 -28 -46.5 -47.5t-63.5 -19.5q-34 0 -59 17.5t-34.5 43.5t-8 53.5t21 50.5t51.5 31q9 3 20 3t25 -1.5t20 -1.5q49 0 74 -43t0 -86z
M926 403q-43 -84 -99.5 -157.5t-127.5 -135.5t-159 -98.5t-180 -36.5q-146 0 -232.5 90.5t-102.5 241.5q-14 155 65 320q114 244 316 377q45 28 98 28q32 0 53 -8q29 20 74 20q125 0 231 -93t121 -216q29 -163 -57 -332zM369 295q48 -5 108 22q118 58 219 199
q37 47 57.5 104.5t14.5 112.5q-7 41 -27 70q-27 48 -96 74q-9 -19 -30 -29.5t-42 -7.5q-174 -264 -208 -398q-18 -83 4 -147z" />
    <glyph glyph-name="divide" unicode="&#xf7;" horiz-adv-x="911" 
d="M516 795q-29 -13 -55 -13q-51 0 -87 34t-36 85q0 44 30.5 75.5t73.5 31.5q28 0 60.5 -13t46.5 -34q30 -41 21 -93t-54 -73zM838 498q-101 -26 -232 -23q-20 1 -232 5t-247 9q-34 4 -53 11q-36 14 -49.5 48t4.5 66q15 31 43 37l15 5t16 5t17 3t17 -2q11 0 15 2
q300 32 448 32q109 0 145 -14q100 -24 121 -45q34 -34 25.5 -80.5t-53.5 -58.5zM522 209q-12 -24 -40 -39.5t-58 -15.5q-19 0 -31 6q-32 11 -49 37t-16.5 54t17.5 54t48 37q24 8 39 8q54 0 83.5 -44t6.5 -97z" />
    <glyph glyph-name="oslash" unicode="&#xf8;" horiz-adv-x="1032" 
d="M68 -252q-21 -27 -56 -27q-27 0 -47.5 17.5t-23.5 46.5q0 29 10 41q20 31 178 244q-54 54 -80 133q-29 107 -15.5 214t62.5 210q114 244 316 377q45 28 98 28q32 0 53 -8q34 20 72 20q68 0 160 -43q72 124 108 136q16 4 25 4q28 0 49.5 -21t21.5 -51q0 -11 -4 -22
t-11.5 -25.5t-10.5 -20.5q-3 -7 -55 -98q53 -68 73 -168q27 -164 -59 -332q-43 -84 -99 -157.5t-126.5 -136t-158 -98.5t-179.5 -36q-53 0 -113 17q-80 -108 -188 -244zM477 674q-34 -58 -53.5 -95.5t-39 -93t-22.5 -104.5q29 39 85 113.5t90 121t80.5 112t82.5 122.5
q-25 18 -49 27q-9 -19 -30 -29.5t-41 -7.5q-6 -10 -51.5 -82.5t-51.5 -83.5zM774 682q-123 -172 -252 -342q87 54 164 152.5t88 189.5z" />
    <glyph glyph-name="ugrave" unicode="&#xf9;" horiz-adv-x="1013" 
d="M561 1137q-25 -20 -67 -9q-10 3 -25 14.5t-33 30.5t-30.5 33t-30 34.5t-19.5 23.5q-12 12 -43.5 47.5t-36.5 44.5q-18 29 -11 62t36 50q19 11 47 11q51 0 72 -35l6 -12q50 -38 96 -91q11 -13 22.5 -28.5t24.5 -34t21 -29.5q18 -30 9 -61.5t-38 -50.5zM1006 43
q-34 -96 -160 -96q-31 0 -66 15t-61 38q-54 40 -90 126.5t-51 172.5q-30 -52 -49.5 -82.5t-51 -71.5t-63.5 -69q-27 -25 -64.5 -40.5t-73.5 -15.5q-86 0 -139 61t-78 155q-30 108 -22 301q8 150 20 225q6 31 11.5 52t17 50t26 46.5t39 30.5t54.5 13q58 0 91 -42t38 -103
q6 -73 6 -218t6 -216q21 28 43.5 64t37.5 61t40.5 70t36.5 65q66 121 153 121q54 0 93.5 -40t52.5 -95q19 -53 44 -176.5t50 -184.5q9 -24 49 -88q1 -1 8.5 -5t8.5 -5q36 -24 43 -51q10 -39 0 -68z" />
    <glyph glyph-name="uacute" unicode="&#xfa;" horiz-adv-x="1013" 
d="M535 1135q-24 -21 -58 -21q-31 0 -55.5 19.5t-28.5 52.5q-9 53 46.5 132.5t115.5 133.5q47 41 78 45q9 3 39.5 -1.5t44.5 -8.5q13 -3 24.5 -14t16.5 -23q20 -41 -6.5 -74t-71.5 -28q-10 -17 -30.5 -55.5t-33.5 -60.5t-35 -50t-46 -47zM1006 43q-34 -96 -160 -96
q-31 0 -66 15t-61 38q-54 40 -90 126.5t-51 172.5q-30 -52 -49.5 -82.5t-51 -71.5t-63.5 -69q-27 -25 -64.5 -40.5t-73.5 -15.5q-86 0 -139 61t-78 155q-30 108 -22 301q8 150 20 225q6 31 11.5 52t17 50t26 46.5t39 30.5t54.5 13q58 0 91 -42t38 -103q6 -73 6 -218t6 -216
q21 28 43.5 64t37.5 61t40.5 70t36.5 65q66 121 153 121q54 0 93.5 -40t52.5 -95q19 -53 44 -176.5t50 -184.5q9 -24 49 -88q1 -1 8.5 -5t8.5 -5q36 -24 43 -51q10 -39 0 -68z" />
    <glyph glyph-name="ucircumflex" unicode="&#xfb;" 
d="M854 1153q6 -42 -22 -73t-70 -31q-49 0 -92 43q-23 24 -65.5 89.5t-74.5 92.5q-12 -6 -71.5 -58.5t-61.5 -54.5q-3 -2 -23.5 -14t-23.5 -14q-41 -37 -80 -25q-34 8 -50.5 37t-4.5 63q10 26 102 144q71 86 142 118q32 13 69 13q84 0 154 -70q51 -51 106 -129t66 -131z
M1008 43q-34 -96 -160 -96q-31 0 -66 15t-61 38q-54 40 -90 126.5t-51 172.5q-30 -52 -49.5 -82.5t-51 -71.5t-63.5 -69q-59 -56 -137 -56q-86 0 -139.5 61t-78.5 155q-30 108 -22 301q8 150 20 225q6 31 11.5 52t17 50t26 46.5t39 30.5t54.5 13q58 0 91 -42t38 -103
q6 -73 6 -218t6 -216q21 28 43.5 64t37.5 61t40.5 70t36.5 65q66 121 153 121q54 0 93.5 -40t52.5 -95q19 -53 44 -176.5t50 -184.5q9 -24 49 -88q1 -1 8.5 -5t8.5 -5q36 -24 43 -51q10 -39 0 -68z" />
    <glyph glyph-name="udieresis" unicode="&#xfc;" 
d="M397 1108q-30 -8 -56.5 3t-40 32t-12 49.5t22.5 52.5q16 17 45 34t50 17q29 0 51.5 -20t23.5 -51q3 -25 -10 -45q-15 -22 -21.5 -31t-22 -22.5t-30.5 -18.5zM717 1108q-24 -21 -53 -21q-47 0 -74 42.5t0 87.5q12 22 39 39.5t51 17.5q26 0 61 -27q28 -19 28 -53.5
t-26 -56.5q-5 -4 -13 -14.5t-13 -14.5zM1008 43q-34 -96 -160 -96q-31 0 -66 15t-61 38q-54 40 -90 126.5t-51 172.5q-30 -52 -49.5 -82.5t-51 -71.5t-63.5 -69q-59 -56 -137 -56q-86 0 -139.5 61t-78.5 155q-30 108 -22 301q8 150 20 225q6 31 11.5 52t17 50t26 46.5
t39 30.5t54.5 13q58 0 91 -42t38 -103q6 -73 6 -218t6 -216q21 28 43.5 64t37.5 61t40.5 70t36.5 65q66 121 153 121q54 0 93.5 -40t52.5 -95q19 -53 44 -176.5t50 -184.5q9 -24 49 -88q1 -1 8.5 -5t8.5 -5q36 -24 43 -51q10 -39 0 -68z" />
    <glyph glyph-name="yacute" unicode="&#xfd;" horiz-adv-x="927" 
d="M442 1180q-15 -6 -28 -6q-37 0 -61.5 28.5t-18.5 65.5q4 19 34 57.5t52 60.5q53 58 122 117.5t109 59.5q25 0 47 -15q24 -17 27.5 -47.5t-14.5 -54.5q-6 -8 -24.5 -19.5t-24.5 -19.5q-3 -4 -29 -32t-29 -32t-23 -27.5t-36 -41t-37 -39.5t-38 -36.5t-28 -18.5zM817 -336
q-9 -26 -32 -41.5t-50 -15.5q-23 0 -41 12q-7 4 -17.5 14t-12.5 11q-52 49 -72 104q-22 58 -35 121t-15.5 137.5t-1.5 123.5t5 136q-73 -122 -80 -131q-6 -7 -20.5 -24.5t-22.5 -26t-21 -20t-26 -17.5q-42 -22 -82 -22q-32 0 -60.5 11.5t-48.5 28t-38.5 45.5t-30 52
t-23.5 59.5t-17 57t-14 55.5q-32 129 -28 311q2 62 14 149t31 115q31 48 63 60q10 4 31 4q58 0 86 -49q20 -41 23 -93q12 -297 51 -454q32 48 104 186q55 106 187 385q19 39 31.5 58t38.5 35t63 16q30 0 63 -21.5t47 -48.5q31 -70 19 -137q-1 -10 -6.5 -76.5t-6.5 -75.5
q-22 -220 -41 -596q0 -13 -6.5 -112.5t-8.5 -159t1 -111.5q7 -33 0 -55z" />
    <glyph glyph-name="thorn" unicode="&#xfe;" horiz-adv-x="905" 
d="M258 -399q-23 -45 -76 -45q-49 0 -83.5 50t-39.5 103q-2 12 -8 80l-6 68q-3 53 7.5 240t24.5 400t15 240q2 27 9.5 222t9.5 223q9 94 26 125q27 49 82 49q56 0 86 -49q28 -44 38.5 -159.5t10.5 -213.5q94 51 205 51q250 0 315 -270q29 -124 -22 -260q-52 -136 -182 -224
t-277 -88q-19 0 -65 4q-2 -19 -12.5 -146.5t-12.5 -145.5q-8 -84 -24 -162q-9 -72 -21 -92zM354 707q-3 -179 -16 -396q99 8 188.5 64t124.5 143q28 70 15 148q-8 51 -32 74.5t-75 23.5t-112 -15t-93 -42z" />
    <glyph glyph-name="ydieresis" unicode="&#xff;" horiz-adv-x="933" 
d="M692 1221q-28 -35 -71 -35q-45 0 -76.5 35t-18.5 82q7 30 32.5 48.5t55.5 18.5q15 0 21 -2q51 -14 70 -60.5t-13 -86.5zM350 1231q-34 -39 -96 -43q-36 -4 -60.5 25t-21.5 67q3 32 30.5 54t61.5 22q13 0 41 -8t35 -15q23 -20 26 -49.5t-16 -52.5zM821 -336
q-9 -26 -32 -41.5t-50 -15.5q-23 0 -41 12q-7 4 -17.5 14t-12.5 11q-52 49 -72 104q-22 58 -35 121t-15.5 137.5t-1.5 123.5t5 136q-73 -122 -80 -131q-6 -7 -20.5 -24.5t-22.5 -26t-21 -20t-26 -17.5q-42 -22 -82 -22q-32 0 -60.5 11.5t-48.5 28t-38.5 45.5t-29.5 51.5
t-23 60t-17 57t-14 55.5q-32 132 -29 311q2 62 14 149t31 115q31 48 63 60q10 4 31 4q58 0 86 -49q20 -41 23 -93q12 -297 51 -454q32 48 104 186q55 106 187 385q19 39 31.5 58t38.5 35t63 16q30 0 63 -21.5t47 -48.5q31 -70 19 -137q-1 -10 -6 -76.5t-6 -75.5
q-22 -220 -41 -596q0 -14 -7 -112.5t-9 -159t1 -111.5q7 -33 0 -55z" />
    <glyph glyph-name="Lslash" unicode="&#x141;" horiz-adv-x="960" 
d="M782 33q-70 -26 -179 -47t-179 -21q-64 3 -117 29q-41 21 -73 64t-50.5 89t-32 108.5t-18.5 104.5t-10 95q-15 -9 -35 -9q-46 0 -65 46q-10 18 -4 43.5t24 37.5l74 50q10 526 110 737q20 43 63.5 72.5t84.5 19.5q97 -31 106 -137q6 -36 4 -109.5t-3.5 -110.5t-7 -110.5
t-7.5 -110.5q41 28 158 101q15 10 39 10q35 0 57 -28t12 -64q-7 -26 -24 -37q-22 -16 -124 -85.5t-128 -86.5q-6 -242 6 -481q50 -4 72 -4q32 0 71 3t61.5 6t74.5 10t65 9q11 1 40.5 9t45.5 8q9 0 25 -4q38 -14 49 -54t-17 -69q-17 -16 -78.5 -45.5t-89.5 -38.5z" />
    <glyph glyph-name="lslash" unicode="&#x142;" horiz-adv-x="700" 
d="M459 -14q-32 -37 -84 -37q-40 0 -80.5 32t-63.5 72q-1 3 -9 19.5t-9 19.5q-28 89 -43 248q-45 -18 -74 -18q-3 0 -8 1t-8 1q-35 6 -55.5 33.5t-14.5 62.5t30.5 58.5t55.5 23.5q19 0 43 -17q4 2 12.5 5.5t12.5 5.5q-2 141 8 338q11 208 35 348q1 13 13.5 65t17.5 66
q17 58 52 96.5t89 38.5q47 0 75 -37.5t31 -87.5q6 -76 9 -168t3 -153t-0.5 -174t-0.5 -158q6 3 36 18.5t56 27t37 11.5q36 0 57.5 -27t15.5 -60t-39 -50q-28 -15 -82 -46t-81 -46q0 -166 8 -330q2 -33 -12.5 -96t-32.5 -86z" />
    <glyph glyph-name="OE" unicode="&#x152;" horiz-adv-x="1888" 
d="M883 223q-34 -53 -63 -93.5t-72.5 -88t-86 -79t-97 -52.5t-111.5 -21q-74 0 -137 31t-107 80t-78 115.5t-53 132.5t-29 135q-31 192 33 473q73 299 233 459q100 100 195 100q32 0 74 -22q15 -8 40 -30t33 -28q20 -15 25 -42t-8 -50q145 -47 252 -201q12 88 30 166
q-39 28 -43 74.5t33 73.5q8 6 24.5 14.5t18.5 9.5q96 44 238 76.5t246 32.5q41 0 125.5 -12.5t115.5 -22.5q34 -13 49 -44.5t5 -64.5t-42 -51q-23 -15 -131 -37q-8 -3 -37 -10.5t-36 -7.5q-143 -19 -367 -39q-5 -88 -25 -250q128 43 185 47q81 0 102 -8q47 -19 56 -69
t-29 -82q-11 -9 -45.5 -30.5t-46.5 -25.5q-90 -25 -217 -49q-3 -36 -13.5 -108.5t-13.5 -108.5q-11 -174 22 -278q18 -56 62 -76q18 -10 49 -10q15 0 43 4q35 9 113 49q55 30 150 98t134 92q90 60 125 60t58.5 -27t17.5 -63q-6 -29 -47 -76q-95 -117 -276.5 -219.5
t-319.5 -102.5q-126 0 -220.5 67.5t-135.5 188.5zM449 131q15 -12 34 -12q93 0 230 186q64 85 102 187t39 204q0 4 -14 4q-47 19 -51 69.5t40 76.5q-27 79 -110 155q-30 28 -98 69t-78 48q-14 11 -25 33q-64 -120 -112 -350q-42 -232 -35 -385q2 -75 21.5 -166t56.5 -119z
" />
    <glyph glyph-name="oe" unicode="&#x153;" horiz-adv-x="1583" 
d="M825 217q-84 -111 -209.5 -186.5t-253.5 -75.5q-94 0 -173 44t-119 126q-64 134 -33 307q26 156 131.5 309t241.5 242q47 29 98 29q32 0 53 -8q27 18 72 18q92 0 177.5 -51t133.5 -131q57 58 129 95.5t144 37.5q58 0 105.5 -26t72.5 -75q46 -77 24 -190
q-20 -96 -85 -208.5t-142 -149.5q104 -52 250 -52q47 0 74 -13.5t49 -53.5q18 -40 -4 -81.5t-66 -62.5q-105 -51 -158 -63q-39 -8 -86 -8q-126 0 -237.5 61t-188.5 166zM371 274q45 -7 108 23q71 34 140.5 101.5t114.5 154.5t36 160q-4 49 -37.5 86t-83.5 57
q-9 -19 -30 -29.5t-41 -7.5q-183 -277 -209 -397q-19 -87 2 -148zM1057 455q2 -6 14 -6q42 -4 62 16q25 23 62.5 98.5t45.5 112.5q14 59 2 98q-21 -7 -31 -12q-77 -46 -128 -138.5t-27 -168.5z" />
    <glyph glyph-name="Scaron" unicode="&#x160;" horiz-adv-x="1089" 
d="M573 1595q-38 -11 -81 -8q-51 7 -121 58q-23 16 -71.5 56.5t-59.5 55.5q-28 41 -8 82t65 41q16 0 31 -6q38 -13 108 -66q57 -45 92 -57q25 13 52 47q11 14 38 51.5t44 55.5q20 26 55 26q29 0 50 -20t21 -51q0 -20 -24 -68q-31 -59 -85.5 -119.5t-105.5 -77.5zM1030 150
q-43 -49 -145.5 -86.5t-200.5 -53.5t-170 -16q-173 0 -285 78q-19 14 -32 35.5t-13 42.5q0 36 24.5 58.5t57.5 22.5q26 0 41 -10q27 -12 94 -12q146 0 328 67q-124 109 -367 302q-140 112 -215 192q-102 109 -127 229q-11 49 -2.5 103t35.5 94q74 117 247.5 200t322.5 83
q152 0 229 -49q16 -9 67.5 -62.5t63.5 -73.5q13 -20 10 -43q-3 -29 -23 -47t-48 -18q-20 0 -33 8q-9 4 -45 42.5t-47 39.5q-26 3 -99 -17.5t-110 -35.5q-53 -18 -124 -69t-106 -93q26 -50 84 -105q66 -65 237 -209.5t253 -232.5q77 -85 102 -129q34 -64 37 -121
q3 -63 -41 -114z" />
    <glyph glyph-name="scaron" unicode="&#x161;" horiz-adv-x="915" 
d="M502 1163q-48 -45 -105 -45q-55 0 -113.5 50.5t-95 114.5t-47.5 116q-6 31 1.5 62.5t29.5 49.5q22 19 55 19q29 0 47 -12q23 -12 32 -36.5t1 -49.5q-2 -5 10 -17q5 -7 44.5 -51t44.5 -51q17 21 75 102q82 113 135 113q41 -3 64 -35.5t6 -67.5t-45 -86q-84 -125 -139 -176
zM799 35q-89 -40 -195.5 -64t-202.5 -24q-149 0 -239 55q-44 25 -88 62.5t-47 68.5q-3 43 23.5 75t66.5 28q88 -8 141 -3q40 3 81 8.5t100 16.5t79 14q-75 65 -215 150q-4 3 -25 16.5t-26.5 17t-24.5 16.5t-26 18t-23.5 17.5t-24.5 20t-21.5 19t-22 21.5t-19 22t-18.5 24
q-25 36 -30 83.5t13 86.5q32 70 104 130.5t158 95t164 34.5q85 0 142 -51q33 -27 60 -75t17 -80q-6 -24 -24.5 -39t-42.5 -15q-27 0 -47 17q-6 4 -18 16.5t-22.5 19.5t-21.5 9q-56 0 -131.5 -34.5t-111.5 -74.5q14 -12 77.5 -51t85.5 -49q9 -5 49 -29t53 -32t46.5 -28.5
t51.5 -33t45 -31.5t48.5 -36.5t42.5 -36.5q78 -70 103 -113q40 -72 15.5 -149.5t-99.5 -112.5z" />
    <glyph glyph-name="Ydieresis" unicode="&#x178;" horiz-adv-x="1181" 
d="M745 -20q-64 -59 -155 -101.5t-172 -42.5q-85 0 -150.5 30t-130.5 95q-43 37 -28 91t69 59q27 3 113 -9q22 0 67 9q97 11 165.5 66.5t123.5 150.5q-47 -23 -96 -23q-72 0 -144 47.5t-124 114.5q-89 118 -163 302t-91 333q-5 67 -2 86q6 38 33 64t63 26q58 0 94 -49
q4 -6 26.5 -42t26.5 -42q43 -87 133 -293q62 -138 138 -231q2 -2 12.5 -13.5t17.5 -17.5l2 2q166 166 269 436q5 12 24 111t25 114q29 61 63 74q44 19 70 19q25 0 56 -15t46 -35q27 -41 29 -63q3 -36 -14.5 -163t-28.5 -187q-21 -118 -36.5 -194t-47 -190.5t-66.5 -196
t-91.5 -170t-125.5 -152.5zM502 1581q-58 -47 -111 -47q-32 0 -61 16q-47 34 -45 93t51 88q19 12 55 12q21 0 56 -7.5t45 -15.5q36 -25 39.5 -67t-29.5 -72zM797 1692q25 -51 -1.5 -99.5t-80.5 -48.5q-13 0 -19 2q-38 7 -59 36.5t-17 66t33 61.5q34 27 70 27q54 0 74 -45z
" />
    <glyph glyph-name="Zcaron" unicode="&#x17d;" horiz-adv-x="1241" 
d="M729 1577q-36 -38 -65.5 -57t-69.5 -19q-32 0 -65 20.5t-64.5 58.5t-50 63.5t-41.5 62.5q-2 4 -11 19.5t-13 22t-12.5 17t-17.5 17.5q-30 27 -27 64t36 61q18 12 39 12q53 0 100 -51q27 -28 74.5 -90.5t72.5 -89.5q56 56 146 182q30 43 69 43q35 -3 58 -29t14 -59
q-9 -30 -14 -41q-12 -24 -73 -103t-85 -104zM711 -53q-74 -6 -148 -6q-94 0 -164 5t-159.5 29t-143.5 68q-60 50 -81 125t5 147q23 68 136 191t194 192q16 8 25 17q69 59 151 135t175 174.5t126 153.5q-39 42 -122.5 59.5t-163.5 17.5q-54 0 -152 -8q-1 0 -57 -9t-66 -9
q-37 0 -59 27t-16.5 61t38.5 53q47 26 167 43t196 17q182 0 309 -62q42 -24 72 -47q58 -55 67 -117q8 -54 -12 -117q-19 -59 -88 -151q-39 -52 -90.5 -113t-82.5 -96t-102.5 -113.5t-89.5 -99.5q-1 -1 -8.5 -13t-9.5 -14q-17 -19 -55 -59t-66.5 -72.5t-52.5 -62.5
q82 -14 324 -23q26 0 242 -15.5t231 -21.5q44 -21 60.5 -63.5t-9.5 -79.5q-28 -45 -90 -63q-242 -64 -430 -80z" />
    <glyph glyph-name="zcaron" unicode="&#x17e;" horiz-adv-x="942" 
d="M885 -35q-255 -78 -445 -78q-199 0 -284 70q-47 40 -67 103.5t-5 125.5q12 44 34.5 96.5t37 79.5t49.5 91q115 213 153 297q35 75 43 118q9 34 5 41q-4 9 -37.5 15t-51.5 6q-58 0 -163 -33q-3 0 -11 -8q-19 -19 -47 -19q-22 0 -45 15q-26 19 -33.5 58.5t11.5 64.5
q34 50 140 99.5t177 59.5q133 11 217 -41q69 -43 111 -125q30 -65 22 -178q-18 -179 -219 -528q-7 -11 -26 -41t-31 -51.5t-21 -42.5q39 -10 80.5 -14.5t102.5 -7t82 -3.5l67 -6q121 0 137 -2q40 -3 61.5 -41.5t4.5 -73.5q-15 -38 -49 -47zM635 1423q-40 -61 -81.5 -92
t-104.5 -31q-86 0 -187 78q-4 3 -25 21t-38 32.5t-37.5 33.5t-34.5 34.5t-18 24.5q-16 32 -6 65t42 45q8 4 33 4q63 0 92 -26q22 -15 25 -43q34 -24 151 -94q23 -17 31 -11q17 17 25 27q20 26 78 131q20 39 61 39q34 0 58 -28.5t14 -67.5q-5 -17 -35 -70.5t-43 -71.5z" />
    <glyph glyph-name="florin" unicode="&#x192;" horiz-adv-x="673" 
d="M494 209q-5 -129 -82.5 -210t-206.5 -81q-41 0 -74 8q-48 8 -87 39.5t-36 71.5q3 33 25 53.5t51 20.5t53 -21q41 -3 92 4q47 8 68 37q24 35 20 94q-3 80 -43 283q-35 223 -43 305q-17 -2 -72.5 -1.5t-70.5 5.5q-24 9 -36.5 29.5t-10.5 42t17 41t40 26.5q6 1 18.5 0
t18.5 0q9 1 84 11q-7 189 53 309q27 53 79 92t108 45q80 4 119 -22q36 -23 61 -62.5t25 -79.5q0 -38 -18 -64t-54 -26q-26 0 -46.5 14.5t-27.5 40.5q-1 6 -9.5 8t-12.5 -1q-33 -18 -41 -43q-25 -68 -25 -203q41 -19 42 -64t-38 -71q7 -116 33 -297q3 -22 9 -66.5t9 -66.5
t7 -67t3.5 -66.5t-1.5 -67.5z" />
    <glyph glyph-name="circumflex" unicode="&#x2c6;" horiz-adv-x="778" 
d="M180 1155q-13 -18 -44 -25.5t-54 0.5q-39 14 -45.5 60.5t18.5 85.5q52 89 136 151t178 62q108 0 239 -98q24 -19 70 -63t55 -62q24 -41 -1 -82t-68 -41q-23 0 -43 14q-170 106 -213 125q-29 14 -48 12q-37 -1 -94.5 -49.5t-85.5 -89.5z" />
    <glyph glyph-name="caron" unicode="&#x2c7;" horiz-adv-x="686" 
d="M541 1169q-60 -63 -135 -63q-45 0 -125 41q-55 31 -168 119q-5 4 -24.5 23t-31.5 28q-26 22 -26.5 54t21.5 54.5t54 22.5q17 0 27 -4q71 -26 182 -98q4 -3 40 -27.5t57 -32.5q22 20 49.5 65t40.5 60q32 35 78 35q8 0 20 -4q33 -12 45 -47t-2 -68q-46 -104 -102 -158z" />
    <glyph glyph-name="tilde" unicode="&#x2dc;" horiz-adv-x="778" 
d="M203 1208q3 -30 -19.5 -52.5t-52.5 -22.5q-31 0 -60 30t-34 62q-6 32 10 61q12 26 55 64q96 86 203 86q58 0 125 -23q4 -1 41.5 -14t58.5 -17q13 0 30 11t39 31.5t24 21.5q22 14 47 14q43 0 65.5 -34.5t-0.5 -75.5q-32 -52 -47 -68q-30 -33 -72 -52.5t-86 -19.5
q-39 0 -108 24.5t-80 27.5q-37 5 -47 4q-37 -5 -92 -41q-2 -2 -2 -5t1 -7t1 -5z" />
    <glyph glyph-name="Germandbls" unicode="&#x1e9e;" horiz-adv-x="1196" 
d="M1149 295q-38 -119 -159 -187.5t-255 -68.5q-76 0 -147 24t-115 74q-8 8 -26 36t-21 38q-12 39 6 63q25 39 70 39q24 0 45 -18q18 -22 26 -27q16 -8 64 -8q44 0 86 6q72 7 127 35q81 44 76 82q-26 76 -136 151t-192 80h-20q-39 -20 -86 -20q-49 1 -81 35.5t-30.5 80.5
t39.5 78q22 20 76.5 33t72.5 23q83 48 163.5 115.5t115.5 132.5q34 58 26 106q-1 8 -12 13.5t-20 5.5q-49 10 -123 -17q-219 -80 -383 -401q-90 -179 -84 -387q1 -35 6 -75t13.5 -87.5t11.5 -75.5q0 -4 8 -12q16 -24 8 -62q-6 -20 -31 -38.5t-47 -18.5q-47 0 -71 49
q-46 88 -73.5 156.5t-39.5 144.5q-29 192 37 400q36 112 106 225t162.5 210t211.5 157.5t239 60.5q72 0 137.5 -24t105.5 -74q45 -47 58 -123q16 -116 -43 -221q-67 -120 -215 -228q75 -30 140.5 -80t112.5 -114.5t64.5 -137.5t-4.5 -149z" />
    <glyph glyph-name="endash" unicode="&#x2013;" horiz-adv-x="954" 
d="M524 403q-115 -8 -346 -4q-25 0 -62.5 5t-49.5 14q-30 21 -36 54t19 58q17 17 29 21q45 11 172 20q116 8 334 20.5t258 14.5q36 0 57 -24q35 -34 21 -79.5t-62 -56.5q-30 -7 -160 -23t-174 -20z" />
    <glyph glyph-name="emdash" unicode="&#x2014;" horiz-adv-x="1820" 
d="M174 371q-16 -5 -53 -3t-51 11q-34 19 -37 56.5t26 62.5q8 6 26 12.5t43 11.5l45 9t45.5 7.5t29.5 4.5q531 94 1009 94q119 -4 275 -31t219 -69q37 -21 39.5 -59t-27 -64t-71.5 -17q-147 22 -158 23q-37 3 -196 7.5t-203 4.5q-184 -1 -525 -26t-420 -29q-2 0 -8.5 -3
t-7.5 -3z" />
    <glyph glyph-name="quoteleft" unicode="&#x2018;" horiz-adv-x="325" 
d="M272 1098q-15 -33 -44.5 -53.5t-65.5 -20.5q-46 0 -79 39t-40.5 94t4.5 113q36 121 115 157q22 10 45 3q38 -9 50.5 -47.5t-13.5 -67.5q-4 -5 -16.5 -14t-16.5 -13q-12 -12 -21 -39q46 -10 72 -39q18 -21 20.5 -53.5t-10.5 -58.5z" />
    <glyph glyph-name="quoteright" unicode="&#x2019;" horiz-adv-x="352" 
d="M256 1051q-7 -17 -25 -27t-38 -10q-33 0 -55.5 25t-16.5 59q2 7 19.5 51t19.5 51q-12 -6 -29 -6q-39 0 -59 27q-40 58 -33 98q4 38 39 59t76 21q66 0 111.5 -41t45.5 -107q2 -76 -55 -200z" />
    <glyph glyph-name="quotesinglbase" unicode="&#x201a;" horiz-adv-x="327" 
d="M205 -221q-22 -37 -64 -37q-40 0 -62 32.5t1 75.5q41 74 49 99q-45 14 -73 52t-25 82t39 71q49 34 102 34q32 0 63 -16.5t44 -44.5q27 -55 16 -141q-2 -14 -6 -28t-7.5 -25.5t-10.5 -27.5t-11 -25t-13.5 -27t-13 -24t-15 -26t-13.5 -24z" />
    <glyph glyph-name="quotedblleft" unicode="&#x201c;" horiz-adv-x="706" 
d="M248 1073q-6 -39 -42.5 -72.5t-76.5 -33.5q-41 0 -62.5 36t-21.5 80q-3 94 21 215q10 53 33.5 99.5t58.5 50.5q37 4 59 -10q29 -17 35 -50t-16 -59q-1 -2 -4.5 -5t-4.5 -5q-18 -69 -30 -145q29 -13 43 -41.5t8 -59.5zM649 1085q-35 -63 -110 -63q-56 0 -85 34t-32 91
q-3 62 22 141q12 40 46 89t63 57q24 9 51 2q32 -9 44 -37.5t0 -58t-42 -40.5q-12 -18 -20 -59q24 -16 49 -41q22 -25 25.5 -56t-11.5 -59z" />
    <glyph glyph-name="quotedblright" unicode="&#x201d;" horiz-adv-x="808" 
d="M696 991q-21 -37 -59 -37q-31 0 -54 23.5t-20 60.5q0 2 12 31q30 93 37 131l-5 -2q-10 -5 -15 -6q-6 -4 -23 -4q-27 0 -47 14q-24 17 -27 46t15 52q14 20 59 44.5t72 29.5q46 6 81.5 -20.5t41.5 -71.5q9 -61 -23 -170q-35 -105 -45 -121zM334 1069q-27 -57 -84 -131
t-98 -74q-32 0 -55 26t-17 60q2 11 20 39q45 58 82 115q-19 5 -59.5 28.5t-52.5 38.5q-29 33 -26.5 77.5t36.5 68.5q48 33 104 33q48 0 90 -25q58 -34 74.5 -113.5t-14.5 -142.5z" />
    <glyph glyph-name="quotedblbase" unicode="&#x201e;" horiz-adv-x="747" 
d="M164 -264q-15 -6 -29 -6q-28 0 -48.5 19.5t-23.5 49.5q-2 13 11 43q42 101 51 135q-64 20 -85.5 92.5t21.5 123.5q44 53 111 53q39 0 70 -21t43 -59q21 -63 2 -154q-15 -91 -88 -245q-12 -21 -35 -31zM616 -242q-12 -49 -63 -49q-50 0 -72 45q-9 20 0 56q3 13 35.5 79.5
t34.5 71.5q-49 11 -74 39q-34 40 -23.5 95.5t54.5 80.5q28 17 65 17q42 0 78.5 -24t53.5 -65q23 -59 2 -135q-16 -61 -86 -190q0 -1 -2.5 -10t-2.5 -11z" />
    <glyph glyph-name="dagger" unicode="&#x2020;" horiz-adv-x="800" 
d="M479 -113q-24 -41 -71 -41q-25 0 -47.5 15.5t-32.5 42.5q-1 2 -5.5 17.5t-5.5 17.5q-25 44 -45 305q-1 52 -0.5 248.5t2.5 246.5q-194 33 -231 49q-36 18 -45 31q-19 22 -18.5 52t20.5 49q16 18 51 40.5t55 22.5q24 0 44 -14t26 -37q70 -4 103 -4q15 281 43 383
q8 26 31 47.5t48 21.5q48 0 70 -43q8 -24 8 -34q-8 -79 0 -242q0 -8 1 -67t1 -68q145 3 271 -8q27 -3 49 -25q31 -31 25.5 -74t-42.5 -65q-11 -6 -24 -9.5t-31 -5.5t-27 -4q-103 -17 -217 -14q1 -77 4 -223.5t4 -223.5t-1 -223q8 -16 10 -26q3 -22 -5 -71t-18 -67z" />
    <glyph glyph-name="daggerdbl" unicode="&#x2021;" horiz-adv-x="884" 
d="M586 33q-10 -29 -34 -44.5t-52 -15.5q-27 0 -49.5 13.5t-37 32.5t-26 50t-17.5 56.5t-10 61.5t-5.5 55t-2.5 47q-62 -6 -125 -6q-61 0 -110 8q-39 6 -62 35t-16 67q6 35 31 57.5t55 22.5q38 0 59 -37q16 1 164 31q2 147 21 385q-153 0 -213 16q-30 7 -48.5 35.5
t-13.5 59.5q7 32 30.5 59t53.5 27q34 0 60 -29q49 8 147 20q11 102 41 287q6 32 27 49t49 17t51.5 -16.5t30.5 -47.5q3 -7 3 -16t-1.5 -19.5t-1.5 -15.5v-217q148 12 211 -33q27 -20 31 -54t-16 -62t-54 -31q-11 -1 -74 -11q-33 -4 -107 -8q-1 -40 -4 -110t-5 -128t-3 -110
q130 29 195 23q54 -5 75.5 -61.5t-16.5 -94.5q-34 -36 -96 -47q-17 -3 -49 -8.5t-59 -9.5t-50 -7q0 -8 3 -68.5t3 -68.5q0 -15 2 -16q20 -22 23.5 -59.5t-8.5 -63.5z" />
    <glyph glyph-name="bullet" unicode="&#x2022;" horiz-adv-x="409" 
d="M301 502q-47 -41 -121 -41q-63 0 -106 37q-44 43 -39 103t51 106q3 43 48 67.5t93 24.5q46 0 83.5 -22.5t51.5 -65.5q17 -53 -0.5 -114t-60.5 -95z" />
    <glyph glyph-name="ellipsis" unicode="&#x2026;" horiz-adv-x="987" 
d="M125 29q-36 -12 -76 24q-23 25 -20.5 59t28.5 56q16 16 74 25q29 8 43 4q35 -9 53.5 -40.5t3.5 -62.5q-16 -32 -34 -41q-35 -15 -72 -24zM580 96q-10 -39 -36 -65.5t-63 -26.5q-41 0 -70 31t-20 76q9 49 58 69q21 8 51 8q18 0 26 -2q26 -7 42.5 -34.5t11.5 -55.5zM934 57
q-22 -45 -80 -45q-48 0 -68 33q-23 32 -16 69t41 56q22 12 59 12h25q33 -3 49.5 -32t7.5 -62q-1 -5 -4 -10.5t-7.5 -11.5t-6.5 -9z" />
    <glyph glyph-name="perthousand" unicode="&#x2030;" horiz-adv-x="1513" 
d="M401 1001q-108 -153 -202 -153q-44 0 -79.5 26t-47.5 70q-18 65 -15 109q8 80 35.5 201t59.5 169q25 45 73 45q35 0 58 -26q16 -16 22 -31q77 7 123 -33q52 -44 59 -135q10 -105 -86 -242zM231 111q-15 -17 -21 -22.5t-18.5 -11t-29.5 -5.5q-58 0 -70 49q-10 39 12 92
q53 116 138 262q4 7 58 100t95.5 164.5t107.5 183t115 191.5t95.5 151.5t68.5 98.5q17 20 52 43q26 18 53 8q42 -10 52 -51t-21 -72q-1 -1 -4.5 -3.5l-7 -5t-3.5 -3.5q-42 -60 -175 -293.5t-282 -501.5t-167 -299q-3 -4 -23.5 -37.5t-24.5 -37.5zM285 1237
q-2 -21 -7.5 -60.5t-7.5 -58.5q39 68 39 121q-4 0 -12 -1t-12 -1zM993 360q-15 -50 -35 -99t-52 -109t-76 -97t-91 -37q-45 0 -77 29.5t-45.5 68t-16.5 83.5q-19 199 109 342q20 20 30 26q15 8 48 15.5t47 3.5q1 0 4 -1t4 -1q53 10 90 -6q44 -16 63 -56q29 -62 -2 -162z
M1425 170q-50 -53 -116 -53q-52 0 -95 39t-59 92q-30 123 23 223l-2 8q-7 43 25.5 72t78.5 29q57 0 109 -34.5t79 -88.5q35 -66 22.5 -150t-65.5 -137zM764 307q-6 -40 0 -80q64 105 88 199q-21 -6 -47 -6q-32 -57 -41 -113zM1294 317q3 -27 19 -49q19 11 26 40t0 50
q-5 18 -30 35q-9 -8 -13 -33.5t-2 -42.5z" />
    <glyph glyph-name="guilsinglleft" unicode="&#x2039;" horiz-adv-x="643" 
d="M522 362q19 -41 -4 -78.5t-69 -37.5q-154 3 -254 55q-48 24 -99.5 73.5t-58.5 92.5q-9 54 26 92q16 18 82 79.5t138 127t84 76.5q89 89 114 104q15 10 45 10q27 0 43 -8q38 -17 38.5 -60t-36.5 -65q-8 -4 -12 -8q-104 -109 -326 -313q59 -35 82 -43q25 -10 83.5 -28
t88.5 -32q21 -12 35 -37z" />
    <glyph glyph-name="guilsinglright" unicode="&#x203a;" horiz-adv-x="698" 
d="M645 506q-23 -40 -131 -110.5t-228.5 -126.5t-174.5 -56q-42 0 -66 37q-21 33 -5.5 69t54.5 56q188 83 381 196q-63 63 -160 119q-19 11 -74 39.5t-83 48.5q-25 19 -29 53q-3 37 20.5 62t55.5 25q27 0 47 -17q6 -5 29.5 -16t49.5 -22t31 -13q89 -39 177 -107t112 -139
q18 -51 -6 -98z" />
    <glyph glyph-name="fraction" unicode="&#x2044;" horiz-adv-x="921" 
d="M80 -82q-22 -16 -51 -16q-47 0 -62 37q-18 36 -6 63q19 41 94 171.5t148 252.5t160.5 267t95.5 159q52 91 180.5 304.5t161.5 260.5q25 35 65 35q47 0 73 -40t-3 -87l-14 -14q-128 -245 -154 -293q-254 -461 -631 -1022q-39 -67 -57 -78z" />
    <glyph glyph-name="Euro" unicode="&#x20ac;" horiz-adv-x="1032" 
d="M799 80q-199 -199 -301 -199q-73 0 -132.5 59.5t-93.5 149.5t-53 172.5t-24 151.5q-80 -23 -89 -23q-51 0 -69 47.5t22 79.5q21 19 134 55q0 39 8 125q-60 -6 -62 -6q-19 0 -37 6q-38 13 -45 52.5t23 68.5q6 6 25 14.5t28 10.5q36 4 96 16q18 75 42 146.5t65 151.5
t89.5 138.5t117.5 97t147 38.5q58 0 105 -21.5t78 -56.5t53 -83.5t32.5 -97.5t14.5 -104q0 -2 4 -10q15 -32 0.5 -64t-49.5 -41q-33 -10 -60 15.5t-39 64.5q-1 3 -5 26.5t-5 26.5q-8 29 -32 83t-39 67q-17 17 -41 14q-37 0 -73.5 -41t-63 -101.5t-43.5 -111.5t-25 -90
q115 18 153 21q25 3 50 -15q35 -25 32.5 -68t-39.5 -65q-36 -21 -233 -51q-2 -13 -5 -40.5t-5 -41.5q148 33 182 33q44 0 64.5 -32t7 -69.5t-55.5 -50.5q-123 -36 -207 -53q7 -220 82 -389q28 16 131.5 100.5t143.5 120.5q1 1 15.5 12.5t17.5 12.5q16 8 36 8q48 0 70.5 -42
t-10.5 -83q-13 -14 -66.5 -69t-66.5 -66z" />
    <glyph glyph-name="trademark" unicode="&#x2122;" horiz-adv-x="1312" 
d="M418 936q-7 -29 -29.5 -45.5t-48.5 -16.5q-27 0 -49 16t-31 46q-17 72 -22 129q-2 26 -9.5 75t-9.5 60q-1 6 -5 52.5t-5 52.5q-74 4 -107 16q-53 15 -72.5 64t13.5 90q14 15 45.5 30t52.5 15t41 -13t29 -32q151 14 227 14q100 0 140 -21q38 -22 38 -66.5t-38 -66.5
q-13 -7 -49 -12.5t-81.5 -9t-50.5 -4.5q-3 0 -8 -7t-4 -10q22 -78 35 -178q15 -109 -2 -178zM651 829q-15 -12 -37 -12q-29 0 -53.5 21t-25.5 49q-3 38 4 86q24 142 47 211q12 32 19.5 48.5t23.5 41t37 36t49 11.5q31 0 53 -14q25 -15 45.5 -41.5t41 -61.5t34.5 -53
q2 2 13 11.5t13 11.5q17 28 49.5 86t49.5 86q10 20 10 26q27 47 84 47q46 0 77.5 -37.5t39.5 -85.5q10 -48 24.5 -184.5t10.5 -175.5q-8 -98 -78 -98q-28 0 -49 18q-19 19 -29 53q-10 32 -33 230q-54 -94 -57 -99q-40 -56 -107 -69q-49 -6 -94 16q-43 22 -90 94
q-30 -110 -39 -180v-20q-3 -33 -33 -52z" />
    <glyph glyph-name="minus" unicode="&#x2212;" horiz-adv-x="798" 
d="M702 530q-199 -41 -378 -41q-128 0 -232 11q-32 4 -47 28q-26 35 -6.5 74t63.5 41q3 0 25 -2t25 -2q32 -3 155 8q233 29 381 41q32 3 57 -22q34 -35 19 -81t-62 -55z" />
    <glyph glyph-name="null" horiz-adv-x="0" 
 />
    </font>
</defs>
</svg>
